%FSLAX24Y24*%
%MOIN*%
G70*
G01*
G75*
G04 Layer_Color=8388736*
%ADD10R,0.0236X0.0157*%
%ADD11R,0.0551X0.0472*%
%ADD12R,0.0512X0.0472*%
%ADD13R,0.0354X0.0315*%
%ADD14R,0.1772X0.1772*%
%ADD15R,0.0110X0.0335*%
%ADD16R,0.0335X0.0110*%
%ADD17R,0.0295X0.0787*%
%ADD18R,0.0315X0.0354*%
%ADD19R,0.0138X0.0394*%
G04:AMPARAMS|DCode=20|XSize=78.7mil|YSize=39.4mil|CornerRadius=9.8mil|HoleSize=0mil|Usage=FLASHONLY|Rotation=90.000|XOffset=0mil|YOffset=0mil|HoleType=Round|Shape=RoundedRectangle|*
%AMROUNDEDRECTD20*
21,1,0.0787,0.0197,0,0,90.0*
21,1,0.0591,0.0394,0,0,90.0*
1,1,0.0197,0.0098,0.0295*
1,1,0.0197,0.0098,-0.0295*
1,1,0.0197,-0.0098,-0.0295*
1,1,0.0197,-0.0098,0.0295*
%
%ADD20ROUNDEDRECTD20*%
G04:AMPARAMS|DCode=21|XSize=59.1mil|YSize=39.4mil|CornerRadius=9.8mil|HoleSize=0mil|Usage=FLASHONLY|Rotation=180.000|XOffset=0mil|YOffset=0mil|HoleType=Round|Shape=RoundedRectangle|*
%AMROUNDEDRECTD21*
21,1,0.0591,0.0197,0,0,180.0*
21,1,0.0394,0.0394,0,0,180.0*
1,1,0.0197,-0.0197,0.0098*
1,1,0.0197,0.0197,0.0098*
1,1,0.0197,0.0197,-0.0098*
1,1,0.0197,-0.0197,-0.0098*
%
%ADD21ROUNDEDRECTD21*%
%ADD22R,0.1260X0.0591*%
%ADD23C,0.0100*%
%ADD24R,0.0364X0.0394*%
%ADD25R,0.0463X0.0295*%
%ADD26R,0.0000X0.0295*%
%ADD27R,0.3189X0.0315*%
%ADD28R,0.2400X0.0200*%
%ADD29R,0.1244X0.5621*%
%ADD30R,0.2972X0.0581*%
%ADD31C,0.0472*%
%ADD32C,0.0394*%
%ADD33C,0.0236*%
%ADD34C,0.0787*%
%ADD35R,0.0669X0.0669*%
%ADD36R,0.0394X0.0709*%
%ADD37O,0.0610X0.0098*%
%ADD38O,0.0098X0.0610*%
%ADD39R,0.0098X0.0138*%
%ADD40R,0.0138X0.0098*%
%ADD41R,0.0157X0.0236*%
%ADD42R,0.0394X0.0748*%
%ADD43P,0.0445X4X337.5*%
%ADD44P,0.0445X4X382.5*%
%ADD45P,0.0445X4X247.5*%
%ADD46P,0.0445X4X292.5*%
%ADD47O,0.0335X0.0098*%
%ADD48O,0.0098X0.0335*%
G04:AMPARAMS|DCode=49|XSize=15.7mil|YSize=23.6mil|CornerRadius=0mil|HoleSize=0mil|Usage=FLASHONLY|Rotation=331.875|XOffset=0mil|YOffset=0mil|HoleType=Round|Shape=Rectangle|*
%AMROTATEDRECTD49*
4,1,4,-0.0125,-0.0067,-0.0014,0.0141,0.0125,0.0067,0.0014,-0.0141,-0.0125,-0.0067,0.0*
%
%ADD49ROTATEDRECTD49*%

G04:AMPARAMS|DCode=50|XSize=15.7mil|YSize=23.6mil|CornerRadius=0mil|HoleSize=0mil|Usage=FLASHONLY|Rotation=241.875|XOffset=0mil|YOffset=0mil|HoleType=Round|Shape=Rectangle|*
%AMROTATEDRECTD50*
4,1,4,-0.0067,0.0125,0.0141,0.0014,0.0067,-0.0125,-0.0141,-0.0014,-0.0067,0.0125,0.0*
%
%ADD50ROTATEDRECTD50*%

G04:AMPARAMS|DCode=51|XSize=15.7mil|YSize=23.6mil|CornerRadius=0mil|HoleSize=0mil|Usage=FLASHONLY|Rotation=196.875|XOffset=0mil|YOffset=0mil|HoleType=Round|Shape=Rectangle|*
%AMROTATEDRECTD51*
4,1,4,0.0041,0.0136,0.0110,-0.0090,-0.0041,-0.0136,-0.0110,0.0090,0.0041,0.0136,0.0*
%
%ADD51ROTATEDRECTD51*%

G04:AMPARAMS|DCode=52|XSize=15.7mil|YSize=23.6mil|CornerRadius=0mil|HoleSize=0mil|Usage=FLASHONLY|Rotation=343.125|XOffset=0mil|YOffset=0mil|HoleType=Round|Shape=Rectangle|*
%AMROTATEDRECTD52*
4,1,4,-0.0110,-0.0090,-0.0041,0.0136,0.0110,0.0090,0.0041,-0.0136,-0.0110,-0.0090,0.0*
%
%ADD52ROTATEDRECTD52*%

G04:AMPARAMS|DCode=53|XSize=15.7mil|YSize=23.6mil|CornerRadius=0mil|HoleSize=0mil|Usage=FLASHONLY|Rotation=303.750|XOffset=0mil|YOffset=0mil|HoleType=Round|Shape=Rectangle|*
%AMROTATEDRECTD53*
4,1,4,-0.0142,-0.0000,0.0054,0.0131,0.0142,0.0000,-0.0054,-0.0131,-0.0142,-0.0000,0.0*
%
%ADD53ROTATEDRECTD53*%

%ADD54R,0.0472X0.0551*%
%ADD55R,0.0669X0.0630*%
G04:AMPARAMS|DCode=56|XSize=63mil|YSize=66.9mil|CornerRadius=0mil|HoleSize=0mil|Usage=FLASHONLY|Rotation=151.875|XOffset=0mil|YOffset=0mil|HoleType=Round|Shape=Rectangle|*
%AMROTATEDRECTD56*
4,1,4,0.0436,0.0147,0.0120,-0.0444,-0.0436,-0.0147,-0.0120,0.0444,0.0436,0.0147,0.0*
%
%ADD56ROTATEDRECTD56*%

%ADD57R,0.0316X0.0237*%
%ADD58R,0.0631X0.0552*%
%ADD59R,0.0592X0.0552*%
%ADD60R,0.0434X0.0395*%
%ADD61R,0.0012X0.0012*%
%ADD62R,0.0190X0.0415*%
%ADD63R,0.0415X0.0190*%
%ADD64R,0.0375X0.0867*%
%ADD65R,0.0395X0.0434*%
%ADD66R,0.0218X0.0474*%
G04:AMPARAMS|DCode=67|XSize=86.7mil|YSize=47.4mil|CornerRadius=13.8mil|HoleSize=0mil|Usage=FLASHONLY|Rotation=90.000|XOffset=0mil|YOffset=0mil|HoleType=Round|Shape=RoundedRectangle|*
%AMROUNDEDRECTD67*
21,1,0.0867,0.0197,0,0,90.0*
21,1,0.0591,0.0474,0,0,90.0*
1,1,0.0277,0.0098,0.0295*
1,1,0.0277,0.0098,-0.0295*
1,1,0.0277,-0.0098,-0.0295*
1,1,0.0277,-0.0098,0.0295*
%
%ADD67ROUNDEDRECTD67*%
G04:AMPARAMS|DCode=68|XSize=67.1mil|YSize=47.4mil|CornerRadius=13.8mil|HoleSize=0mil|Usage=FLASHONLY|Rotation=180.000|XOffset=0mil|YOffset=0mil|HoleType=Round|Shape=RoundedRectangle|*
%AMROUNDEDRECTD68*
21,1,0.0671,0.0197,0,0,180.0*
21,1,0.0394,0.0474,0,0,180.0*
1,1,0.0277,-0.0197,0.0098*
1,1,0.0277,0.0197,0.0098*
1,1,0.0277,0.0197,-0.0098*
1,1,0.0277,-0.0197,-0.0098*
%
%ADD68ROUNDEDRECTD68*%
%ADD69R,0.1340X0.0671*%
%ADD70C,0.0552*%
%ADD71C,0.0474*%
%ADD72C,0.0316*%
%ADD73C,0.0867*%
G36*
X3108Y-3705D02*
X2719D01*
Y-3540D01*
X3108D01*
Y-3705D01*
D02*
G37*
G36*
Y-4886D02*
X2719D01*
Y-4721D01*
X3108D01*
Y-4886D01*
D02*
G37*
G36*
X5451Y-3705D02*
X5061D01*
Y-3540D01*
X5451D01*
Y-3705D01*
D02*
G37*
G36*
X3108Y-3901D02*
X2719D01*
Y-3736D01*
X3108D01*
Y-3901D01*
D02*
G37*
G36*
X5451D02*
X5061D01*
Y-3736D01*
X5451D01*
Y-3901D01*
D02*
G37*
G36*
X4463Y-5283D02*
X4297D01*
Y-4894D01*
X4463D01*
Y-5283D01*
D02*
G37*
G36*
X3108Y-3508D02*
X2719D01*
Y-3343D01*
X3108D01*
Y-3508D01*
D02*
G37*
G36*
X4659Y-5283D02*
X4494D01*
Y-4894D01*
X4659D01*
Y-5283D01*
D02*
G37*
G36*
X5053D02*
X4888D01*
Y-4894D01*
X5053D01*
Y-5283D01*
D02*
G37*
G36*
X4856D02*
X4691D01*
Y-4894D01*
X4856D01*
Y-5283D01*
D02*
G37*
G36*
X5451Y-4295D02*
X5061D01*
Y-4130D01*
X5451D01*
Y-4295D01*
D02*
G37*
G36*
X3108Y-4098D02*
X2719D01*
Y-3933D01*
X3108D01*
Y-4098D01*
D02*
G37*
G36*
Y-4295D02*
X2719D01*
Y-4130D01*
X3108D01*
Y-4295D01*
D02*
G37*
G36*
X5451Y-4492D02*
X5061D01*
Y-4327D01*
X5451D01*
Y-4492D01*
D02*
G37*
G36*
X3108D02*
X2719D01*
Y-4327D01*
X3108D01*
Y-4492D01*
D02*
G37*
G36*
X4995Y-3219D02*
Y-3376D01*
Y-3529D01*
Y-3686D01*
Y-3839D01*
Y-3996D01*
Y-4149D01*
Y-4306D01*
Y-4459D01*
Y-4616D01*
Y-4828D01*
X3174D01*
Y-4459D01*
Y-4306D01*
Y-4149D01*
Y-3996D01*
Y-3839D01*
Y-3686D01*
Y-3529D01*
Y-3376D01*
Y-3219D01*
Y-3007D01*
X4995D01*
Y-3219D01*
D02*
G37*
G36*
X5451Y-4886D02*
X5061D01*
Y-4721D01*
X5451D01*
Y-4886D01*
D02*
G37*
G36*
Y-4689D02*
X5061D01*
Y-4524D01*
X5451D01*
Y-4689D01*
D02*
G37*
G36*
Y-4098D02*
X5061D01*
Y-3933D01*
X5451D01*
Y-4098D01*
D02*
G37*
G36*
X3108Y-4689D02*
X2719D01*
Y-4524D01*
X3108D01*
Y-4689D01*
D02*
G37*
G36*
X3872Y-2941D02*
X3707D01*
Y-2551D01*
X3872D01*
Y-2941D01*
D02*
G37*
G36*
X4069D02*
X3904D01*
Y-2551D01*
X4069D01*
Y-2941D01*
D02*
G37*
G36*
X3675D02*
X3510D01*
Y-2551D01*
X3675D01*
Y-2941D01*
D02*
G37*
G36*
X3281D02*
X3116D01*
Y-2551D01*
X3281D01*
Y-2941D01*
D02*
G37*
G36*
X3478D02*
X3313D01*
Y-2551D01*
X3478D01*
Y-2941D01*
D02*
G37*
G36*
X4856D02*
X4691D01*
Y-2551D01*
X4856D01*
Y-2941D01*
D02*
G37*
G36*
X5053D02*
X4888D01*
Y-2551D01*
X5053D01*
Y-2941D01*
D02*
G37*
G36*
X4659D02*
X4494D01*
Y-2551D01*
X4659D01*
Y-2941D01*
D02*
G37*
G36*
X4266D02*
X4101D01*
Y-2551D01*
X4266D01*
Y-2941D01*
D02*
G37*
G36*
X4463D02*
X4297D01*
Y-2551D01*
X4463D01*
Y-2941D01*
D02*
G37*
G36*
X3872Y-5283D02*
X3707D01*
Y-4894D01*
X3872D01*
Y-5283D01*
D02*
G37*
G36*
X3675D02*
X3510D01*
Y-4894D01*
X3675D01*
Y-5283D01*
D02*
G37*
G36*
X4069D02*
X3904D01*
Y-4894D01*
X4069D01*
Y-5283D01*
D02*
G37*
G36*
X5451Y-3508D02*
X5061D01*
Y-3343D01*
X5451D01*
Y-3508D01*
D02*
G37*
G36*
X4266Y-5283D02*
X4101D01*
Y-4894D01*
X4266D01*
Y-5283D01*
D02*
G37*
G36*
X3478D02*
X3313D01*
Y-4894D01*
X3478D01*
Y-5283D01*
D02*
G37*
G36*
X5451Y-3311D02*
X5061D01*
Y-3146D01*
X5451D01*
Y-3311D01*
D02*
G37*
G36*
X3108Y-3114D02*
X2719D01*
Y-2949D01*
X3108D01*
Y-3114D01*
D02*
G37*
G36*
X5451D02*
X5061D01*
Y-2949D01*
X5451D01*
Y-3114D01*
D02*
G37*
G36*
X3108Y-3311D02*
X2719D01*
Y-3146D01*
X3108D01*
Y-3311D01*
D02*
G37*
%LPC*%
G36*
X4783Y-4459D02*
X4626D01*
Y-4616D01*
X4783D01*
Y-4459D01*
D02*
G37*
G36*
X4473D02*
X4316D01*
Y-4616D01*
X4473D01*
Y-4459D01*
D02*
G37*
G36*
X3543D02*
X3386D01*
Y-4616D01*
X3543D01*
Y-4459D01*
D02*
G37*
G36*
X3853D02*
X3696D01*
Y-4616D01*
X3853D01*
Y-4459D01*
D02*
G37*
G36*
X4163D02*
X4006D01*
Y-4616D01*
X4163D01*
Y-4459D01*
D02*
G37*
G36*
X4473Y-3529D02*
X4316D01*
Y-3686D01*
X4473D01*
Y-3529D01*
D02*
G37*
G36*
X4783D02*
X4626D01*
Y-3686D01*
X4783D01*
Y-3529D01*
D02*
G37*
G36*
X4163D02*
X4006D01*
Y-3686D01*
X4163D01*
Y-3529D01*
D02*
G37*
G36*
X3543D02*
X3386D01*
Y-3686D01*
X3543D01*
Y-3529D01*
D02*
G37*
G36*
X3853D02*
X3696D01*
Y-3686D01*
X3853D01*
Y-3529D01*
D02*
G37*
G36*
X4473Y-3219D02*
X4316D01*
Y-3376D01*
X4473D01*
Y-3219D01*
D02*
G37*
G36*
X4783D02*
X4626D01*
Y-3376D01*
X4783D01*
Y-3219D01*
D02*
G37*
G36*
X4163D02*
X4006D01*
Y-3376D01*
X4163D01*
Y-3219D01*
D02*
G37*
G36*
X3543D02*
X3386D01*
Y-3376D01*
X3543D01*
Y-3219D01*
D02*
G37*
G36*
X3853D02*
X3696D01*
Y-3376D01*
X3853D01*
Y-3219D01*
D02*
G37*
G36*
X4473Y-4149D02*
X4316D01*
Y-4306D01*
X4473D01*
Y-4149D01*
D02*
G37*
G36*
X4783D02*
X4626D01*
Y-4306D01*
X4783D01*
Y-4149D01*
D02*
G37*
G36*
X4163D02*
X4006D01*
Y-4306D01*
X4163D01*
Y-4149D01*
D02*
G37*
G36*
X3543D02*
X3386D01*
Y-4306D01*
X3543D01*
Y-4149D01*
D02*
G37*
G36*
X3853D02*
X3696D01*
Y-4306D01*
X3853D01*
Y-4149D01*
D02*
G37*
G36*
X4473Y-3839D02*
X4316D01*
Y-3996D01*
X4473D01*
Y-3839D01*
D02*
G37*
G36*
X4783D02*
X4626D01*
Y-3996D01*
X4783D01*
Y-3839D01*
D02*
G37*
G36*
X4163D02*
X4006D01*
Y-3996D01*
X4163D01*
Y-3839D01*
D02*
G37*
G36*
X3543D02*
X3386D01*
Y-3996D01*
X3543D01*
Y-3839D01*
D02*
G37*
G36*
X3853D02*
X3696D01*
Y-3996D01*
X3853D01*
Y-3839D01*
D02*
G37*
%LPD*%
D57*
X6742Y2421D02*
D03*
Y2717D02*
D03*
X6821Y-2441D02*
D03*
Y-2146D02*
D03*
X4085Y-5856D02*
D03*
Y-6152D02*
D03*
X5246Y6900D02*
D03*
Y6604D02*
D03*
X5719Y6909D02*
D03*
Y6614D02*
D03*
X4616Y-974D02*
D03*
X4616Y-679D02*
D03*
D58*
X5876Y1900D02*
D03*
Y2687D02*
D03*
D59*
X157Y3780D02*
D03*
X1063D02*
D03*
Y4409D02*
D03*
X157D02*
D03*
D60*
X-581Y3848D02*
D03*
Y4400D02*
D03*
X1782Y3839D02*
D03*
Y4390D02*
D03*
X5322Y-845D02*
D03*
Y-1396D02*
D03*
X5872Y-845D02*
D03*
Y-1396D02*
D03*
D61*
X4085Y-3917D02*
D03*
D62*
X3199Y-2746D02*
D03*
X3395D02*
D03*
X3592D02*
D03*
X3789D02*
D03*
X3986D02*
D03*
X4183D02*
D03*
X4380D02*
D03*
X4577D02*
D03*
X4774D02*
D03*
X4971D02*
D03*
Y-5089D02*
D03*
X4774D02*
D03*
X4577D02*
D03*
X4380D02*
D03*
X4183D02*
D03*
X3986D02*
D03*
X3789D02*
D03*
X3592D02*
D03*
X3395D02*
D03*
X3199D02*
D03*
D63*
X5256Y-3031D02*
D03*
Y-3228D02*
D03*
Y-3425D02*
D03*
Y-3622D02*
D03*
Y-3819D02*
D03*
Y-4016D02*
D03*
Y-4213D02*
D03*
Y-4409D02*
D03*
Y-4606D02*
D03*
Y-4803D02*
D03*
X2913D02*
D03*
Y-4606D02*
D03*
Y-4409D02*
D03*
Y-4213D02*
D03*
Y-4016D02*
D03*
Y-3819D02*
D03*
Y-3622D02*
D03*
Y-3425D02*
D03*
Y-3228D02*
D03*
Y-3031D02*
D03*
D64*
X1969Y-9587D02*
D03*
X1181D02*
D03*
X394D02*
D03*
X-394D02*
D03*
X-1181D02*
D03*
X-1969D02*
D03*
Y-7913D02*
D03*
X-1181D02*
D03*
X-394D02*
D03*
X394Y-7913D02*
D03*
X1181Y-7913D02*
D03*
X1969D02*
D03*
D65*
X6973Y-5408D02*
D03*
X6422D02*
D03*
X6973Y-6008D02*
D03*
X6422D02*
D03*
X5226Y-6161D02*
D03*
X4675D02*
D03*
X-6516Y5974D02*
D03*
X-5965D02*
D03*
X-6506Y6594D02*
D03*
X-5955D02*
D03*
X-6516Y7195D02*
D03*
X-5965D02*
D03*
D66*
X7165Y-3012D02*
D03*
X6909D02*
D03*
X6654D02*
D03*
Y-3720D02*
D03*
X6909D02*
D03*
X7165D02*
D03*
D67*
X-7250Y-3135D02*
D03*
X-6463D02*
D03*
X-5675D02*
D03*
X-4888D02*
D03*
X-4100D02*
D03*
X-3313D02*
D03*
X-2526D02*
D03*
X-1738D02*
D03*
Y3165D02*
D03*
X-2526Y3165D02*
D03*
X-3313Y3165D02*
D03*
X-4100D02*
D03*
X-4888D02*
D03*
X-5675D02*
D03*
X-6463D02*
D03*
X-7250D02*
D03*
D68*
X-951Y-1954D02*
D03*
X-951Y-1166D02*
D03*
X-951Y-379D02*
D03*
Y409D02*
D03*
Y1196D02*
D03*
Y1983D02*
D03*
D69*
X10100Y2191D02*
D03*
Y-2100D02*
D03*
D70*
X2362Y9050D02*
D03*
X1575D02*
D03*
X787D02*
D03*
X0D02*
D03*
X-787D02*
D03*
X-1575D02*
D03*
X-2362D02*
D03*
X7895Y7243D02*
D03*
X8425Y6713D02*
D03*
D71*
X5315Y4882D02*
D03*
D72*
X-3317Y-3947D02*
D03*
X6319Y4724D02*
D03*
X8920Y-4120D02*
D03*
X7264Y-4232D02*
D03*
X2746Y-2736D02*
D03*
X5935Y-4764D02*
D03*
X5377Y-5241D02*
D03*
X4690Y-5580D02*
D03*
X-5965Y5207D02*
D03*
X5780Y-3370D02*
D03*
X380Y-2800D02*
D03*
X-1738Y-2072D02*
D03*
X-4820Y7175D02*
D03*
X-1738Y-1445D02*
D03*
X-170Y7170D02*
D03*
X2210Y3220D02*
D03*
X2900Y1330D02*
D03*
X2933Y3016D02*
D03*
X4877Y6110D02*
D03*
X6000Y4170D02*
D03*
X4343Y1403D02*
D03*
X4260Y1760D02*
D03*
X3424Y629D02*
D03*
X-1320Y-770D02*
D03*
X-3060Y2190D02*
D03*
X-960Y4430D02*
D03*
X1181Y-8719D02*
D03*
X-380Y-6020D02*
D03*
X394Y-8576D02*
D03*
X1370Y-2450D02*
D03*
X1580Y2844D02*
D03*
X4040Y6010D02*
D03*
X5310Y8460D02*
D03*
X-3350Y-2130D02*
D03*
X-900Y-10500D02*
D03*
X-7075Y-5315D02*
D03*
X-2595Y-575D02*
D03*
X1500Y-7450D02*
D03*
X3770Y-5970D02*
D03*
X4070Y-280D02*
D03*
X1100Y5600D02*
D03*
X-4130Y4280D02*
D03*
X2048Y6760D02*
D03*
X2849Y6307D02*
D03*
X-4070Y2570D02*
D03*
X4230Y3083D02*
D03*
X957Y7340D02*
D03*
X4280Y-1970D02*
D03*
X4380Y-420D02*
D03*
X-100Y8150D02*
D03*
X-2790Y6860D02*
D03*
Y4470D02*
D03*
X-3770Y2160D02*
D03*
X-4653Y-8570D02*
D03*
X-2940D02*
D03*
X-2630Y-3866D02*
D03*
X1310Y3140D02*
D03*
X620Y-4440D02*
D03*
X6746Y4010D02*
D03*
X6570Y5350D02*
D03*
X-5339Y-4247D02*
D03*
X-4913Y-5689D02*
D03*
X1860Y1030D02*
D03*
X2980Y-6029D02*
D03*
X790Y590D02*
D03*
X3438Y3998D02*
D03*
X4160Y2100D02*
D03*
X5320Y880D02*
D03*
X2050Y-3650D02*
D03*
X-4600Y-7710D02*
D03*
X-4720Y-1690D02*
D03*
X1890Y-4310D02*
D03*
X1235Y-6475D02*
D03*
X-2469Y-2257D02*
D03*
X-5160Y-4930D02*
D03*
Y-6080D02*
D03*
X-5700Y-5886D02*
D03*
X-6070Y-4000D02*
D03*
X-5750Y-1460D02*
D03*
X-3180Y50D02*
D03*
X360Y-7084D02*
D03*
X-430Y-2440D02*
D03*
X-210Y100D02*
D03*
X-3360Y-480D02*
D03*
X-4500Y-6880D02*
D03*
X2490Y-3650D02*
D03*
Y-4780D02*
D03*
X1394Y-2020D02*
D03*
X2820Y2039D02*
D03*
X1063Y4842D02*
D03*
X-3696Y3620D02*
D03*
X490Y-3600D02*
D03*
X970Y3340D02*
D03*
X-4426Y-7404D02*
D03*
X-450Y-2760D02*
D03*
X5300Y-70D02*
D03*
X-5010Y-240D02*
D03*
X-6100D02*
D03*
X-8000Y-3340D02*
D03*
X4260Y5030D02*
D03*
X-1690Y1590D02*
D03*
X-40Y2684D02*
D03*
X1974Y1750D02*
D03*
X2097Y7573D02*
D03*
X-3030Y-2179D02*
D03*
X-4193Y920D02*
D03*
X-1978Y333D02*
D03*
X-1730Y590D02*
D03*
X-3410Y1080D02*
D03*
X4970Y6604D02*
D03*
X-4680Y-3720D02*
D03*
X-2250Y-10500D02*
D03*
X5190Y-7110D02*
D03*
X-6560Y4610D02*
D03*
X-1743Y-4597D02*
D03*
X2740Y-1540D02*
D03*
X-1830Y-4080D02*
D03*
X3149Y-7420D02*
D03*
X-2766Y3872D02*
D03*
X-9016Y4093D02*
D03*
X-2440Y3920D02*
D03*
X-2982Y10070D02*
D03*
X-3670Y-9480D02*
D03*
X-4360Y-2325D02*
D03*
X-650Y-3720D02*
D03*
X-5231Y3926D02*
D03*
X1850Y7970D02*
D03*
X3400Y8620D02*
D03*
X-2080Y8350D02*
D03*
X-2372Y2233D02*
D03*
X5430Y6340D02*
D03*
X-1290Y-10590D02*
D03*
X-6018Y-5800D02*
D03*
X-6480Y-4540D02*
D03*
X-880Y-8060D02*
D03*
X-4710D02*
D03*
X7247Y3402D02*
D03*
X3120Y-2300D02*
D03*
X-1020Y-3760D02*
D03*
X-770Y-2770D02*
D03*
X7300Y4623D02*
D03*
X4360Y-1339D02*
D03*
X5220Y-2740D02*
D03*
X5122Y-1823D02*
D03*
X6240Y5270D02*
D03*
X6160Y-2441D02*
D03*
X-1570Y-9710D02*
D03*
X6194Y-4569D02*
D03*
X6106Y-1770D02*
D03*
X1645Y-9060D02*
D03*
D73*
X4085Y-3917D02*
D03*
M02*
