%FSLAX43Y43*%
%MOMM*%
G71*
G01*
G75*
G04 Layer_Color=8421504*
%ADD10R,0.600X0.400*%
%ADD11R,1.400X1.200*%
%ADD12R,1.300X1.200*%
%ADD13R,0.900X0.800*%
%ADD14R,4.500X4.500*%
%ADD15R,0.280X0.850*%
%ADD16R,0.850X0.280*%
%ADD17R,0.750X2.000*%
%ADD18R,0.800X0.900*%
%ADD19R,0.350X1.000*%
G04:AMPARAMS|DCode=20|XSize=2mm|YSize=1mm|CornerRadius=0.25mm|HoleSize=0mm|Usage=FLASHONLY|Rotation=90.000|XOffset=0mm|YOffset=0mm|HoleType=Round|Shape=RoundedRectangle|*
%AMROUNDEDRECTD20*
21,1,2.000,0.500,0,0,90.0*
21,1,1.500,1.000,0,0,90.0*
1,1,0.500,0.250,0.750*
1,1,0.500,0.250,-0.750*
1,1,0.500,-0.250,-0.750*
1,1,0.500,-0.250,0.750*
%
%ADD20ROUNDEDRECTD20*%
G04:AMPARAMS|DCode=21|XSize=1.5mm|YSize=1mm|CornerRadius=0.25mm|HoleSize=0mm|Usage=FLASHONLY|Rotation=180.000|XOffset=0mm|YOffset=0mm|HoleType=Round|Shape=RoundedRectangle|*
%AMROUNDEDRECTD21*
21,1,1.500,0.500,0,0,180.0*
21,1,1.000,1.000,0,0,180.0*
1,1,0.500,-0.500,0.250*
1,1,0.500,0.500,0.250*
1,1,0.500,0.500,-0.250*
1,1,0.500,-0.500,-0.250*
%
%ADD21ROUNDEDRECTD21*%
%ADD22R,3.200X1.500*%
%ADD23C,0.254*%
%ADD24R,1.350X0.750*%
%ADD25R,0.000X0.750*%
%ADD26R,8.275X0.800*%
%ADD27R,6.096X0.508*%
%ADD28R,3.161X14.453*%
%ADD29R,7.550X1.775*%
%ADD30C,1.200*%
%ADD31C,1.000*%
%ADD32C,0.600*%
%ADD33C,2.000*%
%ADD34R,1.700X1.700*%
%ADD35R,1.000X1.800*%
%ADD36O,1.550X0.250*%
%ADD37O,0.250X1.550*%
%ADD38R,0.250X0.350*%
%ADD39R,0.350X0.250*%
%ADD40R,0.400X0.600*%
%ADD41R,1.000X1.900*%
%ADD42P,1.131X4X337.5*%
%ADD43P,1.131X4X382.5*%
%ADD44P,1.131X4X247.5*%
%ADD45P,1.131X4X292.5*%
%ADD46O,0.850X0.250*%
%ADD47O,0.250X0.850*%
G04:AMPARAMS|DCode=48|XSize=0.4mm|YSize=0.6mm|CornerRadius=0mm|HoleSize=0mm|Usage=FLASHONLY|Rotation=331.875|XOffset=0mm|YOffset=0mm|HoleType=Round|Shape=Rectangle|*
%AMROTATEDRECTD48*
4,1,4,-0.318,-0.170,-0.035,0.359,0.318,0.170,0.035,-0.359,-0.318,-0.170,0.0*
%
%ADD48ROTATEDRECTD48*%

G04:AMPARAMS|DCode=49|XSize=0.4mm|YSize=0.6mm|CornerRadius=0mm|HoleSize=0mm|Usage=FLASHONLY|Rotation=241.875|XOffset=0mm|YOffset=0mm|HoleType=Round|Shape=Rectangle|*
%AMROTATEDRECTD49*
4,1,4,-0.170,0.318,0.359,0.035,0.170,-0.318,-0.359,-0.035,-0.170,0.318,0.0*
%
%ADD49ROTATEDRECTD49*%

G04:AMPARAMS|DCode=50|XSize=0.4mm|YSize=0.6mm|CornerRadius=0mm|HoleSize=0mm|Usage=FLASHONLY|Rotation=196.875|XOffset=0mm|YOffset=0mm|HoleType=Round|Shape=Rectangle|*
%AMROTATEDRECTD50*
4,1,4,0.104,0.345,0.278,-0.229,-0.104,-0.345,-0.278,0.229,0.104,0.345,0.0*
%
%ADD50ROTATEDRECTD50*%

G04:AMPARAMS|DCode=51|XSize=0.4mm|YSize=0.6mm|CornerRadius=0mm|HoleSize=0mm|Usage=FLASHONLY|Rotation=343.125|XOffset=0mm|YOffset=0mm|HoleType=Round|Shape=Rectangle|*
%AMROTATEDRECTD51*
4,1,4,-0.278,-0.229,-0.104,0.345,0.278,0.229,0.104,-0.345,-0.278,-0.229,0.0*
%
%ADD51ROTATEDRECTD51*%

G04:AMPARAMS|DCode=52|XSize=0.4mm|YSize=0.6mm|CornerRadius=0mm|HoleSize=0mm|Usage=FLASHONLY|Rotation=303.750|XOffset=0mm|YOffset=0mm|HoleType=Round|Shape=Rectangle|*
%AMROTATEDRECTD52*
4,1,4,-0.361,-0.000,0.138,0.333,0.361,0.000,-0.138,-0.333,-0.361,-0.000,0.0*
%
%ADD52ROTATEDRECTD52*%

%ADD53R,1.200X1.400*%
%ADD54R,1.700X1.600*%
G04:AMPARAMS|DCode=55|XSize=1.6mm|YSize=1.7mm|CornerRadius=0mm|HoleSize=0mm|Usage=FLASHONLY|Rotation=151.875|XOffset=0mm|YOffset=0mm|HoleType=Round|Shape=Rectangle|*
%AMROTATEDRECTD55*
4,1,4,1.106,0.373,0.305,-1.127,-1.106,-0.373,-0.305,1.127,1.106,0.373,0.0*
%
%ADD55ROTATEDRECTD55*%

%ADD56R,0.025X0.025*%
G36*
X12550Y-11425D02*
X12191D01*
X12050Y-11283D01*
Y-10979D01*
X12191Y-10837D01*
X12550D01*
Y-11425D01*
D02*
G37*
G36*
X11850Y-10979D02*
Y-11283D01*
X11708Y-11425D01*
X11404D01*
X11262Y-11283D01*
Y-10979D01*
X11404Y-10837D01*
X11708D01*
X11850Y-10979D01*
D02*
G37*
G36*
X13750Y-11315D02*
X12950D01*
Y-11085D01*
X13750D01*
Y-11315D01*
D02*
G37*
G36*
X7800D02*
X7000D01*
Y-11085D01*
X7800D01*
Y-11315D01*
D02*
G37*
G36*
X11062Y-10979D02*
Y-11283D01*
X10921Y-11425D01*
X10616D01*
X10475Y-11283D01*
Y-10979D01*
X10616Y-10837D01*
X10921D01*
X11062Y-10979D01*
D02*
G37*
G36*
X8700D02*
Y-11283D01*
X8559Y-11425D01*
X8200D01*
Y-10837D01*
X8559D01*
X8700Y-10979D01*
D02*
G37*
G36*
X7800Y-11815D02*
X7000D01*
Y-11585D01*
X7800D01*
Y-11815D01*
D02*
G37*
G36*
X10275Y-10979D02*
Y-11283D01*
X10134Y-11425D01*
X9829D01*
X9688Y-11283D01*
Y-10979D01*
X9829Y-10837D01*
X10134D01*
X10275Y-10979D01*
D02*
G37*
G36*
X9488D02*
Y-11283D01*
X9346Y-11425D01*
X9042D01*
X8900Y-11283D01*
Y-10979D01*
X9042Y-10837D01*
X9346D01*
X9488Y-10979D01*
D02*
G37*
G36*
X7800Y-10815D02*
X7000D01*
Y-10585D01*
X7800D01*
Y-10815D01*
D02*
G37*
G36*
X12550Y-10637D02*
X12191D01*
X12050Y-10496D01*
Y-10191D01*
X12191Y-10050D01*
X12550D01*
Y-10637D01*
D02*
G37*
G36*
X11850Y-10191D02*
Y-10496D01*
X11708Y-10637D01*
X11404D01*
X11262Y-10496D01*
Y-10191D01*
X11404Y-10050D01*
X11708D01*
X11850Y-10191D01*
D02*
G37*
G36*
X13750Y-10315D02*
X12950D01*
Y-10085D01*
X13750D01*
Y-10315D01*
D02*
G37*
G36*
X7800D02*
X7000D01*
Y-10085D01*
X7800D01*
Y-10315D01*
D02*
G37*
G36*
X11062Y-10191D02*
Y-10496D01*
X10921Y-10637D01*
X10616D01*
X10475Y-10496D01*
Y-10191D01*
X10616Y-10050D01*
X10921D01*
X11062Y-10191D01*
D02*
G37*
G36*
X8700D02*
Y-10496D01*
X8559Y-10637D01*
X8200D01*
Y-10050D01*
X8559D01*
X8700Y-10191D01*
D02*
G37*
G36*
X13750Y-10815D02*
X12950D01*
Y-10585D01*
X13750D01*
Y-10815D01*
D02*
G37*
G36*
X10275Y-10191D02*
Y-10496D01*
X10134Y-10637D01*
X9829D01*
X9688Y-10496D01*
Y-10191D01*
X9829Y-10050D01*
X10134D01*
X10275Y-10191D01*
D02*
G37*
G36*
X9488D02*
Y-10496D01*
X9346Y-10637D01*
X9042D01*
X8900Y-10496D01*
Y-10191D01*
X9042Y-10050D01*
X9346D01*
X9488Y-10191D01*
D02*
G37*
G36*
X11240Y-13325D02*
X11010D01*
Y-12525D01*
X11240D01*
Y-13325D01*
D02*
G37*
G36*
X10740D02*
X10510D01*
Y-12525D01*
X10740D01*
Y-13325D01*
D02*
G37*
G36*
X12241D02*
X12010D01*
Y-12525D01*
X12241D01*
Y-13325D01*
D02*
G37*
G36*
X11740D02*
X11510D01*
Y-12525D01*
X11740D01*
Y-13325D01*
D02*
G37*
G36*
X10240D02*
X10010D01*
Y-12525D01*
X10240D01*
Y-13325D01*
D02*
G37*
G36*
X8740D02*
X8509D01*
Y-12525D01*
X8740D01*
Y-13325D01*
D02*
G37*
G36*
X8240D02*
X8009D01*
Y-12525D01*
X8240D01*
Y-13325D01*
D02*
G37*
G36*
X9740D02*
X9510D01*
Y-12525D01*
X9740D01*
Y-13325D01*
D02*
G37*
G36*
X9240D02*
X9010D01*
Y-12525D01*
X9240D01*
Y-13325D01*
D02*
G37*
G36*
X12741D02*
X12510D01*
Y-12525D01*
X12741D01*
Y-13325D01*
D02*
G37*
G36*
X11850Y-11766D02*
Y-12125D01*
X11262D01*
Y-11766D01*
X11404Y-11625D01*
X11708D01*
X11850Y-11766D01*
D02*
G37*
G36*
X11062D02*
Y-12125D01*
X10475D01*
Y-11766D01*
X10616Y-11625D01*
X10921D01*
X11062Y-11766D01*
D02*
G37*
G36*
X13750Y-11815D02*
X12950D01*
Y-11585D01*
X13750D01*
Y-11815D01*
D02*
G37*
G36*
X12550Y-12125D02*
X12050D01*
Y-11766D01*
X12191Y-11625D01*
X12550D01*
Y-12125D01*
D02*
G37*
G36*
X10275Y-11766D02*
Y-12125D01*
X9688D01*
Y-11766D01*
X9829Y-11625D01*
X10134D01*
X10275Y-11766D01*
D02*
G37*
G36*
X13750Y-12315D02*
X12950D01*
Y-12085D01*
X13750D01*
Y-12315D01*
D02*
G37*
G36*
X7800D02*
X7000D01*
Y-12085D01*
X7800D01*
Y-12315D01*
D02*
G37*
G36*
X9488Y-11766D02*
Y-12125D01*
X8900D01*
Y-11766D01*
X9042Y-11625D01*
X9346D01*
X9488Y-11766D01*
D02*
G37*
G36*
X8700D02*
Y-12125D01*
X8200D01*
Y-11625D01*
X8559D01*
X8700Y-11766D01*
D02*
G37*
G36*
X12550Y-8275D02*
X12191D01*
X12050Y-8134D01*
Y-7775D01*
X12550D01*
Y-8275D01*
D02*
G37*
G36*
X11850Y-8134D02*
X11708Y-8275D01*
X11404D01*
X11262Y-8134D01*
Y-7775D01*
X11850D01*
Y-8134D01*
D02*
G37*
G36*
X13750Y-7815D02*
X12950D01*
Y-7585D01*
X13750D01*
Y-7815D01*
D02*
G37*
G36*
X7800D02*
X7000D01*
Y-7585D01*
X7800D01*
Y-7815D01*
D02*
G37*
G36*
X11062Y-8134D02*
X10921Y-8275D01*
X10616D01*
X10475Y-8134D01*
Y-7775D01*
X11062D01*
Y-8134D01*
D02*
G37*
G36*
X8700D02*
X8559Y-8275D01*
X8200D01*
Y-7775D01*
X8700D01*
Y-8134D01*
D02*
G37*
G36*
X13750Y-8315D02*
X12950D01*
Y-8085D01*
X13750D01*
Y-8315D01*
D02*
G37*
G36*
X10275Y-8134D02*
X10134Y-8275D01*
X9829D01*
X9688Y-8134D01*
Y-7775D01*
X10275D01*
Y-8134D01*
D02*
G37*
G36*
X9488D02*
X9346Y-8275D01*
X9042D01*
X8900Y-8134D01*
Y-7775D01*
X9488D01*
Y-8134D01*
D02*
G37*
G36*
X8240Y-7375D02*
X8009D01*
Y-6575D01*
X8240D01*
Y-7375D01*
D02*
G37*
G36*
X11740D02*
X11510D01*
Y-6575D01*
X11740D01*
Y-7375D01*
D02*
G37*
G36*
X11240D02*
X11010D01*
Y-6575D01*
X11240D01*
Y-7375D01*
D02*
G37*
G36*
X12741D02*
X12510D01*
Y-6575D01*
X12741D01*
Y-7375D01*
D02*
G37*
G36*
X12241D02*
X12010D01*
Y-6575D01*
X12241D01*
Y-7375D01*
D02*
G37*
G36*
X10740D02*
X10510D01*
Y-6575D01*
X10740D01*
Y-7375D01*
D02*
G37*
G36*
X9240D02*
X9010D01*
Y-6575D01*
X9240D01*
Y-7375D01*
D02*
G37*
G36*
X8740D02*
X8509D01*
Y-6575D01*
X8740D01*
Y-7375D01*
D02*
G37*
G36*
X10240D02*
X10010D01*
Y-6575D01*
X10240D01*
Y-7375D01*
D02*
G37*
G36*
X9740D02*
X9510D01*
Y-6575D01*
X9740D01*
Y-7375D01*
D02*
G37*
G36*
X7800Y-9815D02*
X7000D01*
Y-9585D01*
X7800D01*
Y-9815D01*
D02*
G37*
G36*
X12550Y-9850D02*
X12191D01*
X12050Y-9709D01*
Y-9404D01*
X12191Y-9263D01*
X12550D01*
Y-9850D01*
D02*
G37*
G36*
X13750Y-9315D02*
X12950D01*
Y-9085D01*
X13750D01*
Y-9315D01*
D02*
G37*
G36*
Y-9815D02*
X12950D01*
Y-9585D01*
X13750D01*
Y-9815D01*
D02*
G37*
G36*
X11850Y-9404D02*
Y-9709D01*
X11708Y-9850D01*
X11404D01*
X11262Y-9709D01*
Y-9404D01*
X11404Y-9263D01*
X11708D01*
X11850Y-9404D01*
D02*
G37*
G36*
X9488D02*
Y-9709D01*
X9346Y-9850D01*
X9042D01*
X8900Y-9709D01*
Y-9404D01*
X9042Y-9263D01*
X9346D01*
X9488Y-9404D01*
D02*
G37*
G36*
X8700D02*
Y-9709D01*
X8559Y-9850D01*
X8200D01*
Y-9263D01*
X8559D01*
X8700Y-9404D01*
D02*
G37*
G36*
X11062D02*
Y-9709D01*
X10921Y-9850D01*
X10616D01*
X10475Y-9709D01*
Y-9404D01*
X10616Y-9263D01*
X10921D01*
X11062Y-9404D01*
D02*
G37*
G36*
X10275D02*
Y-9709D01*
X10134Y-9850D01*
X9829D01*
X9688Y-9709D01*
Y-9404D01*
X9829Y-9263D01*
X10134D01*
X10275Y-9404D01*
D02*
G37*
G36*
X7800Y-9315D02*
X7000D01*
Y-9085D01*
X7800D01*
Y-9315D01*
D02*
G37*
G36*
Y-8815D02*
X7000D01*
Y-8585D01*
X7800D01*
Y-8815D01*
D02*
G37*
G36*
X12550Y-9063D02*
X12191D01*
X12050Y-8921D01*
Y-8617D01*
X12191Y-8475D01*
X12550D01*
Y-9063D01*
D02*
G37*
G36*
X7800Y-8315D02*
X7000D01*
Y-8085D01*
X7800D01*
Y-8315D01*
D02*
G37*
G36*
X13750Y-8815D02*
X12950D01*
Y-8585D01*
X13750D01*
Y-8815D01*
D02*
G37*
G36*
X11850Y-8617D02*
Y-8921D01*
X11708Y-9063D01*
X11404D01*
X11262Y-8921D01*
Y-8617D01*
X11404Y-8475D01*
X11708D01*
X11850Y-8617D01*
D02*
G37*
G36*
X9488D02*
Y-8921D01*
X9346Y-9063D01*
X9042D01*
X8900Y-8921D01*
Y-8617D01*
X9042Y-8475D01*
X9346D01*
X9488Y-8617D01*
D02*
G37*
G36*
X8700D02*
Y-8921D01*
X8559Y-9063D01*
X8200D01*
Y-8475D01*
X8559D01*
X8700Y-8617D01*
D02*
G37*
G36*
X11062D02*
Y-8921D01*
X10921Y-9063D01*
X10616D01*
X10475Y-8921D01*
Y-8617D01*
X10616Y-8475D01*
X10921D01*
X11062Y-8617D01*
D02*
G37*
G36*
X10275D02*
Y-8921D01*
X10134Y-9063D01*
X9829D01*
X9688Y-8921D01*
Y-8617D01*
X9829Y-8475D01*
X10134D01*
X10275Y-8617D01*
D02*
G37*
D10*
X17125Y6150D02*
D03*
Y6900D02*
D03*
X17325Y-6200D02*
D03*
Y-5450D02*
D03*
X10375Y-14875D02*
D03*
Y-15625D02*
D03*
X13325Y17525D02*
D03*
Y16775D02*
D03*
X14525Y17550D02*
D03*
Y16800D02*
D03*
X11725Y-2475D02*
D03*
X11725Y-1725D02*
D03*
D11*
X14925Y4825D02*
D03*
Y6825D02*
D03*
D12*
X400Y9600D02*
D03*
X2700D02*
D03*
Y11200D02*
D03*
X400D02*
D03*
D13*
X-1475Y9775D02*
D03*
Y11175D02*
D03*
X4525Y9750D02*
D03*
Y11150D02*
D03*
X13517Y-2147D02*
D03*
Y-3547D02*
D03*
X14914Y-2147D02*
D03*
Y-3547D02*
D03*
D17*
X5000Y-24350D02*
D03*
X3000D02*
D03*
X1000D02*
D03*
X-1000D02*
D03*
X-3000D02*
D03*
X-5000D02*
D03*
Y-20100D02*
D03*
X-3000D02*
D03*
X-1000D02*
D03*
X1000Y-20100D02*
D03*
X3000Y-20100D02*
D03*
X5000D02*
D03*
D18*
X17711Y-13736D02*
D03*
X16311D02*
D03*
X17711Y-15260D02*
D03*
X16311D02*
D03*
X13275Y-15650D02*
D03*
X11875D02*
D03*
X-16550Y15175D02*
D03*
X-15150D02*
D03*
X-16525Y16750D02*
D03*
X-15125D02*
D03*
X-16550Y18275D02*
D03*
X-15150D02*
D03*
D19*
X18200Y-7625D02*
D03*
X17550D02*
D03*
X16900D02*
D03*
Y-9425D02*
D03*
X17550D02*
D03*
X18200D02*
D03*
D20*
X-18415Y-7962D02*
D03*
X-16415D02*
D03*
X-14415D02*
D03*
X-12415D02*
D03*
X-10415D02*
D03*
X-8415D02*
D03*
X-6415D02*
D03*
X-4415D02*
D03*
Y8038D02*
D03*
X-6415Y8038D02*
D03*
X-8415Y8038D02*
D03*
X-10415D02*
D03*
X-12415D02*
D03*
X-14415D02*
D03*
X-16415D02*
D03*
X-18415D02*
D03*
D21*
X-2415Y-4962D02*
D03*
X-2415Y-2962D02*
D03*
X-2415Y-962D02*
D03*
Y1038D02*
D03*
Y3038D02*
D03*
Y5038D02*
D03*
D22*
X25654Y5566D02*
D03*
Y-5334D02*
D03*
D56*
X10375Y-9950D02*
D03*
M02*
