%FSLAX43Y43*%
%MOMM*%
G71*
G01*
G75*
G04 Layer_Physical_Order=2*
G04 Layer_Color=16711680*
%ADD10R,0.600X0.400*%
%ADD11R,1.400X1.200*%
%ADD12R,1.300X1.200*%
%ADD13R,0.900X0.800*%
%ADD14R,4.500X4.500*%
%ADD15R,0.280X0.850*%
%ADD16R,0.850X0.280*%
%ADD17R,0.750X2.000*%
%ADD18R,0.800X0.900*%
%ADD19R,0.350X1.000*%
G04:AMPARAMS|DCode=20|XSize=2mm|YSize=1mm|CornerRadius=0.25mm|HoleSize=0mm|Usage=FLASHONLY|Rotation=90.000|XOffset=0mm|YOffset=0mm|HoleType=Round|Shape=RoundedRectangle|*
%AMROUNDEDRECTD20*
21,1,2.000,0.500,0,0,90.0*
21,1,1.500,1.000,0,0,90.0*
1,1,0.500,0.250,0.750*
1,1,0.500,0.250,-0.750*
1,1,0.500,-0.250,-0.750*
1,1,0.500,-0.250,0.750*
%
%ADD20ROUNDEDRECTD20*%
G04:AMPARAMS|DCode=21|XSize=1.5mm|YSize=1mm|CornerRadius=0.25mm|HoleSize=0mm|Usage=FLASHONLY|Rotation=180.000|XOffset=0mm|YOffset=0mm|HoleType=Round|Shape=RoundedRectangle|*
%AMROUNDEDRECTD21*
21,1,1.500,0.500,0,0,180.0*
21,1,1.000,1.000,0,0,180.0*
1,1,0.500,-0.500,0.250*
1,1,0.500,0.500,0.250*
1,1,0.500,0.500,-0.250*
1,1,0.500,-0.500,-0.250*
%
%ADD21ROUNDEDRECTD21*%
%ADD22R,3.200X1.500*%
%ADD23C,0.254*%
%ADD24R,1.350X0.750*%
%ADD25R,0.000X0.750*%
%ADD26R,8.275X0.800*%
%ADD27R,6.096X0.508*%
%ADD28R,3.161X14.453*%
%ADD29R,7.550X1.775*%
%ADD30C,1.200*%
%ADD31C,1.000*%
%ADD32C,0.600*%
%ADD33C,2.000*%
%ADD34R,1.700X1.700*%
%ADD35R,1.000X1.800*%
%ADD36O,1.550X0.250*%
%ADD37O,0.250X1.550*%
%ADD38R,0.250X0.350*%
%ADD39R,0.350X0.250*%
%ADD40R,0.400X0.600*%
%ADD41R,1.000X1.900*%
%ADD42P,1.131X4X337.5*%
%ADD43P,1.131X4X382.5*%
%ADD44P,1.131X4X247.5*%
%ADD45P,1.131X4X292.5*%
%ADD46O,0.850X0.250*%
%ADD47O,0.250X0.850*%
G04:AMPARAMS|DCode=48|XSize=0.4mm|YSize=0.6mm|CornerRadius=0mm|HoleSize=0mm|Usage=FLASHONLY|Rotation=331.875|XOffset=0mm|YOffset=0mm|HoleType=Round|Shape=Rectangle|*
%AMROTATEDRECTD48*
4,1,4,-0.318,-0.170,-0.035,0.359,0.318,0.170,0.035,-0.359,-0.318,-0.170,0.0*
%
%ADD48ROTATEDRECTD48*%

G04:AMPARAMS|DCode=49|XSize=0.4mm|YSize=0.6mm|CornerRadius=0mm|HoleSize=0mm|Usage=FLASHONLY|Rotation=241.875|XOffset=0mm|YOffset=0mm|HoleType=Round|Shape=Rectangle|*
%AMROTATEDRECTD49*
4,1,4,-0.170,0.318,0.359,0.035,0.170,-0.318,-0.359,-0.035,-0.170,0.318,0.0*
%
%ADD49ROTATEDRECTD49*%

G04:AMPARAMS|DCode=50|XSize=0.4mm|YSize=0.6mm|CornerRadius=0mm|HoleSize=0mm|Usage=FLASHONLY|Rotation=196.875|XOffset=0mm|YOffset=0mm|HoleType=Round|Shape=Rectangle|*
%AMROTATEDRECTD50*
4,1,4,0.104,0.345,0.278,-0.229,-0.104,-0.345,-0.278,0.229,0.104,0.345,0.0*
%
%ADD50ROTATEDRECTD50*%

G04:AMPARAMS|DCode=51|XSize=0.4mm|YSize=0.6mm|CornerRadius=0mm|HoleSize=0mm|Usage=FLASHONLY|Rotation=343.125|XOffset=0mm|YOffset=0mm|HoleType=Round|Shape=Rectangle|*
%AMROTATEDRECTD51*
4,1,4,-0.278,-0.229,-0.104,0.345,0.278,0.229,0.104,-0.345,-0.278,-0.229,0.0*
%
%ADD51ROTATEDRECTD51*%

G04:AMPARAMS|DCode=52|XSize=0.4mm|YSize=0.6mm|CornerRadius=0mm|HoleSize=0mm|Usage=FLASHONLY|Rotation=303.750|XOffset=0mm|YOffset=0mm|HoleType=Round|Shape=Rectangle|*
%AMROTATEDRECTD52*
4,1,4,-0.361,-0.000,0.138,0.333,0.361,0.000,-0.138,-0.333,-0.361,-0.000,0.0*
%
%ADD52ROTATEDRECTD52*%

%ADD53R,1.200X1.400*%
%ADD54R,1.700X1.600*%
G04:AMPARAMS|DCode=55|XSize=1.6mm|YSize=1.7mm|CornerRadius=0mm|HoleSize=0mm|Usage=FLASHONLY|Rotation=151.875|XOffset=0mm|YOffset=0mm|HoleType=Round|Shape=Rectangle|*
%AMROTATEDRECTD55*
4,1,4,1.106,0.373,0.305,-1.127,-1.106,-0.373,-0.305,1.127,1.106,0.373,0.0*
%
%ADD55ROTATEDRECTD55*%

D10*
X-11825Y175D02*
D03*
Y-575D02*
D03*
X13950Y-19250D02*
D03*
Y-20200D02*
D03*
Y-21150D02*
D03*
X11650D02*
D03*
Y-19250D02*
D03*
X-20300Y13225D02*
D03*
Y14175D02*
D03*
Y15125D02*
D03*
X-18000D02*
D03*
Y13225D02*
D03*
X10250Y9275D02*
D03*
Y8525D02*
D03*
X17100Y7675D02*
D03*
Y6925D02*
D03*
D11*
X-22600Y15425D02*
D03*
Y13425D02*
D03*
X9025Y-7900D02*
D03*
Y-9900D02*
D03*
D12*
X15734Y-13698D02*
D03*
X18034D02*
D03*
Y-15298D02*
D03*
X15734D02*
D03*
D13*
X9700Y-23450D02*
D03*
X9700Y-22050D02*
D03*
X-15775Y16750D02*
D03*
Y15350D02*
D03*
X-18325Y16825D02*
D03*
Y18225D02*
D03*
X-19950Y16800D02*
D03*
Y18200D02*
D03*
X16475Y3525D02*
D03*
X16475Y4925D02*
D03*
X16175Y-19825D02*
D03*
Y-18425D02*
D03*
X17600Y-19850D02*
D03*
Y-18450D02*
D03*
D18*
X-14550Y-20725D02*
D03*
X-15950D02*
D03*
X-20000Y11375D02*
D03*
X-18600D02*
D03*
X23825Y12825D02*
D03*
X22425D02*
D03*
X-7625Y-11250D02*
D03*
X-9025Y-11250D02*
D03*
D23*
X19550Y8896D02*
Y9475D01*
X17727Y7073D02*
X19550Y8896D01*
X17727Y4777D02*
Y7073D01*
X18181Y-6508D02*
Y6631D01*
X19719Y8169D02*
Y8194D01*
X18181Y6631D02*
X19719Y8169D01*
X20923Y9398D02*
X22525D01*
X19719Y8194D02*
X20923Y9398D01*
X14448Y-10241D02*
X18181Y-6508D01*
X16475Y3525D02*
X17727Y4777D01*
X19160Y-7780D02*
X19456Y-8077D01*
X15088Y-10938D02*
X18246Y-7780D01*
X19160D01*
X18800Y-8407D02*
X18821D01*
X16825Y-11547D02*
X17907Y-10465D01*
X16825Y-14869D02*
Y-11547D01*
Y-14869D02*
X17254Y-15298D01*
X15734Y-16400D02*
X19425D01*
X16420Y-16967D02*
Y-16400D01*
X15734D02*
Y-15298D01*
X19425Y-16400D02*
Y-14378D01*
X18745Y-13698D02*
X19425Y-14378D01*
X17856Y-16967D02*
X18750Y-17861D01*
Y-18804D02*
Y-17861D01*
X17729Y-19825D02*
X18750Y-18804D01*
X10370Y-24950D02*
X10766Y-25345D01*
X9365Y-24950D02*
X10370D01*
X8738Y-25578D02*
X9365Y-24950D01*
X9272Y-24450D02*
X9297Y-24425D01*
X-3774Y-24450D02*
X9272D01*
X-3988Y-24663D02*
X-3774Y-24450D01*
X13345Y-24425D02*
X14884Y-22885D01*
X9297Y-24425D02*
X13345D01*
X-6242Y-24975D02*
X-5639Y-25578D01*
X-10320Y-24975D02*
X-6242D01*
X-10668Y-25323D02*
X-10320Y-24975D01*
X-9294Y-11250D02*
X-8433Y-10389D01*
X-10475Y-11250D02*
X-9294D01*
X13749Y16146D02*
X13792Y16104D01*
X12040Y16146D02*
X13749D01*
X7998Y-18847D02*
X8401Y-19250D01*
X8425D01*
X6895Y-6950D02*
X6975D01*
X6844Y-7002D02*
X6895Y-6950D01*
X19881Y15177D02*
X21400Y16696D01*
Y17050D01*
X5709Y-14200D02*
X8459Y-11450D01*
X10752D02*
X11875Y-10327D01*
X8459Y-11450D02*
X10752D01*
X8514Y-5173D02*
X11875Y-8533D01*
Y-10327D02*
Y-8533D01*
X8750Y-4699D02*
X12400Y-8349D01*
Y-10790D02*
Y-8349D01*
X9122Y-14068D02*
X12400Y-10790D01*
X9347Y-4654D02*
X12900Y-8207D01*
Y-11024D02*
Y-8207D01*
X9745Y-14178D02*
X12900Y-11024D01*
X12625Y-7213D02*
X13425Y-8013D01*
Y-11407D02*
Y-8013D01*
X11286Y-13546D02*
X13425Y-11407D01*
X13900Y-13072D02*
Y-7601D01*
X13659Y-13313D02*
X13900Y-13072D01*
X13259Y-6960D02*
X13900Y-7601D01*
X14448Y-12360D02*
Y-10241D01*
Y-12360D02*
X14453Y-12364D01*
Y-16789D02*
Y-12364D01*
X15075Y-12100D02*
X15078D01*
X15088Y-12090D01*
Y-10938D01*
X-2750Y16464D02*
X-2088Y17126D01*
X-2750Y13806D02*
Y16464D01*
X-3918Y12638D02*
X-2750Y13806D01*
X18542Y13004D02*
X19761D01*
X17997Y13549D02*
X18542Y13004D01*
X19761D02*
X21997Y15240D01*
X11286Y-14708D02*
Y-13546D01*
X13183Y-18059D02*
X14453Y-16789D01*
X12625Y-7213D02*
Y-5843D01*
X10448Y-3666D02*
X12625Y-5843D01*
X12359Y-4935D02*
Y-4477D01*
Y-4935D02*
X13079Y-5655D01*
Y-6780D02*
Y-5655D01*
Y-6780D02*
X13259Y-6960D01*
X872Y2396D02*
X1329D01*
X1270Y-6807D02*
Y-6500D01*
X12548Y-18696D02*
Y-14249D01*
X8401Y-19250D02*
X11650D01*
X-8890Y1000D02*
X-7688D01*
X-21793Y15425D02*
Y17768D01*
X-15150Y13225D02*
X-14393D01*
X-8567Y-8255D02*
X-8025D01*
X-12649Y610D02*
X-12259Y1000D01*
X-15855Y-2597D02*
X-12649Y610D01*
X-17167Y-12370D02*
X-14513D01*
X-19048D02*
X-17167D01*
X-17079Y-18775D02*
Y-14656D01*
X17825Y16422D02*
X19800Y18397D01*
X17997Y13549D02*
Y16250D01*
X7497Y3247D02*
X10211Y5961D01*
X14150Y1350D02*
Y3550D01*
Y-4704D02*
Y1350D01*
X13181Y3550D02*
Y3973D01*
X16175Y-19825D02*
X17729D01*
X14275Y-20200D02*
X14859D01*
X13950D02*
X14275D01*
X-9851Y19318D02*
X-6350D01*
X7858Y7660D02*
X8300Y8103D01*
X5420Y5222D02*
X7858Y7660D01*
X-16662Y11709D02*
X-16050D01*
Y11800D01*
Y10947D02*
Y11709D01*
X-20676Y14175D02*
X-20300D01*
X-21094D02*
X-20676D01*
X5572Y1584D02*
X7487Y3238D01*
X7497Y3247D01*
X-7625Y-11866D02*
Y-11250D01*
Y-12692D02*
Y-11866D01*
X4615Y-23450D02*
X9700D01*
X-10312D02*
X4615D01*
X-14100Y-13698D02*
X-9457D01*
X-16050Y409D02*
Y10947D01*
X-17323Y-2438D02*
Y-864D01*
Y-7315D02*
Y-2438D01*
X17907Y-10465D02*
X19456Y-8915D01*
X13009Y-4630D02*
Y-4191D01*
X13517Y-4699D01*
X13454Y-21150D02*
X13950D01*
X13310D02*
X13454D01*
X13310Y-21006D02*
Y-19533D01*
Y-21150D02*
Y-21006D01*
X-19152Y14224D02*
Y14617D01*
Y13733D02*
Y14224D01*
X13310Y-21006D02*
X13454Y-21150D01*
X12319Y-20015D02*
X13310Y-21006D01*
X-5715Y-26670D02*
X-4259D01*
X-7747D02*
X-5715D01*
X-22900Y9271D02*
X-20041D01*
X1270Y15037D02*
X2388D01*
X7235Y15986D02*
X8450D01*
X6350Y18745D02*
X8179D01*
X2430Y18644D02*
X3810D01*
X-1270Y20701D02*
X-254D01*
X-15300Y11455D02*
X-14770D01*
X15342Y11430D02*
Y11650D01*
X-14775Y-10787D02*
X-13562D01*
X-18450D02*
X-14775D01*
X-16459Y-11532D02*
X-14310D01*
X-18450D02*
X-16459D01*
X10820Y12650D02*
X11925D01*
X12700Y13970D02*
Y14453D01*
X10008Y13970D02*
X12700D01*
X14370Y9474D02*
X18800D01*
X-525Y3099D02*
X4242D01*
X2007Y1000D02*
Y1499D01*
X-18000Y13225D02*
X-15150D01*
X15138Y-18425D02*
X16175D01*
X14867Y-18696D02*
X15138Y-18425D01*
X12548Y-18696D02*
X14867D01*
X12548Y-18742D02*
Y-18696D01*
X12040Y-19250D02*
X12548Y-18742D01*
X13930Y-9440D02*
X14681Y-8560D01*
X12548Y-14249D02*
X13659Y-13313D01*
X965Y-7112D02*
X1270Y-6807D01*
X1250Y-6500D02*
X1270D01*
X-7442Y-2235D02*
X-4415Y-5262D01*
X-7442Y-2235D02*
Y754D01*
X-7688Y1000D02*
X-7442Y754D01*
X-18325Y18225D02*
X-12242D01*
X-152Y-373D02*
X457Y-0D01*
X-3116Y-373D02*
X-152D01*
X-4415Y-1672D02*
X-3116Y-373D01*
X-4415Y-3670D02*
Y-1672D01*
X-9800Y1000D02*
X-8890D01*
X-8025Y1865D01*
Y2775D01*
X-16100Y-14225D02*
Y-13725D01*
X-16325Y-14450D02*
X-16100Y-14225D01*
X-16873Y-14450D02*
X-16325D01*
X-17079Y-14656D02*
X-16873Y-14450D01*
X-17079Y-18775D02*
X-16375D01*
X-6350Y14850D02*
Y15835D01*
X-3974Y18212D01*
X-432D01*
X15050Y13150D02*
X15614D01*
X-6000Y22987D02*
X-3129Y25858D01*
X9891D01*
X10211Y5961D02*
X11193D01*
X13181Y3973D01*
Y3550D02*
X14150D01*
X11379Y13150D02*
X11925D01*
X11126Y13403D02*
X11379Y13150D01*
X10325Y13403D02*
X11126D01*
X5613Y8691D02*
X10325Y13403D01*
X5613Y8179D02*
Y8691D01*
X1250Y500D02*
X4488D01*
X5572Y1584D01*
X7366Y3378D02*
X7497Y3247D01*
X7450Y7660D02*
X7858D01*
X8300Y8103D02*
Y8500D01*
X15874Y16250D02*
X17653D01*
X17825Y16422D01*
X17997Y16250D01*
X21997Y15240D02*
X23044D01*
X23400Y14884D01*
Y14350D02*
Y14884D01*
X14275Y-20200D02*
X14580Y-20505D01*
Y-21666D02*
Y-20505D01*
X12796Y-23450D02*
X14580Y-21666D01*
X9700Y-23450D02*
X12796D01*
X16941Y-19850D02*
X17600D01*
X16175Y-19825D02*
X16941Y-19850D01*
X16420Y-16967D02*
X17856D01*
X-5025Y2775D02*
Y4227D01*
X-4453Y4799D01*
Y7798D01*
X-2345Y9905D01*
X1515D01*
X4648Y13038D01*
Y16027D01*
X4458Y16218D02*
X4648Y16027D01*
X-876Y16218D02*
X4458D01*
X-1270Y15824D02*
X-876Y16218D01*
X-1270Y14850D02*
Y15824D01*
X15734Y-11606D02*
X18821Y-8407D01*
X17907Y-10465D02*
X22657D01*
X17254Y-15298D02*
X18034D01*
X-20300Y13225D02*
X-19660D01*
X-19152Y13733D01*
Y14224D02*
X-13376D01*
X-9201Y18399D01*
X-5512D01*
Y20066D01*
X-4145Y21433D01*
X-1056D01*
X-619Y21869D01*
X7407D01*
X8009Y21268D01*
X10177D01*
X14707Y16739D01*
Y15519D02*
Y16739D01*
X13700Y14513D02*
X14707Y15519D01*
X13700Y13950D02*
Y14513D01*
X12387Y15519D02*
X13200Y14707D01*
Y13950D02*
Y14707D01*
X15240Y10592D02*
X15465Y10816D01*
X17751D01*
X18029Y11095D02*
X19479D01*
X21209Y12825D01*
X9712Y3562D02*
X11030D01*
X4650Y-1500D02*
X9712Y3562D01*
X1250Y-1500D02*
X4650D01*
X1250Y-500D02*
X4960D01*
X9931Y4470D01*
X10820D01*
X1250Y-2000D02*
X5101D01*
X8698Y1597D01*
X-2397Y-1000D02*
X1250D01*
X-3353Y-1956D02*
X-2397Y-1000D01*
X-7772Y5563D02*
Y6088D01*
X-2608Y11252D01*
X-2438D01*
X1250Y-4000D02*
X4907D01*
X6079Y-5173D01*
X8514D01*
X5709Y-19437D02*
Y-14200D01*
X3000Y-22146D02*
X5709Y-19437D01*
X-3525Y-10343D02*
Y-8275D01*
Y-10343D02*
X-3327Y-10541D01*
X-889D01*
X102Y-9550D01*
Y-8763D01*
X660Y-8204D01*
X1676D01*
X2013Y-8541D01*
Y-9365D02*
Y-8541D01*
X-965Y-12343D02*
X2013Y-9365D01*
X-965Y-15291D02*
Y-12343D01*
X1000Y-21784D02*
X2921Y-19863D01*
Y-17577D01*
X5255Y-15243D01*
Y-11709D01*
X6952Y-10012D01*
Y-8966D01*
X4208Y-6223D02*
X6952Y-8966D01*
X3480Y-6223D02*
X4208D01*
X4013Y7225D02*
Y9017D01*
X10262Y15265D01*
X13475Y21501D02*
X13487Y21488D01*
X13475Y21501D02*
Y24225D01*
X-9800Y-5000D02*
X-8919D01*
X-8509Y-5410D01*
X-4259Y-26670D02*
X-3861Y-26272D01*
X-2684D01*
X-2286Y-26670D01*
X-6591Y-1460D02*
Y549D01*
X-7525Y1483D02*
X-6591Y549D01*
X-7525Y1483D02*
Y2775D01*
X1250Y-3500D02*
X5537D01*
X6736Y-4699D01*
X8750D01*
X6756Y-14068D02*
X9122D01*
X6202Y-14622D02*
X6756Y-14068D01*
X6202Y-19859D02*
Y-14622D01*
X3099Y-22962D02*
X6202Y-19859D01*
X2489Y-22962D02*
X3099D01*
X2184Y-22657D02*
X2489Y-22962D01*
X2184Y-22657D02*
Y-21334D01*
X3810Y-19709D01*
Y-18923D01*
X9576Y-15164D02*
X9745Y-14994D01*
Y-14178D01*
X9347Y-4654D02*
Y-1702D01*
X10338Y-711D01*
X2794Y14224D02*
Y14630D01*
X2388Y15037D02*
X2794Y14630D01*
X1270Y14850D02*
Y15037D01*
X8450Y15986D02*
Y16350D01*
X-10490Y10871D02*
X-9195Y12167D01*
X-3632D01*
X-2108Y13691D01*
Y16164D01*
X-1600Y16672D01*
X4703D01*
X5202Y17170D01*
X7235Y15986D02*
Y16020D01*
X6350Y15134D02*
X7235Y15986D01*
X6350Y14850D02*
Y15134D01*
Y18745D02*
Y19676D01*
X5740Y18001D02*
X6350Y18745D01*
X2765Y18001D02*
X5740D01*
X1891Y17126D02*
X2765Y18001D01*
X-2088Y17126D02*
X1891D01*
X-9766Y12638D02*
X-3918D01*
X-11135Y11269D02*
X-9766Y12638D01*
X-11135Y7325D02*
Y11269D01*
Y7325D02*
X-10338Y6528D01*
X16479Y7675D02*
X17100D01*
X16323Y7831D02*
X16479Y7675D01*
X10744Y7831D02*
X16323D01*
X3810Y18644D02*
Y19676D01*
X9994Y-4126D02*
X10871Y-5004D01*
X9994Y-4126D02*
Y-2198D01*
X11125Y-1067D01*
X-1270Y19676D02*
Y20701D01*
X-3810Y19025D02*
Y19676D01*
X-5410Y17424D02*
X-3810Y19025D01*
X-7087Y17424D02*
X-5410D01*
X-7290Y11151D02*
X-7087Y11354D01*
X-8694Y11151D02*
X-7290D01*
X-10015Y9830D02*
X-8694Y11151D01*
X-10015Y8414D02*
Y9830D01*
Y8414D02*
X-9575Y7975D01*
Y5486D02*
Y7975D01*
X-11818Y-21768D02*
X-7468D01*
X-7025Y-9474D02*
X-6680Y-9819D01*
X-7025Y-9474D02*
Y-8275D01*
X-25591Y9625D02*
X-23650D01*
X-25970Y10003D02*
X-25591Y9625D01*
X9150Y17856D02*
Y18175D01*
X8820Y17526D02*
X9150Y17856D01*
X6756Y17526D02*
X8820D01*
X5290Y16059D02*
X6756Y17526D01*
X5290Y12753D02*
Y16059D01*
X1837Y9300D02*
X5290Y12753D01*
X1837Y7751D02*
Y9300D01*
Y7751D02*
X2137Y7450D01*
X2802D01*
X3327Y7976D01*
X387Y-12466D02*
X1575Y-11278D01*
X387Y-15031D02*
Y-12466D01*
X-632Y-16050D02*
X387Y-15031D01*
X-4753Y-16050D02*
X-632D01*
X-5740Y-15062D02*
X-4753Y-16050D01*
X-5740Y-15062D02*
Y-9373D01*
X-5525Y-9157D01*
Y-8275D01*
X22500Y10641D02*
Y11075D01*
X19302Y10641D02*
X22500D01*
X18847Y10185D02*
X19302Y10641D01*
X17135Y10185D02*
X18847D01*
X16688Y13276D02*
Y13589D01*
X16104Y12692D02*
X16688Y13276D01*
X15434Y12692D02*
X16104D01*
X15050Y12650D02*
X15434Y12692D01*
X-14775Y-10787D02*
X-13978Y-9990D01*
Y-1837D01*
X-13641Y-1500D01*
X-9800D01*
X-18450Y-10787D02*
Y-10600D01*
X-13875Y-14450D02*
X-12479D01*
X-14310Y-11532D02*
X-14191Y-11651D01*
X-13130D01*
X-12751Y-11271D01*
Y-2575D01*
X-12176Y-2000D01*
X-9800D01*
X12700Y13950D02*
Y13970D01*
X4848Y8810D02*
X10008Y13970D01*
X4848Y7095D02*
Y8810D01*
X4337Y6584D02*
X4848Y7095D01*
X2291Y6584D02*
X4337D01*
X392Y8484D02*
X2291Y6584D01*
X-2997Y8484D02*
X392D01*
X-3525Y7956D02*
X-2997Y8484D01*
X-3525Y2775D02*
Y7956D01*
X9050Y8136D02*
Y8500D01*
X6517Y5603D02*
X9050Y8136D01*
X6517Y5008D02*
Y5603D01*
X5077Y3568D02*
X6517Y5008D01*
X4229Y3568D02*
X5077D01*
X3823Y3975D02*
X4229Y3568D01*
X-762Y3975D02*
X3823D01*
X-1025Y3712D02*
X-762Y3975D01*
X-1025Y2775D02*
Y3712D01*
X-525Y2775D02*
Y3099D01*
X4242D02*
X4724Y2616D01*
X7569Y-15313D02*
X8501Y-16245D01*
X10820D01*
X11913Y-15153D01*
Y-14173D01*
X1250Y1000D02*
X2007D01*
X11298Y11650D02*
X11925D01*
X10168Y10520D02*
X11298Y11650D01*
X9097Y10520D02*
X10168D01*
X8732Y10155D02*
X9097Y10520D01*
X10566Y5334D02*
X11117D01*
X12082Y4369D01*
Y3333D02*
Y4369D01*
X11633Y2883D02*
X12082Y3333D01*
X10901Y2883D02*
X11633D01*
X5517Y-2500D02*
X10901Y2883D01*
X1250Y-2500D02*
X5517D01*
X1250Y-3000D02*
X6091D01*
X9960Y869D01*
X12147D01*
X13513Y2235D01*
X15782Y12150D02*
X15867Y12065D01*
X15050Y12150D02*
X15782D01*
X4801Y-9271D02*
X5207D01*
X3640Y-10432D02*
X4801Y-9271D01*
X3640Y-13469D02*
Y-10432D01*
X1995Y-15114D02*
X3640Y-13469D01*
X1995Y-19260D02*
Y-15114D01*
X1672Y-19583D02*
X1995Y-19260D01*
X-11684Y-19583D02*
X1672D01*
X-11989Y-4293D02*
X-11196Y-3500D01*
X-9800D01*
X4801Y-14783D02*
Y-10948D01*
X3136Y-16447D02*
X4801Y-14783D01*
X-9004Y-3000D02*
X-6271Y-5733D01*
X-9800Y-3000D02*
X-9004D01*
X-9800Y-500D02*
X-8339D01*
X-7899Y-940D01*
Y-2489D02*
Y-940D01*
Y-2489D02*
X-5436Y-4953D01*
Y-6172D02*
Y-4953D01*
X-5918Y-6655D02*
X-5436Y-6172D01*
X-7544Y-6655D02*
X-5918D01*
X-7849Y-6960D02*
X-7544Y-6655D01*
X-8484Y-6960D02*
X-7849D01*
X-11862Y-10338D02*
X-8484Y-6960D01*
X-11862Y-11760D02*
Y-10338D01*
X-12624Y-12522D02*
X-11862Y-11760D01*
X-13106Y-12522D02*
X-12624D01*
X-13113Y-15450D02*
X-13106Y-15443D01*
X-13875Y-15450D02*
X-13113D01*
X-14478Y-14950D02*
X-13875D01*
X-15418Y-10160D02*
X-15280Y-10022D01*
Y-4383D01*
X-14605Y-3708D01*
X-8204Y0D02*
X-8077Y127D01*
X-9800Y0D02*
X-8204D01*
X914Y-17994D02*
Y-13334D01*
X2608Y-11640D01*
Y-8153D01*
X2202Y-7747D02*
X2608Y-8153D01*
X711Y-7747D02*
X2202D01*
X-838Y-6198D02*
X711Y-7747D01*
X-1092Y-6198D02*
X-838D01*
X-4242Y254D02*
X-533D01*
X-4420Y76D02*
X-4242Y254D01*
X-5210Y76D02*
X-4420D01*
X-6525Y1391D02*
X-5210Y76D01*
X-6525Y1391D02*
Y2775D01*
X8184Y-9900D02*
X9025D01*
X7860Y-9576D02*
X8184Y-9900D01*
X7860Y-9576D02*
Y-8017D01*
X6844Y-7002D02*
X7860Y-8017D01*
X-9800Y-2500D02*
X-8977D01*
X-8610Y-2133D01*
Y-1295D01*
X-8534Y-1219D01*
X-12657Y-18703D02*
X-11430Y-17475D01*
X-12657Y-20752D02*
Y-18703D01*
Y-20752D02*
X-12298Y-21111D01*
X930D01*
X2449Y-19591D01*
Y-15744D01*
X4094Y-14099D01*
Y-10671D01*
X4461Y-10304D01*
X5291D01*
X6325Y-9271D01*
Y-12141D02*
X7406Y-11060D01*
Y-8506D01*
X4361Y-5461D02*
X7406Y-8506D01*
X4361Y-5461D02*
Y-4949D01*
X3912Y-4500D02*
X4361Y-4949D01*
X1250Y-4500D02*
X3912D01*
X1250Y-5000D02*
X3411D01*
X3542Y-5131D01*
X7163Y5180D02*
X8866Y6883D01*
X11430D01*
X11924Y7377D01*
X15799D01*
X16251Y6925D01*
X17100D01*
X-5525Y2775D02*
Y4851D01*
X-5032Y5344D01*
Y8145D01*
X-2778Y10400D01*
X800D01*
X2700Y12300D01*
X-9387Y9195D02*
X-7998Y10584D01*
X-4063D01*
X-1893Y12754D01*
X1222D01*
X2065Y13597D01*
X3810D01*
Y14850D01*
X11455Y12150D02*
X11925D01*
X11409Y12104D02*
X11455Y12150D01*
X10360Y12104D02*
X11409D01*
X9229Y10974D02*
X10360Y12104D01*
X8538Y10974D02*
X9229D01*
X8055Y10491D02*
X8538Y10974D01*
X8055Y10046D02*
Y10491D01*
X6287Y8278D02*
X8055Y10046D01*
X6287Y7674D02*
Y8278D01*
X4743Y6130D02*
X6287Y7674D01*
X2001Y6130D02*
X4743D01*
X333Y7798D02*
X2001Y6130D01*
X-2184Y7798D02*
X333D01*
X-3025Y6957D02*
X-2184Y7798D01*
X-3025Y2775D02*
Y6957D01*
X-5025Y-9449D02*
Y-8275D01*
X-5283Y-9707D02*
X-5025Y-9449D01*
X-5283Y-11723D02*
Y-9707D01*
Y-11723D02*
X-4703Y-12303D01*
X-1914D01*
X1245Y-9144D01*
X2464Y8484D02*
Y9148D01*
X5097Y11782D01*
X5762D01*
X9200Y15220D01*
Y16350D01*
X1250Y-5500D02*
X2286D01*
X2742Y-5956D01*
Y-6488D02*
Y-5956D01*
Y-6488D02*
X3096Y-6842D01*
Y-12329D02*
Y-6842D01*
X1541Y-13883D02*
X3096Y-12329D01*
X1541Y-18331D02*
Y-13883D01*
X1067Y-18806D02*
X1541Y-18331D01*
X-11243Y-18806D02*
X1067D01*
X-1143Y-7010D02*
X-1025Y-7128D01*
Y-8275D02*
Y-7128D01*
X21209Y12825D02*
X22425D01*
X17751Y10816D02*
X18029Y11095D01*
X13343Y-178D02*
X13462D01*
X10448Y-3073D02*
X13343Y-178D01*
X10448Y-3666D02*
Y-3073D01*
X10203Y-15791D02*
X11286Y-14708D01*
X8949Y-15791D02*
X10203D01*
X7736Y-14579D02*
X8949Y-15791D01*
X7140Y-14579D02*
X7736D01*
X6656Y-15062D02*
X7140Y-14579D01*
X6656Y-19776D02*
Y-15062D01*
Y-19776D02*
X6895Y-20015D01*
X12319D01*
X-14393Y13225D02*
X-12649Y11481D01*
Y610D02*
Y11481D01*
X-15855Y-6866D02*
Y-2597D01*
X-19200Y-10211D02*
X-15855Y-6866D01*
X-12259Y1000D02*
X-9800D01*
X-19200Y-10600D02*
Y-10211D01*
X-12322Y175D02*
X-11825D01*
X-12725Y-229D02*
X-12322Y175D01*
X-12725Y-610D02*
Y-229D01*
X-17323Y-2438D02*
X-15494Y-610D01*
X-26069Y-9692D02*
X-19700D01*
X-22900Y9271D02*
Y9625D01*
X-20041Y9271D02*
X-19279Y8509D01*
Y-8153D02*
Y8509D01*
X-19609Y-8484D02*
X-19279Y-8153D01*
X-20320Y-8484D02*
X-19609D01*
X-17323Y-864D02*
X-16050Y409D01*
X-19700Y-9692D02*
X-17323Y-7315D01*
X-18600Y11375D02*
Y12979D01*
X-18354Y13225D01*
X-18000D01*
X10820Y12650D02*
Y12776D01*
X457Y-0D02*
X1250D01*
X127Y330D02*
X457Y-0D01*
X127Y330D02*
Y1194D01*
X1329Y2396D01*
X3691D01*
X4097Y1989D02*
X5131D01*
X9332Y6415D02*
X11482D01*
X-2025Y1916D02*
Y2775D01*
Y1916D02*
X-1778Y1669D01*
X145D01*
X872Y2396D01*
X3691D02*
X4097Y1989D01*
X5131D02*
X5351Y2210D01*
Y2435D01*
X9332Y6415D01*
X11482D02*
X11647Y6250D01*
X14150D01*
X-2525Y2775D02*
Y4069D01*
X-1372Y5222D01*
X5420D01*
X-4025Y2775D02*
Y3771D01*
X-4293Y4039D02*
X-4025Y3771D01*
X-103Y6818D02*
X1039Y5676D01*
X5197D01*
X6741Y7220D01*
Y7933D01*
X8098Y9290D01*
X8928D01*
X9555Y9917D01*
X12329D01*
X12700Y10288D01*
Y10850D01*
X-1525Y2775D02*
Y4039D01*
X-1119Y4445D01*
X5013D01*
X1270Y19676D02*
Y20752D01*
X1473Y20955D01*
X5072D01*
X5326Y20701D01*
Y19236D02*
Y20701D01*
X-14513Y-12370D02*
X-13733Y-13149D01*
X-12340D01*
X-11225Y-12034D01*
Y-11250D01*
X-7525Y-8275D02*
Y-7322D01*
X-7343Y-7140D01*
X-3330D01*
X-1761Y-5571D01*
X-427D01*
X3Y-6000D01*
X1250D01*
X-9800Y-6500D02*
X-8661D01*
X-7696Y-5535D01*
X-11589Y3277D02*
X-10649Y2337D01*
X-11589Y3277D02*
Y12262D01*
X-10759Y13092D01*
X-4891D01*
X-3810Y14173D01*
Y14850D01*
X-5025Y847D02*
Y2775D01*
X-4525Y1629D02*
Y2775D01*
Y1629D02*
X-4394Y1499D01*
X-9695Y1710D02*
X-8661Y2743D01*
X-10973Y1710D02*
X-9695D01*
X-12043Y2780D02*
X-10973Y1710D01*
X-12043Y2780D02*
Y13136D01*
X-11633Y13546D01*
X-5540D01*
X-5237Y13849D01*
Y15442D01*
X-3099Y17580D01*
X-44D01*
X432Y18056D01*
Y20955D01*
X888Y21411D01*
X6936D01*
X9787Y18559D01*
X10839D01*
X12624Y16775D01*
X-10825Y-4500D02*
X-9800D01*
X-11887Y-5563D02*
X-10825Y-4500D01*
X-11887Y-9449D02*
Y-5563D01*
X-9317Y26482D02*
X-8293D01*
X-9880Y25919D02*
X-9317Y26482D01*
X-24642Y-12876D02*
Y-11931D01*
X-25495Y-11078D02*
X-24642Y-11931D01*
X24804Y-12714D02*
Y-11758D01*
X25284Y-11277D01*
X23655Y9880D02*
X25919D01*
X23275Y9500D02*
X23655Y9880D01*
X11983Y24579D02*
X12814D01*
X11277Y25284D02*
X11983Y24579D01*
X22525Y9398D02*
Y9500D01*
X18034Y-13698D02*
Y-13026D01*
X18948Y-12112D01*
X22264D01*
X24485Y-9891D01*
X25858D01*
X-11225Y-11250D02*
Y-10913D01*
X-8567Y-8255D01*
X-8025Y-8275D02*
Y-8255D01*
X-4428Y-11676D02*
X-4021Y-11270D01*
Y-9720D01*
X-4025Y-9716D02*
X-4021Y-9720D01*
X-4025Y-9716D02*
Y-8275D01*
X13215Y415D02*
X14150Y1350D01*
X10167Y415D02*
X13215D01*
X6960Y-2791D02*
X10167Y415D01*
X6960Y-3912D02*
Y-2791D01*
X-4648Y-10363D02*
X-4525Y-10240D01*
Y-8275D01*
X-7025Y2775D02*
Y3693D01*
X-7720Y4388D02*
X-7025Y3693D01*
X-8760Y4388D02*
X-7720D01*
X-8853Y4482D02*
X-8760Y4388D01*
X-8853Y4482D02*
Y8006D01*
X-7025Y9834D01*
X-22900Y9625D02*
Y10395D01*
X-6525Y2775D02*
Y4552D01*
X-6909Y4936D02*
X-6525Y4552D01*
X-8077Y4936D02*
X-6909D01*
X-8399Y5258D02*
X-8077Y4936D01*
X-8399Y5258D02*
Y7530D01*
X-6198Y9732D01*
Y9957D01*
X-7575Y25578D02*
Y26700D01*
X-11318Y-24455D02*
X-10312Y-23450D01*
X-11318Y-25323D02*
Y-24455D01*
X-4572Y-24079D02*
X-3988Y-24663D01*
X-9322Y-24079D02*
X-4572D01*
X-11074Y-5906D02*
X-10668Y-5500D01*
X-9800D01*
X-1651Y-9449D02*
X-1525Y-9323D01*
Y-8275D01*
X-15300Y11455D02*
Y11800D01*
X-14770Y11455D02*
X-13287Y9973D01*
X-7625Y-11250D02*
Y-9704D01*
X-7525Y-9604D01*
Y-8275D01*
X3810Y19676D02*
X4131D01*
X4699Y20244D01*
X6604Y23927D02*
X8636Y21895D01*
X-559Y23927D02*
X6604D01*
X-1067Y23419D02*
X-559Y23927D01*
X-1067Y22327D02*
Y23419D01*
X-1333Y22060D02*
X-1067Y22327D01*
X-4432Y22060D02*
X-1333D01*
X-5283Y21209D02*
X-4432Y22060D01*
X-6025Y2775D02*
Y5672D01*
X9891Y22233D02*
X15874Y16250D01*
X9891Y22233D02*
Y25858D01*
X21818Y14350D02*
X22650D01*
X19990Y12522D02*
X21818Y14350D01*
X18000Y12522D02*
X19990D01*
X17543Y12979D02*
X18000Y12522D01*
X17543Y12979D02*
Y14421D01*
X17453Y14511D02*
X17543Y14421D01*
X14395Y14511D02*
X17453D01*
X14200Y14316D02*
X14395Y14511D01*
X14200Y13950D02*
Y14316D01*
X11760Y15867D02*
X12040Y16146D01*
X11760Y15164D02*
Y15867D01*
Y15164D02*
X12040Y14884D01*
X12268D01*
X12700Y14453D01*
X-6350Y19318D02*
Y19676D01*
X-12419Y16750D02*
X-9851Y19318D01*
X-15775Y16750D02*
X-12419D01*
X-3277Y-27051D02*
Y-26899D01*
Y-27051D02*
X-3023Y-27305D01*
X6413D01*
X6843Y-26875D01*
X7050D01*
X-14375Y-18775D02*
X-13708D01*
X-7625Y-12692D01*
X-14600Y-14046D02*
Y-13725D01*
X-15286Y-14732D02*
X-14600Y-14046D01*
X-18450Y-11725D02*
Y-11532D01*
X-11963Y-20472D02*
X-2235D01*
X-24225Y-13500D02*
X-17971D01*
X10250Y9275D02*
X12340D01*
X12974Y8641D01*
X18408D01*
X7925Y-5842D02*
X9025Y-6942D01*
Y-7900D02*
Y-6942D01*
X-17269Y9728D02*
X-16050Y10947D01*
X-19594Y9728D02*
X-17269D01*
X-20000Y10135D02*
X-19594Y9728D01*
X-20000Y10135D02*
Y11375D01*
X-525Y-9262D02*
Y-8275D01*
X-1338Y-10076D02*
X-525Y-9262D01*
X-2064Y-10076D02*
X-1338D01*
X-2590Y-9550D02*
X-2064Y-10076D01*
X-2025Y-8275D02*
Y-7105D01*
X-1956Y-7036D01*
X15050Y11650D02*
X15342D01*
Y11430D02*
X16870D01*
X17182Y11742D01*
X18542D01*
X11075Y-3402D02*
X11284D01*
X12359Y-4477D01*
X-21844Y13425D02*
X-21094Y14175D01*
X-22600Y13425D02*
X-21844D01*
X-19200Y-12217D02*
Y-11725D01*
Y-12217D02*
X-19048Y-12370D01*
X-17167D02*
X-16100Y-13437D01*
Y-13725D02*
Y-13437D01*
X15614Y13150D02*
X15850Y13386D01*
X14150Y-4704D02*
X15646Y-6200D01*
X14884Y-22885D02*
X16053D01*
X20168Y-18771D01*
Y-14249D01*
X21042Y-13375D01*
X24450D01*
X-11318Y-25323D02*
X-10668D01*
X-5639Y-25578D02*
X8738D01*
X10766Y-25345D02*
X11266D01*
X11650Y-19250D02*
X12040D01*
X15734Y-13698D02*
Y-11606D01*
X19456Y-8915D02*
Y-8077D01*
X18800Y9474D02*
Y9475D01*
X14200Y9644D02*
X14370Y9474D01*
X14200Y9644D02*
Y10850D01*
X-9376Y-26452D02*
X-8465D01*
X-9932Y-25897D02*
X-9376Y-26452D01*
X13009Y-4191D02*
Y-2974D01*
X-14100Y-13725D02*
Y-13698D01*
X-9457D02*
X-7625Y-11866D01*
X19550Y9475D02*
Y9821D01*
X19915Y10187D01*
X22912D01*
X23250Y10525D01*
Y11075D01*
X15509Y-4496D02*
Y-2974D01*
X18034Y-13698D02*
X18745D01*
X4177Y-23012D02*
X4615Y-23450D01*
X-22600Y15425D02*
X-21793D01*
Y17768D02*
X-21361Y18200D01*
X-19950D01*
X7768Y-26657D02*
X9142D01*
X9880Y-25919D01*
X8179Y18745D02*
X8400Y18524D01*
Y18175D02*
Y18524D01*
X-22600Y12573D02*
Y13425D01*
X-23784Y11389D02*
X-22600Y12573D01*
X-25396Y11389D02*
X-23784D01*
X-14550Y-22090D02*
X-11318Y-25323D01*
X-14550Y-22090D02*
Y-20725D01*
X12340Y9275D02*
X13200Y10135D01*
Y10850D01*
X-11266Y25345D02*
X-8907Y22987D01*
X-6000D01*
X-20930Y13921D02*
X-20676Y14175D01*
X-20930Y11832D02*
Y13921D01*
Y11832D02*
X-20472Y11375D01*
X-20000D01*
X-19660Y15125D02*
X-19152Y14617D01*
X-20300Y15125D02*
X-19660D01*
X13592Y-19250D02*
X13950D01*
X13310Y-19533D02*
X13592Y-19250D01*
X-14600Y-16175D02*
Y-15875D01*
X-14803Y-15672D02*
X-14600Y-15875D01*
X-15397Y-15672D02*
X-14803D01*
X-15600Y-15875D02*
X-15397Y-15672D01*
X-15600Y-16175D02*
Y-15875D01*
X-19127Y18225D02*
X-18325D01*
X-19152Y18200D02*
X-19127Y18225D01*
X-19950Y18200D02*
X-19152D01*
X15955Y4925D02*
X16475D01*
X14630Y6250D02*
X15955Y4925D01*
X14150Y6250D02*
X14630D01*
X16891Y-18450D02*
X17600D01*
X16866Y-18425D02*
X16891Y-18450D01*
X16175Y-18425D02*
X16866D01*
X-19200Y-11725D02*
Y-10600D01*
X-16375Y-19539D02*
Y-18775D01*
Y-19539D02*
X-15950Y-19964D01*
Y-20725D02*
Y-19964D01*
X-6000Y21483D02*
Y22987D01*
X-6350Y21133D02*
X-6000Y21483D01*
X-6350Y19676D02*
Y21133D01*
X-17019Y16750D02*
X-15775D01*
X-17094Y16825D02*
X-17019Y16750D01*
X-18325Y16825D02*
X-17094D01*
X-19127D02*
X-18325D01*
X-19152Y16800D02*
X-19127Y16825D01*
X-19950Y16800D02*
X-19152D01*
X-14375Y-19688D02*
Y-18775D01*
X-14550Y-19863D02*
X-14375Y-19688D01*
X-14550Y-20725D02*
Y-19863D01*
X-14600Y-17377D02*
Y-16175D01*
Y-17377D02*
X-14375Y-17602D01*
Y-18775D02*
Y-17602D01*
X-15875Y-16175D02*
X-15600D01*
X-15875Y-16175D02*
X-15875Y-16175D01*
X-16100Y-16175D02*
X-15875D01*
X-16325Y-15701D02*
Y-15450D01*
Y-15701D02*
X-16100Y-15926D01*
Y-16175D02*
Y-15926D01*
X-16325Y-15450D02*
Y-14950D01*
X-10673Y500D02*
X-9800D01*
X-10998Y175D02*
X-10673Y500D01*
X-11825Y175D02*
X-10998D01*
X19800Y18397D02*
X20053D01*
X15316Y3525D02*
X16475D01*
X15291Y3550D02*
X15316Y3525D01*
X14150Y3550D02*
X15291D01*
X24372Y11266D02*
X25345D01*
X24181Y11075D02*
X24372Y11266D01*
X23250Y11075D02*
X24181D01*
X23825Y12234D02*
Y12825D01*
X23250Y11659D02*
X23825Y12234D01*
X23250Y11075D02*
Y11659D01*
X23400Y13785D02*
Y14350D01*
Y13785D02*
X23825Y13360D01*
Y12825D02*
Y13360D01*
X15234Y-19825D02*
X16175D01*
X14859Y-20200D02*
X15234Y-19825D01*
X-10475Y-11250D02*
X-9025D01*
X13200Y10850D02*
X13700D01*
X13437Y13950D02*
X13700D01*
X13437Y13950D02*
X13437Y13950D01*
X13200Y13950D02*
X13437D01*
X11111Y-21150D02*
X11650D01*
X10211Y-22050D02*
X11111Y-21150D01*
X9700Y-22050D02*
X10211D01*
X-16793Y15350D02*
X-15775D01*
X-17018Y15125D02*
X-16793Y15350D01*
X-18000Y15125D02*
X-17018D01*
X-10624Y-1000D02*
X-9800D01*
X-11049Y-575D02*
X-10624Y-1000D01*
X-11825Y-575D02*
X-11049D01*
X9652Y8525D02*
X10250D01*
X9627Y8500D02*
X9652Y8525D01*
X9050Y8500D02*
X9627D01*
D30*
X6000Y22987D02*
D03*
X4000D02*
D03*
X2000D02*
D03*
X0D02*
D03*
X-2000D02*
D03*
X-4000D02*
D03*
X-6000D02*
D03*
X20053Y18397D02*
D03*
X21400Y17050D02*
D03*
D31*
X13500Y12400D02*
D03*
D32*
X18800Y-8407D02*
D03*
X6975Y-6950D02*
D03*
X15075Y-12100D02*
D03*
X13659Y-13313D02*
D03*
X11913Y-14173D02*
D03*
X-15150Y13225D02*
D03*
X14681Y-8560D02*
D03*
X965Y-7112D02*
D03*
X-4415Y-5262D02*
D03*
X-12242Y18225D02*
D03*
X-4415Y-3670D02*
D03*
X-432Y18212D02*
D03*
X5613Y8179D02*
D03*
X7366Y3378D02*
D03*
X7450Y7660D02*
D03*
X22657Y-10465D02*
D03*
X12387Y15519D02*
D03*
X15240Y10592D02*
D03*
X11030Y3562D02*
D03*
X10820Y4470D02*
D03*
X8698Y1597D02*
D03*
X-3353Y-1956D02*
D03*
X-7772Y5563D02*
D03*
X-2438Y11252D02*
D03*
X3000Y-22146D02*
D03*
X-965Y-15291D02*
D03*
X1000Y-21784D02*
D03*
X3480Y-6223D02*
D03*
X4013Y7225D02*
D03*
X10262Y15265D02*
D03*
X13487Y21488D02*
D03*
X-8509Y-5410D02*
D03*
X-2286Y-26670D02*
D03*
X-17971Y-13500D02*
D03*
X-6591Y-1460D02*
D03*
X3810Y-18923D02*
D03*
X9576Y-15164D02*
D03*
X10338Y-711D02*
D03*
X2794Y14224D02*
D03*
X-10490Y10871D02*
D03*
X5202Y17170D02*
D03*
X7235Y16020D02*
D03*
X-10338Y6528D02*
D03*
X10744Y7831D02*
D03*
X2430Y18644D02*
D03*
X10871Y-5004D02*
D03*
X11125Y-1067D02*
D03*
X-254Y20701D02*
D03*
X-7087Y17424D02*
D03*
Y11354D02*
D03*
X-9575Y5486D02*
D03*
X-11818Y-21768D02*
D03*
X-7468D02*
D03*
X-6680Y-9819D02*
D03*
X3327Y7976D02*
D03*
X1575Y-11278D02*
D03*
X17135Y10185D02*
D03*
X16688Y13589D02*
D03*
X-13562Y-10787D02*
D03*
X-12479Y-14450D02*
D03*
X4724Y2616D02*
D03*
X7569Y-15313D02*
D03*
X2007Y1499D02*
D03*
X8732Y10155D02*
D03*
X10566Y5334D02*
D03*
X13513Y2235D02*
D03*
X15867Y12065D02*
D03*
X5207Y-9271D02*
D03*
X-11684Y-19583D02*
D03*
X-11989Y-4293D02*
D03*
X4801Y-10948D02*
D03*
X3136Y-16447D02*
D03*
X-6271Y-5733D02*
D03*
X-13106Y-12522D02*
D03*
Y-15443D02*
D03*
X-14478Y-14950D02*
D03*
X-15418Y-10160D02*
D03*
X-14605Y-3708D02*
D03*
X-8077Y127D02*
D03*
X914Y-17994D02*
D03*
X-1092Y-6198D02*
D03*
X-533Y254D02*
D03*
X-8534Y-1219D02*
D03*
X-11430Y-17475D02*
D03*
X6325Y-9271D02*
D03*
Y-12141D02*
D03*
X3542Y-5131D02*
D03*
X7163Y5180D02*
D03*
X2700Y12300D02*
D03*
X-9387Y9195D02*
D03*
X1245Y-9144D02*
D03*
X2464Y8484D02*
D03*
X-11243Y-18806D02*
D03*
X-1143Y-7010D02*
D03*
X13462Y-178D02*
D03*
X-12725Y-610D02*
D03*
X-15494D02*
D03*
X-20320Y-8484D02*
D03*
X10820Y12776D02*
D03*
X-4293Y4039D02*
D03*
X-103Y6818D02*
D03*
X5013Y4445D02*
D03*
X5326Y19236D02*
D03*
X-7696Y-5535D02*
D03*
X-10649Y2337D02*
D03*
X-8433Y-10389D02*
D03*
X-5025Y847D02*
D03*
X-4394Y1499D02*
D03*
X-8661Y2743D02*
D03*
X12624Y16775D02*
D03*
X-11887Y-9449D02*
D03*
X-5715Y-26670D02*
D03*
X13183Y-18059D02*
D03*
X-16662Y11709D02*
D03*
X-4428Y-11676D02*
D03*
X6960Y-3912D02*
D03*
X-4648Y-10363D02*
D03*
X7998Y-18847D02*
D03*
X-7025Y9834D02*
D03*
X-22900Y10395D02*
D03*
X-6198Y9957D02*
D03*
X-7575Y25578D02*
D03*
X-9322Y-24079D02*
D03*
X-11074Y-5906D02*
D03*
X-1651Y-9449D02*
D03*
X-13287Y9973D02*
D03*
X4699Y20244D02*
D03*
X8636Y21895D02*
D03*
X-5283Y21209D02*
D03*
X-6025Y5672D02*
D03*
X13792Y16104D02*
D03*
X-3277Y-26899D02*
D03*
X-15286Y-14732D02*
D03*
X-16459Y-11532D02*
D03*
X-2235Y-20472D02*
D03*
X-11963D02*
D03*
X18408Y8641D02*
D03*
X7925Y-5842D02*
D03*
X-2590Y-9550D02*
D03*
X-1956Y-7036D02*
D03*
X18542Y11742D02*
D03*
X11075Y-3402D02*
D03*
X13259Y-6960D02*
D03*
X13009Y-4630D02*
D03*
X15850Y13386D02*
D03*
X15646Y-6200D02*
D03*
X-3988Y-24663D02*
D03*
X15734Y-11606D02*
D03*
X13517Y-4699D02*
D03*
X15509Y-4496D02*
D03*
X4177Y-23012D02*
D03*
D33*
X10375Y-9950D02*
D03*
D34*
X13474Y12400D02*
D03*
D35*
X15509Y-2974D02*
D03*
X13009D02*
D03*
D36*
X-9800Y1000D02*
D03*
X-9800Y500D02*
D03*
X-9800Y0D02*
D03*
X-9800Y-500D02*
D03*
X-9800Y-1000D02*
D03*
Y-1500D02*
D03*
X-9800Y-2000D02*
D03*
Y-2500D02*
D03*
X-9800Y-3000D02*
D03*
Y-3500D02*
D03*
Y-4000D02*
D03*
Y-4500D02*
D03*
Y-5000D02*
D03*
X-9800Y-5500D02*
D03*
Y-6000D02*
D03*
X-9800Y-6500D02*
D03*
X1250Y-6500D02*
D03*
X1250Y-6000D02*
D03*
X1250Y-5500D02*
D03*
X1250Y-5000D02*
D03*
X1250Y-4500D02*
D03*
X1250Y-4000D02*
D03*
Y-3500D02*
D03*
X1250Y-3000D02*
D03*
X1250Y-2500D02*
D03*
X1250Y-2000D02*
D03*
X1250Y-1500D02*
D03*
Y-1000D02*
D03*
X1250Y-500D02*
D03*
X1250Y-0D02*
D03*
Y500D02*
D03*
X1250Y1000D02*
D03*
D37*
X-8025Y-8275D02*
D03*
X-7525Y-8275D02*
D03*
X-7025Y-8275D02*
D03*
X-6525D02*
D03*
X-6025D02*
D03*
X-5525D02*
D03*
X-5025D02*
D03*
X-4525Y-8275D02*
D03*
X-4025D02*
D03*
X-3525Y-8275D02*
D03*
X-3025Y-8275D02*
D03*
X-2525Y-8275D02*
D03*
X-2025Y-8275D02*
D03*
X-1525Y-8275D02*
D03*
X-1025D02*
D03*
X-525Y-8275D02*
D03*
X-525Y2775D02*
D03*
X-1025D02*
D03*
X-1525Y2775D02*
D03*
X-2025Y2775D02*
D03*
X-2525D02*
D03*
X-3025D02*
D03*
X-3525Y2775D02*
D03*
X-4025D02*
D03*
X-4525Y2775D02*
D03*
X-5025Y2775D02*
D03*
X-5525Y2775D02*
D03*
X-6025D02*
D03*
X-6525Y2775D02*
D03*
X-7025Y2775D02*
D03*
X-7525D02*
D03*
X-8025Y2775D02*
D03*
D38*
X-16100Y-13725D02*
D03*
X-15600D02*
D03*
X-15100D02*
D03*
X-14600Y-13725D02*
D03*
X-14100D02*
D03*
X-14100Y-16175D02*
D03*
X-14600D02*
D03*
X-15100D02*
D03*
X-15600D02*
D03*
X-16100Y-16175D02*
D03*
D39*
X-13875Y-14450D02*
D03*
X-13875Y-14950D02*
D03*
Y-15450D02*
D03*
X-16325D02*
D03*
Y-14950D02*
D03*
Y-14450D02*
D03*
D40*
X-11225Y-11250D02*
D03*
X-10475D02*
D03*
X23275Y9500D02*
D03*
X22525D02*
D03*
X-23650Y9625D02*
D03*
X-22900Y9625D02*
D03*
X-16050Y11800D02*
D03*
X-15300D02*
D03*
X23250Y11075D02*
D03*
X22500D02*
D03*
X-18450Y-10600D02*
D03*
X-19200D02*
D03*
X-18450Y-11725D02*
D03*
X-19200Y-11725D02*
D03*
X19550Y9475D02*
D03*
X18800D02*
D03*
X8300Y8500D02*
D03*
X9050D02*
D03*
X9150Y18175D02*
D03*
X8400D02*
D03*
X9200Y16350D02*
D03*
X8450D02*
D03*
X23400Y14350D02*
D03*
X22650D02*
D03*
D41*
X-6350Y14850D02*
D03*
X-3810D02*
D03*
X-1270D02*
D03*
X1270D02*
D03*
X3810D02*
D03*
X6350D02*
D03*
Y19676D02*
D03*
X3810D02*
D03*
X1270D02*
D03*
X-1270D02*
D03*
X-3810D02*
D03*
X-6350D02*
D03*
D42*
X-26069Y-9692D02*
D03*
X-25495Y-11078D02*
D03*
X25345Y11266D02*
D03*
X25919Y9880D02*
D03*
D43*
X-11318Y-25323D02*
D03*
X-9932Y-25897D02*
D03*
X9891Y25858D02*
D03*
X11277Y25284D02*
D03*
D44*
X11266Y-25345D02*
D03*
X9880Y-25919D02*
D03*
X-11266Y25345D02*
D03*
X-9880Y25919D02*
D03*
D45*
X25858Y-9891D02*
D03*
X25284Y-11277D02*
D03*
X-25396Y11389D02*
D03*
X-25970Y10003D02*
D03*
D46*
X15050Y11650D02*
D03*
Y12150D02*
D03*
Y12650D02*
D03*
Y13150D02*
D03*
X11925Y13150D02*
D03*
X11925Y12650D02*
D03*
X11925Y12150D02*
D03*
X11925Y11650D02*
D03*
D47*
X14200Y13950D02*
D03*
X13700D02*
D03*
X13200Y13950D02*
D03*
X12700D02*
D03*
Y10850D02*
D03*
X13200D02*
D03*
X13700D02*
D03*
X14200Y10850D02*
D03*
D48*
X12814Y24579D02*
D03*
X13475Y24225D02*
D03*
D49*
X24804Y-12714D02*
D03*
X24450Y-13375D02*
D03*
D50*
X7768Y-26657D02*
D03*
X7050Y-26875D02*
D03*
X-8293Y26482D02*
D03*
X-7575Y26700D02*
D03*
D51*
X-8465Y-26452D02*
D03*
X-7747Y-26670D02*
D03*
D52*
X-24642Y-12876D02*
D03*
X-24225Y-13500D02*
D03*
D53*
X-16375Y-18775D02*
D03*
X-14375D02*
D03*
D54*
X14150Y3550D02*
D03*
Y6250D02*
D03*
D55*
X17500Y16450D02*
D03*
X19881Y15177D02*
D03*
M02*
