%FSLAX43Y43*%
%MOMM*%
G71*
G01*
G75*
G04 Layer_Color=8388736*
%ADD10R,0.600X0.400*%
%ADD11R,1.400X1.200*%
%ADD12R,1.300X1.200*%
%ADD13R,0.900X0.800*%
%ADD14R,4.500X4.500*%
%ADD15R,0.280X0.850*%
%ADD16R,0.850X0.280*%
%ADD17R,0.750X2.000*%
%ADD18R,0.800X0.900*%
%ADD19R,0.350X1.000*%
G04:AMPARAMS|DCode=20|XSize=2mm|YSize=1mm|CornerRadius=0.25mm|HoleSize=0mm|Usage=FLASHONLY|Rotation=90.000|XOffset=0mm|YOffset=0mm|HoleType=Round|Shape=RoundedRectangle|*
%AMROUNDEDRECTD20*
21,1,2.000,0.500,0,0,90.0*
21,1,1.500,1.000,0,0,90.0*
1,1,0.500,0.250,0.750*
1,1,0.500,0.250,-0.750*
1,1,0.500,-0.250,-0.750*
1,1,0.500,-0.250,0.750*
%
%ADD20ROUNDEDRECTD20*%
G04:AMPARAMS|DCode=21|XSize=1.5mm|YSize=1mm|CornerRadius=0.25mm|HoleSize=0mm|Usage=FLASHONLY|Rotation=180.000|XOffset=0mm|YOffset=0mm|HoleType=Round|Shape=RoundedRectangle|*
%AMROUNDEDRECTD21*
21,1,1.500,0.500,0,0,180.0*
21,1,1.000,1.000,0,0,180.0*
1,1,0.500,-0.500,0.250*
1,1,0.500,0.500,0.250*
1,1,0.500,0.500,-0.250*
1,1,0.500,-0.500,-0.250*
%
%ADD21ROUNDEDRECTD21*%
%ADD22R,3.200X1.500*%
%ADD23C,0.254*%
%ADD24R,1.350X0.750*%
%ADD25R,0.000X0.750*%
%ADD26R,8.275X0.800*%
%ADD27R,6.096X0.508*%
%ADD28R,3.161X14.453*%
%ADD29R,7.550X1.775*%
%ADD30C,1.200*%
%ADD31C,1.000*%
%ADD32C,0.600*%
%ADD33C,2.000*%
%ADD34R,1.700X1.700*%
%ADD35R,1.000X1.800*%
%ADD36O,1.550X0.250*%
%ADD37O,0.250X1.550*%
%ADD38R,0.250X0.350*%
%ADD39R,0.350X0.250*%
%ADD40R,0.400X0.600*%
%ADD41R,1.000X1.900*%
%ADD42P,1.131X4X337.5*%
%ADD43P,1.131X4X382.5*%
%ADD44P,1.131X4X247.5*%
%ADD45P,1.131X4X292.5*%
%ADD46O,0.850X0.250*%
%ADD47O,0.250X0.850*%
G04:AMPARAMS|DCode=48|XSize=0.4mm|YSize=0.6mm|CornerRadius=0mm|HoleSize=0mm|Usage=FLASHONLY|Rotation=331.875|XOffset=0mm|YOffset=0mm|HoleType=Round|Shape=Rectangle|*
%AMROTATEDRECTD48*
4,1,4,-0.318,-0.170,-0.035,0.359,0.318,0.170,0.035,-0.359,-0.318,-0.170,0.0*
%
%ADD48ROTATEDRECTD48*%

G04:AMPARAMS|DCode=49|XSize=0.4mm|YSize=0.6mm|CornerRadius=0mm|HoleSize=0mm|Usage=FLASHONLY|Rotation=241.875|XOffset=0mm|YOffset=0mm|HoleType=Round|Shape=Rectangle|*
%AMROTATEDRECTD49*
4,1,4,-0.170,0.318,0.359,0.035,0.170,-0.318,-0.359,-0.035,-0.170,0.318,0.0*
%
%ADD49ROTATEDRECTD49*%

G04:AMPARAMS|DCode=50|XSize=0.4mm|YSize=0.6mm|CornerRadius=0mm|HoleSize=0mm|Usage=FLASHONLY|Rotation=196.875|XOffset=0mm|YOffset=0mm|HoleType=Round|Shape=Rectangle|*
%AMROTATEDRECTD50*
4,1,4,0.104,0.345,0.278,-0.229,-0.104,-0.345,-0.278,0.229,0.104,0.345,0.0*
%
%ADD50ROTATEDRECTD50*%

G04:AMPARAMS|DCode=51|XSize=0.4mm|YSize=0.6mm|CornerRadius=0mm|HoleSize=0mm|Usage=FLASHONLY|Rotation=343.125|XOffset=0mm|YOffset=0mm|HoleType=Round|Shape=Rectangle|*
%AMROTATEDRECTD51*
4,1,4,-0.278,-0.229,-0.104,0.345,0.278,0.229,0.104,-0.345,-0.278,-0.229,0.0*
%
%ADD51ROTATEDRECTD51*%

G04:AMPARAMS|DCode=52|XSize=0.4mm|YSize=0.6mm|CornerRadius=0mm|HoleSize=0mm|Usage=FLASHONLY|Rotation=303.750|XOffset=0mm|YOffset=0mm|HoleType=Round|Shape=Rectangle|*
%AMROTATEDRECTD52*
4,1,4,-0.361,-0.000,0.138,0.333,0.361,0.000,-0.138,-0.333,-0.361,-0.000,0.0*
%
%ADD52ROTATEDRECTD52*%

%ADD53R,1.200X1.400*%
%ADD54R,1.700X1.600*%
G04:AMPARAMS|DCode=55|XSize=1.6mm|YSize=1.7mm|CornerRadius=0mm|HoleSize=0mm|Usage=FLASHONLY|Rotation=151.875|XOffset=0mm|YOffset=0mm|HoleType=Round|Shape=Rectangle|*
%AMROTATEDRECTD55*
4,1,4,1.106,0.373,0.305,-1.127,-1.106,-0.373,-0.305,1.127,1.106,0.373,0.0*
%
%ADD55ROTATEDRECTD55*%

%ADD56R,0.025X0.025*%
%ADD57R,0.803X0.603*%
%ADD58R,1.603X1.403*%
%ADD59R,1.503X1.403*%
%ADD60R,1.103X1.003*%
%ADD61R,0.030X0.030*%
%ADD62R,0.483X1.053*%
%ADD63R,1.053X0.483*%
%ADD64R,0.953X2.203*%
%ADD65R,1.003X1.103*%
%ADD66R,0.553X1.203*%
G04:AMPARAMS|DCode=67|XSize=2.203mm|YSize=1.203mm|CornerRadius=0.352mm|HoleSize=0mm|Usage=FLASHONLY|Rotation=90.000|XOffset=0mm|YOffset=0mm|HoleType=Round|Shape=RoundedRectangle|*
%AMROUNDEDRECTD67*
21,1,2.203,0.500,0,0,90.0*
21,1,1.500,1.203,0,0,90.0*
1,1,0.703,0.250,0.750*
1,1,0.703,0.250,-0.750*
1,1,0.703,-0.250,-0.750*
1,1,0.703,-0.250,0.750*
%
%ADD67ROUNDEDRECTD67*%
G04:AMPARAMS|DCode=68|XSize=1.703mm|YSize=1.203mm|CornerRadius=0.352mm|HoleSize=0mm|Usage=FLASHONLY|Rotation=180.000|XOffset=0mm|YOffset=0mm|HoleType=Round|Shape=RoundedRectangle|*
%AMROUNDEDRECTD68*
21,1,1.703,0.500,0,0,180.0*
21,1,1.000,1.203,0,0,180.0*
1,1,0.703,-0.500,0.250*
1,1,0.703,0.500,0.250*
1,1,0.703,0.500,-0.250*
1,1,0.703,-0.500,-0.250*
%
%ADD68ROUNDEDRECTD68*%
%ADD69R,3.403X1.703*%
%ADD70C,1.403*%
%ADD71C,1.203*%
%ADD72C,0.803*%
%ADD73C,2.203*%
G36*
X7895Y-9410D02*
X6905D01*
Y-8990D01*
X7895D01*
Y-9410D01*
D02*
G37*
G36*
Y-12410D02*
X6905D01*
Y-11990D01*
X7895D01*
Y-12410D01*
D02*
G37*
G36*
X13845Y-9410D02*
X12855D01*
Y-8990D01*
X13845D01*
Y-9410D01*
D02*
G37*
G36*
X7895Y-9910D02*
X6905D01*
Y-9490D01*
X7895D01*
Y-9910D01*
D02*
G37*
G36*
X13845D02*
X12855D01*
Y-9490D01*
X13845D01*
Y-9910D01*
D02*
G37*
G36*
X11335Y-13420D02*
X10916D01*
Y-12430D01*
X11335D01*
Y-13420D01*
D02*
G37*
G36*
X7895Y-8910D02*
X6905D01*
Y-8490D01*
X7895D01*
Y-8910D01*
D02*
G37*
G36*
X11835Y-13420D02*
X11416D01*
Y-12430D01*
X11835D01*
Y-13420D01*
D02*
G37*
G36*
X12835D02*
X12416D01*
Y-12430D01*
X12835D01*
Y-13420D01*
D02*
G37*
G36*
X12335D02*
X11916D01*
Y-12430D01*
X12335D01*
Y-13420D01*
D02*
G37*
G36*
X13845Y-10910D02*
X12855D01*
Y-10490D01*
X13845D01*
Y-10910D01*
D02*
G37*
G36*
X7895Y-10410D02*
X6905D01*
Y-9990D01*
X7895D01*
Y-10410D01*
D02*
G37*
G36*
Y-10910D02*
X6905D01*
Y-10490D01*
X7895D01*
Y-10910D01*
D02*
G37*
G36*
X13845Y-11410D02*
X12855D01*
Y-10990D01*
X13845D01*
Y-11410D01*
D02*
G37*
G36*
X7895D02*
X6905D01*
Y-10990D01*
X7895D01*
Y-11410D01*
D02*
G37*
G36*
X12689Y-8175D02*
Y-8575D01*
Y-8963D01*
Y-9363D01*
Y-9750D01*
Y-10150D01*
Y-10537D01*
Y-10937D01*
Y-11325D01*
Y-11725D01*
Y-12264D01*
X8061D01*
Y-11325D01*
Y-10937D01*
Y-10537D01*
Y-10150D01*
Y-9750D01*
Y-9363D01*
Y-8963D01*
Y-8575D01*
Y-8175D01*
Y-7636D01*
X12689D01*
Y-8175D01*
D02*
G37*
G36*
X13845Y-12410D02*
X12855D01*
Y-11990D01*
X13845D01*
Y-12410D01*
D02*
G37*
G36*
Y-11910D02*
X12855D01*
Y-11490D01*
X13845D01*
Y-11910D01*
D02*
G37*
G36*
Y-10410D02*
X12855D01*
Y-9990D01*
X13845D01*
Y-10410D01*
D02*
G37*
G36*
X7895Y-11910D02*
X6905D01*
Y-11490D01*
X7895D01*
Y-11910D01*
D02*
G37*
G36*
X9834Y-7470D02*
X9415D01*
Y-6480D01*
X9834D01*
Y-7470D01*
D02*
G37*
G36*
X10335D02*
X9915D01*
Y-6480D01*
X10335D01*
Y-7470D01*
D02*
G37*
G36*
X9334D02*
X8915D01*
Y-6480D01*
X9334D01*
Y-7470D01*
D02*
G37*
G36*
X8334D02*
X7915D01*
Y-6480D01*
X8334D01*
Y-7470D01*
D02*
G37*
G36*
X8834D02*
X8415D01*
Y-6480D01*
X8834D01*
Y-7470D01*
D02*
G37*
G36*
X12335D02*
X11916D01*
Y-6480D01*
X12335D01*
Y-7470D01*
D02*
G37*
G36*
X12835D02*
X12416D01*
Y-6480D01*
X12835D01*
Y-7470D01*
D02*
G37*
G36*
X11835D02*
X11416D01*
Y-6480D01*
X11835D01*
Y-7470D01*
D02*
G37*
G36*
X10835D02*
X10415D01*
Y-6480D01*
X10835D01*
Y-7470D01*
D02*
G37*
G36*
X11335D02*
X10916D01*
Y-6480D01*
X11335D01*
Y-7470D01*
D02*
G37*
G36*
X9834Y-13420D02*
X9415D01*
Y-12430D01*
X9834D01*
Y-13420D01*
D02*
G37*
G36*
X9334D02*
X8915D01*
Y-12430D01*
X9334D01*
Y-13420D01*
D02*
G37*
G36*
X10335D02*
X9915D01*
Y-12430D01*
X10335D01*
Y-13420D01*
D02*
G37*
G36*
X13845Y-8910D02*
X12855D01*
Y-8490D01*
X13845D01*
Y-8910D01*
D02*
G37*
G36*
X10835Y-13420D02*
X10415D01*
Y-12430D01*
X10835D01*
Y-13420D01*
D02*
G37*
G36*
X8834D02*
X8415D01*
Y-12430D01*
X8834D01*
Y-13420D01*
D02*
G37*
G36*
X13845Y-8410D02*
X12855D01*
Y-7990D01*
X13845D01*
Y-8410D01*
D02*
G37*
G36*
X7895Y-7910D02*
X6905D01*
Y-7490D01*
X7895D01*
Y-7910D01*
D02*
G37*
G36*
X13845D02*
X12855D01*
Y-7490D01*
X13845D01*
Y-7910D01*
D02*
G37*
G36*
X7895Y-8410D02*
X6905D01*
Y-7990D01*
X7895D01*
Y-8410D01*
D02*
G37*
%LPC*%
G36*
X12150Y-11325D02*
X11750D01*
Y-11725D01*
X12150D01*
Y-11325D01*
D02*
G37*
G36*
X11362D02*
X10962D01*
Y-11725D01*
X11362D01*
Y-11325D01*
D02*
G37*
G36*
X9000D02*
X8600D01*
Y-11725D01*
X9000D01*
Y-11325D01*
D02*
G37*
G36*
X9788D02*
X9388D01*
Y-11725D01*
X9788D01*
Y-11325D01*
D02*
G37*
G36*
X10575D02*
X10175D01*
Y-11725D01*
X10575D01*
Y-11325D01*
D02*
G37*
G36*
X11362Y-8963D02*
X10962D01*
Y-9363D01*
X11362D01*
Y-8963D01*
D02*
G37*
G36*
X12150D02*
X11750D01*
Y-9363D01*
X12150D01*
Y-8963D01*
D02*
G37*
G36*
X10575D02*
X10175D01*
Y-9363D01*
X10575D01*
Y-8963D01*
D02*
G37*
G36*
X9000D02*
X8600D01*
Y-9363D01*
X9000D01*
Y-8963D01*
D02*
G37*
G36*
X9788D02*
X9388D01*
Y-9363D01*
X9788D01*
Y-8963D01*
D02*
G37*
G36*
X11362Y-8175D02*
X10962D01*
Y-8575D01*
X11362D01*
Y-8175D01*
D02*
G37*
G36*
X12150D02*
X11750D01*
Y-8575D01*
X12150D01*
Y-8175D01*
D02*
G37*
G36*
X10575D02*
X10175D01*
Y-8575D01*
X10575D01*
Y-8175D01*
D02*
G37*
G36*
X9000D02*
X8600D01*
Y-8575D01*
X9000D01*
Y-8175D01*
D02*
G37*
G36*
X9788D02*
X9388D01*
Y-8575D01*
X9788D01*
Y-8175D01*
D02*
G37*
G36*
X11362Y-10537D02*
X10962D01*
Y-10937D01*
X11362D01*
Y-10537D01*
D02*
G37*
G36*
X12150D02*
X11750D01*
Y-10937D01*
X12150D01*
Y-10537D01*
D02*
G37*
G36*
X10575D02*
X10175D01*
Y-10937D01*
X10575D01*
Y-10537D01*
D02*
G37*
G36*
X9000D02*
X8600D01*
Y-10937D01*
X9000D01*
Y-10537D01*
D02*
G37*
G36*
X9788D02*
X9388D01*
Y-10937D01*
X9788D01*
Y-10537D01*
D02*
G37*
G36*
X11362Y-9750D02*
X10962D01*
Y-10150D01*
X11362D01*
Y-9750D01*
D02*
G37*
G36*
X12150D02*
X11750D01*
Y-10150D01*
X12150D01*
Y-9750D01*
D02*
G37*
G36*
X10575D02*
X10175D01*
Y-10150D01*
X10575D01*
Y-9750D01*
D02*
G37*
G36*
X9000D02*
X8600D01*
Y-10150D01*
X9000D01*
Y-9750D01*
D02*
G37*
G36*
X9788D02*
X9388D01*
Y-10150D01*
X9788D01*
Y-9750D01*
D02*
G37*
%LPD*%
D57*
X17125Y6150D02*
D03*
Y6900D02*
D03*
X17325Y-6200D02*
D03*
Y-5450D02*
D03*
X10375Y-14875D02*
D03*
Y-15625D02*
D03*
X13325Y17525D02*
D03*
Y16775D02*
D03*
X14525Y17550D02*
D03*
Y16800D02*
D03*
X11725Y-2475D02*
D03*
X11725Y-1725D02*
D03*
D58*
X14925Y4825D02*
D03*
Y6825D02*
D03*
D59*
X400Y9600D02*
D03*
X2700D02*
D03*
Y11200D02*
D03*
X400D02*
D03*
D60*
X-1475Y9775D02*
D03*
Y11175D02*
D03*
X4525Y9750D02*
D03*
Y11150D02*
D03*
X13517Y-2147D02*
D03*
Y-3547D02*
D03*
X14914Y-2147D02*
D03*
Y-3547D02*
D03*
D61*
X10375Y-9950D02*
D03*
D62*
X8124Y-6975D02*
D03*
X8625D02*
D03*
X9125D02*
D03*
X9625D02*
D03*
X10125D02*
D03*
X10625D02*
D03*
X11125D02*
D03*
X11625D02*
D03*
X12125D02*
D03*
X12626D02*
D03*
Y-12925D02*
D03*
X12125D02*
D03*
X11625D02*
D03*
X11125D02*
D03*
X10625D02*
D03*
X10125D02*
D03*
X9625D02*
D03*
X9125D02*
D03*
X8625D02*
D03*
X8124D02*
D03*
D63*
X13350Y-7700D02*
D03*
Y-8200D02*
D03*
Y-8700D02*
D03*
Y-9200D02*
D03*
Y-9700D02*
D03*
Y-10200D02*
D03*
Y-10700D02*
D03*
Y-11200D02*
D03*
Y-11700D02*
D03*
Y-12200D02*
D03*
X7400D02*
D03*
Y-11700D02*
D03*
Y-11200D02*
D03*
Y-10700D02*
D03*
Y-10200D02*
D03*
Y-9700D02*
D03*
Y-9200D02*
D03*
Y-8700D02*
D03*
Y-8200D02*
D03*
Y-7700D02*
D03*
D64*
X5000Y-24350D02*
D03*
X3000D02*
D03*
X1000D02*
D03*
X-1000D02*
D03*
X-3000D02*
D03*
X-5000D02*
D03*
Y-20100D02*
D03*
X-3000D02*
D03*
X-1000D02*
D03*
X1000Y-20100D02*
D03*
X3000Y-20100D02*
D03*
X5000D02*
D03*
D65*
X17711Y-13736D02*
D03*
X16311D02*
D03*
X17711Y-15260D02*
D03*
X16311D02*
D03*
X13275Y-15650D02*
D03*
X11875D02*
D03*
X-16550Y15175D02*
D03*
X-15150D02*
D03*
X-16525Y16750D02*
D03*
X-15125D02*
D03*
X-16550Y18275D02*
D03*
X-15150D02*
D03*
D66*
X18200Y-7625D02*
D03*
X17550D02*
D03*
X16900D02*
D03*
Y-9425D02*
D03*
X17550D02*
D03*
X18200D02*
D03*
D67*
X-18415Y-7962D02*
D03*
X-16415D02*
D03*
X-14415D02*
D03*
X-12415D02*
D03*
X-10415D02*
D03*
X-8415D02*
D03*
X-6415D02*
D03*
X-4415D02*
D03*
Y8038D02*
D03*
X-6415Y8038D02*
D03*
X-8415Y8038D02*
D03*
X-10415D02*
D03*
X-12415D02*
D03*
X-14415D02*
D03*
X-16415D02*
D03*
X-18415D02*
D03*
D68*
X-2415Y-4962D02*
D03*
X-2415Y-2962D02*
D03*
X-2415Y-962D02*
D03*
Y1038D02*
D03*
Y3038D02*
D03*
Y5038D02*
D03*
D69*
X25654Y5566D02*
D03*
Y-5334D02*
D03*
D70*
X6000Y22987D02*
D03*
X4000D02*
D03*
X2000D02*
D03*
X0D02*
D03*
X-2000D02*
D03*
X-4000D02*
D03*
X-6000D02*
D03*
X20053Y18397D02*
D03*
X21400Y17050D02*
D03*
D71*
X13500Y12400D02*
D03*
D72*
X18800Y-8407D02*
D03*
X6975Y-6950D02*
D03*
X15075Y-12100D02*
D03*
X13659Y-13313D02*
D03*
X11913Y-14173D02*
D03*
X-15150Y13225D02*
D03*
X14681Y-8560D02*
D03*
X965Y-7112D02*
D03*
X-4415Y-5262D02*
D03*
X-12242Y18225D02*
D03*
X-4415Y-3670D02*
D03*
X-432Y18212D02*
D03*
X5613Y8179D02*
D03*
X7366Y3378D02*
D03*
X7450Y7660D02*
D03*
X22657Y-10465D02*
D03*
X12387Y15519D02*
D03*
X15240Y10592D02*
D03*
X11030Y3562D02*
D03*
X10820Y4470D02*
D03*
X8698Y1597D02*
D03*
X-3353Y-1956D02*
D03*
X-7772Y5563D02*
D03*
X-2438Y11252D02*
D03*
X3000Y-22146D02*
D03*
X-965Y-15291D02*
D03*
X1000Y-21784D02*
D03*
X3480Y-6223D02*
D03*
X4013Y7225D02*
D03*
X10262Y15265D02*
D03*
X13487Y21488D02*
D03*
X-8509Y-5410D02*
D03*
X-2286Y-26670D02*
D03*
X-17971Y-13500D02*
D03*
X-6591Y-1460D02*
D03*
X3810Y-18923D02*
D03*
X9576Y-15164D02*
D03*
X10338Y-711D02*
D03*
X2794Y14224D02*
D03*
X-10490Y10871D02*
D03*
X5202Y17170D02*
D03*
X7235Y16020D02*
D03*
X-10338Y6528D02*
D03*
X10744Y7831D02*
D03*
X2430Y18644D02*
D03*
X10871Y-5004D02*
D03*
X11125Y-1067D02*
D03*
X-254Y20701D02*
D03*
X-7087Y17424D02*
D03*
Y11354D02*
D03*
X-9575Y5486D02*
D03*
X-11818Y-21768D02*
D03*
X-7468D02*
D03*
X-6680Y-9819D02*
D03*
X3327Y7976D02*
D03*
X1575Y-11278D02*
D03*
X17135Y10185D02*
D03*
X16688Y13589D02*
D03*
X-13562Y-10787D02*
D03*
X-12479Y-14450D02*
D03*
X4724Y2616D02*
D03*
X7569Y-15313D02*
D03*
X2007Y1499D02*
D03*
X8732Y10155D02*
D03*
X10566Y5334D02*
D03*
X13513Y2235D02*
D03*
X15867Y12065D02*
D03*
X5207Y-9271D02*
D03*
X-11684Y-19583D02*
D03*
X-11989Y-4293D02*
D03*
X4801Y-10948D02*
D03*
X3136Y-16447D02*
D03*
X-6271Y-5733D02*
D03*
X-13106Y-12522D02*
D03*
Y-15443D02*
D03*
X-14478Y-14950D02*
D03*
X-15418Y-10160D02*
D03*
X-14605Y-3708D02*
D03*
X-8077Y127D02*
D03*
X914Y-17994D02*
D03*
X-1092Y-6198D02*
D03*
X-533Y254D02*
D03*
X-8534Y-1219D02*
D03*
X-11430Y-17475D02*
D03*
X6325Y-9271D02*
D03*
Y-12141D02*
D03*
X3542Y-5131D02*
D03*
X7163Y5180D02*
D03*
X2700Y12300D02*
D03*
X-9387Y9195D02*
D03*
X1245Y-9144D02*
D03*
X2464Y8484D02*
D03*
X-11243Y-18806D02*
D03*
X-1143Y-7010D02*
D03*
X13462Y-178D02*
D03*
X-12725Y-610D02*
D03*
X-15494D02*
D03*
X-20320Y-8484D02*
D03*
X10820Y12776D02*
D03*
X-4293Y4039D02*
D03*
X-103Y6818D02*
D03*
X5013Y4445D02*
D03*
X5326Y19236D02*
D03*
X-7696Y-5535D02*
D03*
X-10649Y2337D02*
D03*
X-8433Y-10389D02*
D03*
X-5025Y847D02*
D03*
X-4394Y1499D02*
D03*
X-8661Y2743D02*
D03*
X12624Y16775D02*
D03*
X-11887Y-9449D02*
D03*
X-5715Y-26670D02*
D03*
X13183Y-18059D02*
D03*
X-16662Y11709D02*
D03*
X-4428Y-11676D02*
D03*
X6960Y-3912D02*
D03*
X-4648Y-10363D02*
D03*
X7998Y-18847D02*
D03*
X-7025Y9834D02*
D03*
X-22900Y10395D02*
D03*
X-6198Y9957D02*
D03*
X-7575Y25578D02*
D03*
X-9322Y-24079D02*
D03*
X-11074Y-5906D02*
D03*
X-1651Y-9449D02*
D03*
X-13287Y9973D02*
D03*
X4699Y20244D02*
D03*
X8636Y21895D02*
D03*
X-5283Y21209D02*
D03*
X-6025Y5672D02*
D03*
X13792Y16104D02*
D03*
X-3277Y-26899D02*
D03*
X-15286Y-14732D02*
D03*
X-16459Y-11532D02*
D03*
X-2235Y-20472D02*
D03*
X-11963D02*
D03*
X18408Y8641D02*
D03*
X7925Y-5842D02*
D03*
X-2590Y-9550D02*
D03*
X-1956Y-7036D02*
D03*
X18542Y11742D02*
D03*
X11075Y-3402D02*
D03*
X13259Y-6960D02*
D03*
X13009Y-4630D02*
D03*
X15850Y13386D02*
D03*
X15646Y-6200D02*
D03*
X-3988Y-24663D02*
D03*
X15734Y-11606D02*
D03*
X13517Y-4699D02*
D03*
X15509Y-4496D02*
D03*
X4177Y-23012D02*
D03*
D73*
X10375Y-9950D02*
D03*
M02*
