%FSLAX43Y43*%
%MOMM*%
G71*
G01*
G75*
G04 Layer_Physical_Order=1*
G04 Layer_Color=255*
%ADD10R,0.600X0.400*%
%ADD11R,1.400X1.200*%
%ADD12R,1.300X1.200*%
%ADD13R,0.900X0.800*%
%ADD14R,4.500X4.500*%
%ADD15R,0.280X0.850*%
%ADD16R,0.850X0.280*%
%ADD17R,0.750X2.000*%
%ADD18R,0.800X0.900*%
%ADD19R,0.350X1.000*%
G04:AMPARAMS|DCode=20|XSize=2mm|YSize=1mm|CornerRadius=0.25mm|HoleSize=0mm|Usage=FLASHONLY|Rotation=90.000|XOffset=0mm|YOffset=0mm|HoleType=Round|Shape=RoundedRectangle|*
%AMROUNDEDRECTD20*
21,1,2.000,0.500,0,0,90.0*
21,1,1.500,1.000,0,0,90.0*
1,1,0.500,0.250,0.750*
1,1,0.500,0.250,-0.750*
1,1,0.500,-0.250,-0.750*
1,1,0.500,-0.250,0.750*
%
%ADD20ROUNDEDRECTD20*%
G04:AMPARAMS|DCode=21|XSize=1.5mm|YSize=1mm|CornerRadius=0.25mm|HoleSize=0mm|Usage=FLASHONLY|Rotation=180.000|XOffset=0mm|YOffset=0mm|HoleType=Round|Shape=RoundedRectangle|*
%AMROUNDEDRECTD21*
21,1,1.500,0.500,0,0,180.0*
21,1,1.000,1.000,0,0,180.0*
1,1,0.500,-0.500,0.250*
1,1,0.500,0.500,0.250*
1,1,0.500,0.500,-0.250*
1,1,0.500,-0.500,-0.250*
%
%ADD21ROUNDEDRECTD21*%
%ADD22R,3.200X1.500*%
%ADD23C,0.254*%
%ADD24R,1.350X0.750*%
%ADD25R,0.000X0.750*%
%ADD26R,8.275X0.800*%
%ADD27R,6.096X0.508*%
%ADD28R,3.161X14.453*%
%ADD29R,7.550X1.775*%
%ADD30C,1.200*%
%ADD31C,1.000*%
%ADD32C,0.600*%
%ADD33C,2.000*%
%ADD34R,1.700X1.700*%
D10*
X17125Y6150D02*
D03*
Y6900D02*
D03*
X17325Y-6200D02*
D03*
Y-5450D02*
D03*
X10375Y-14875D02*
D03*
Y-15625D02*
D03*
X13325Y17525D02*
D03*
Y16775D02*
D03*
X14525Y17550D02*
D03*
Y16800D02*
D03*
X11725Y-2475D02*
D03*
X11725Y-1725D02*
D03*
D11*
X14925Y4825D02*
D03*
Y6825D02*
D03*
D12*
X400Y9600D02*
D03*
X2700D02*
D03*
Y11200D02*
D03*
X400D02*
D03*
D13*
X-1475Y9775D02*
D03*
Y11175D02*
D03*
X4525Y9750D02*
D03*
Y11150D02*
D03*
X13517Y-2147D02*
D03*
Y-3547D02*
D03*
X14914Y-2147D02*
D03*
Y-3547D02*
D03*
D14*
X10375Y-9950D02*
D03*
D15*
X8124Y-6975D02*
D03*
X8625D02*
D03*
X9125D02*
D03*
X9625D02*
D03*
X10125D02*
D03*
X10625D02*
D03*
X11125D02*
D03*
X11625D02*
D03*
X12125D02*
D03*
X12626D02*
D03*
Y-12925D02*
D03*
X12125D02*
D03*
X11625D02*
D03*
X11125D02*
D03*
X10625D02*
D03*
X10125D02*
D03*
X9625D02*
D03*
X9125D02*
D03*
X8625D02*
D03*
X8124D02*
D03*
D16*
X13350Y-7700D02*
D03*
Y-8200D02*
D03*
Y-8700D02*
D03*
Y-9200D02*
D03*
Y-9700D02*
D03*
Y-10200D02*
D03*
Y-10700D02*
D03*
Y-11200D02*
D03*
Y-11700D02*
D03*
Y-12200D02*
D03*
X7400D02*
D03*
Y-11700D02*
D03*
Y-11200D02*
D03*
Y-10700D02*
D03*
Y-10200D02*
D03*
Y-9700D02*
D03*
Y-9200D02*
D03*
Y-8700D02*
D03*
Y-8200D02*
D03*
Y-7700D02*
D03*
D17*
X5000Y-24350D02*
D03*
X3000D02*
D03*
X1000D02*
D03*
X-1000D02*
D03*
X-3000D02*
D03*
X-5000D02*
D03*
Y-20100D02*
D03*
X-3000D02*
D03*
X-1000D02*
D03*
X1000Y-20100D02*
D03*
X3000Y-20100D02*
D03*
X5000D02*
D03*
D18*
X17711Y-13736D02*
D03*
X16311D02*
D03*
X17711Y-15260D02*
D03*
X16311D02*
D03*
X13275Y-15650D02*
D03*
X11875D02*
D03*
X-16550Y15175D02*
D03*
X-15150D02*
D03*
X-16525Y16750D02*
D03*
X-15125D02*
D03*
X-16550Y18275D02*
D03*
X-15150D02*
D03*
D19*
X18200Y-7625D02*
D03*
X17550D02*
D03*
X16900D02*
D03*
Y-9425D02*
D03*
X17550D02*
D03*
X18200D02*
D03*
D20*
X-18415Y-7962D02*
D03*
X-16415D02*
D03*
X-14415D02*
D03*
X-12415D02*
D03*
X-10415D02*
D03*
X-8415D02*
D03*
X-6415D02*
D03*
X-4415D02*
D03*
Y8038D02*
D03*
X-6415Y8038D02*
D03*
X-8415Y8038D02*
D03*
X-10415D02*
D03*
X-12415D02*
D03*
X-14415D02*
D03*
X-16415D02*
D03*
X-18415D02*
D03*
D21*
X-2415Y-4962D02*
D03*
X-2415Y-2962D02*
D03*
X-2415Y-962D02*
D03*
Y1038D02*
D03*
Y3038D02*
D03*
Y5038D02*
D03*
D22*
X25654Y5566D02*
D03*
Y-5334D02*
D03*
D23*
X18800Y-8407D02*
X18821D01*
X20025Y-9675D02*
X20050Y-9700D01*
Y-12921D02*
Y-9700D01*
X17711Y-15260D02*
X20050Y-12921D01*
X17325Y-6200D02*
X18425D01*
X17018Y5791D02*
Y6150D01*
X17125D02*
X18500D01*
X14140Y16146D02*
X14427Y16434D01*
X13835Y16146D02*
X14140D01*
X13792Y16104D02*
X13835Y16146D01*
X6028Y-22047D02*
X10820D01*
X6025Y-22050D02*
X6028Y-22047D01*
X5875Y-22050D02*
X6025D01*
X4850Y-23075D02*
X5875Y-22050D01*
X5000Y-24350D02*
Y-22991D01*
X4851Y-23139D02*
X5000Y-22991D01*
Y-24350D02*
Y-23139D01*
X4353D02*
X5000D01*
X7102Y-18847D02*
X7950D01*
X6895Y-6950D02*
X6975D01*
X6844Y-7002D02*
X6895Y-6950D01*
X15031Y-13313D02*
X16891Y-11454D01*
X13659Y-13313D02*
X15031D01*
X13275Y-12929D02*
X13659Y-13313D01*
X13275Y-12929D02*
Y-12200D01*
X13350D01*
X15075Y-12100D02*
X15078D01*
X15088Y-12090D01*
X12626Y-6960D02*
X13259D01*
X8625Y-4872D02*
Y-4416D01*
Y-6975D02*
Y-4872D01*
X6952Y-12827D02*
Y-12200D01*
X1133Y-12878D02*
X7102Y-18847D01*
X7998D01*
X5000D02*
X7102D01*
X-12292Y18275D02*
X-9293D01*
X-15150D02*
X-12292D01*
X-4415Y-5262D02*
Y-3670D01*
X-279Y-11465D02*
X1133Y-12878D01*
X16713Y6150D02*
X17018D01*
X15570Y-16561D02*
Y-14046D01*
Y-17297D02*
Y-16561D01*
X7822Y-7700D02*
X7849Y-7727D01*
X7822Y-7700D02*
X7823D01*
X7542D02*
X7822D01*
X7400D02*
X7542D01*
X6960D02*
Y-3912D01*
X7400Y-7700D02*
X7822D01*
X7569Y-7727D02*
X7823D01*
X8083D02*
X8152D01*
X7823D02*
X8083D01*
X7542Y-7700D02*
X7569Y-7727D01*
X7823D02*
Y-7700D01*
X7450Y7660D02*
X8244Y6866D01*
X-4415Y9322D02*
Y10353D01*
X-16662Y11640D02*
X-16550Y11752D01*
X14914Y-3947D02*
Y-3547D01*
Y-4771D02*
Y-3947D01*
X14961D01*
X11982Y15519D02*
Y17061D01*
Y11715D02*
Y15519D01*
X2210Y-21742D02*
Y-18313D01*
X-3988Y-24663D02*
X-3000D01*
Y-20498D02*
X-2261D01*
X-15875Y8038D02*
Y8763D01*
X-7311Y8911D02*
X-6415D01*
X13165Y16731D02*
X13325D01*
X14427Y16434D02*
Y16800D01*
X-2590Y-9550D02*
Y-4962D01*
X-15150Y13225D02*
Y15175D01*
X-9293Y18275D02*
X-5591Y21977D01*
X-5010D01*
X-4000Y22987D01*
X14041Y-9200D02*
X14681Y-8560D01*
X13350Y-9200D02*
X14041D01*
X16891Y-11454D02*
Y-10998D01*
X16593Y-10700D02*
X16891Y-10998D01*
X13350Y-10700D02*
X16593D01*
X-279Y-11465D02*
Y-8357D01*
X965Y-7112D01*
X6952Y-12200D02*
X7400D01*
X6604Y-13175D02*
X6952Y-12827D01*
X5083Y-13175D02*
X6604D01*
X3720Y-11811D02*
X5083Y-13175D01*
X3720Y-11811D02*
Y-10346D01*
X4216Y-9849D01*
Y-8879D01*
X5723Y-7372D01*
Y-3785D01*
X6239Y-3268D01*
X7477D01*
X8625Y-4416D01*
X-4415Y-7962D02*
Y-5262D01*
X-12292Y18275D02*
X-12242Y18225D01*
X-432Y18212D02*
X940Y19583D01*
Y23292D01*
X1562Y23914D01*
X4559D01*
X4927Y23546D01*
Y22581D02*
Y23546D01*
Y22581D02*
X5537Y21971D01*
X7696D01*
X8534Y22809D01*
X14478D01*
X15850Y21438D01*
Y13386D02*
Y21438D01*
X4525Y9267D02*
X5613Y8179D01*
X4525Y9267D02*
Y9750D01*
X7366Y3378D02*
X8244Y4256D01*
Y6866D01*
X4525Y9750D02*
X5360D01*
X7450Y7660D01*
X17797Y16141D02*
X20053Y18397D01*
X17797Y9830D02*
Y16141D01*
X16485Y8517D02*
X17797Y9830D01*
X16485Y6379D02*
Y8517D01*
Y6379D02*
X16713Y6150D01*
X15880Y-13736D02*
X16311D01*
X15570Y-14046D02*
X15880Y-13736D01*
X10820Y-22047D02*
X15570Y-17297D01*
X8152Y-7727D02*
X10375Y-9950D01*
X18821Y-12065D02*
Y-8407D01*
X17711Y-13175D02*
X18821Y-12065D01*
X17711Y-13736D02*
Y-13175D01*
X16311Y-15875D02*
Y-15260D01*
Y-15875D02*
X16794Y-16358D01*
X18034D01*
X22657Y-11735D01*
Y-10465D01*
X13487Y-6198D02*
X14914Y-4771D01*
X12125Y-6198D02*
X13487D01*
X12125Y-6975D02*
Y-6198D01*
X11982Y15519D02*
X12387D01*
X12446Y17525D02*
X13325D01*
X11982Y17061D02*
X12446Y17525D01*
X11982Y11715D02*
X13105Y10592D01*
X15240D01*
X4000Y17366D02*
Y22987D01*
Y17366D02*
X11862Y9504D01*
Y4394D02*
Y9504D01*
X11030Y3562D02*
X11862Y4394D01*
X10820Y4470D02*
X11406Y5056D01*
Y9318D01*
X3088Y17636D02*
X11406Y9318D01*
X3088Y17636D02*
Y21899D01*
X2000Y22987D02*
X3088Y21899D01*
X8698Y1597D02*
Y7666D01*
X5302Y11062D02*
X8698Y7666D01*
X5302Y11062D02*
Y11877D01*
X3582Y13597D02*
X5302Y11877D01*
X1934Y13597D02*
X3582D01*
X-1513Y17043D02*
X1934Y13597D01*
X-1513Y17043D02*
Y20835D01*
X0Y22348D01*
Y22987D01*
X-3607Y-1702D02*
X-3353Y-1956D01*
X-3607Y-1702D02*
Y2210D01*
X-6960Y5563D02*
X-3607Y2210D01*
X-7772Y5563D02*
X-6960D01*
X-2438Y11252D02*
Y22549D01*
X-2000Y22987D01*
X3000Y-24350D02*
Y-22146D01*
X-965Y-15291D02*
X-119Y-16137D01*
Y-21242D02*
Y-16137D01*
Y-21242D02*
X422Y-21784D01*
X1000D01*
Y-24350D02*
Y-21784D01*
X2692Y-5436D02*
X3480Y-6223D01*
X2692Y-5436D02*
Y-3505D01*
X3088Y-3110D01*
Y6299D01*
X4013Y7225D01*
X10262Y15265D02*
Y18263D01*
X13487Y21488D01*
X-9246Y-6147D02*
X-8509Y-5410D01*
X-9246Y-22098D02*
Y-6147D01*
Y-22098D02*
X-6994Y-24350D01*
X-5000D01*
X-2286Y-26670D02*
Y-23190D01*
X-3658Y-21819D02*
X-2286Y-23190D01*
X-4340Y-21819D02*
X-3658D01*
X-5000Y-21158D02*
X-4340Y-21819D01*
X-5000Y-21158D02*
Y-20100D01*
X-17971Y-13500D02*
X-17297Y-12827D01*
Y-6934D01*
X-16400Y-6037D01*
X-15273D01*
X-12832Y-3596D01*
X-8726D01*
X-6591Y-1460D01*
X3000Y-18923D02*
X3810D01*
X3000Y-20100D02*
Y-18923D01*
X9865Y-14875D02*
X10375D01*
X9576Y-15164D02*
X9865Y-14875D01*
X10338Y-711D02*
Y2413D01*
X9152Y3599D02*
X10338Y2413D01*
X9152Y3599D02*
Y7885D01*
X7245Y9792D02*
X9152Y7885D01*
X7245Y9792D02*
Y10816D01*
X3837Y14224D02*
X7245Y10816D01*
X2794Y14224D02*
X3837D01*
X-16415Y8038D02*
X-15875D01*
Y8763D02*
X-13767Y10871D01*
X-10490D01*
X5202Y17170D02*
X6085D01*
X7235Y16020D01*
X-18059Y6528D02*
X-10338D01*
X-18415Y6883D02*
X-18059Y6528D01*
X-18415Y6883D02*
Y8038D01*
X10744Y7831D02*
Y9189D01*
X2430Y17502D02*
X10744Y9189D01*
X2430Y17502D02*
Y18644D01*
X11125Y-6975D02*
Y-5258D01*
X10871Y-5004D02*
X11125Y-5258D01*
X11125Y-1067D02*
Y2362D01*
X9801Y3687D02*
X11125Y2362D01*
X9801Y3687D02*
Y6243D01*
X9606Y6438D02*
X9801Y6243D01*
X9606Y6438D02*
Y8220D01*
X7699Y10127D02*
X9606Y8220D01*
X7699Y10127D02*
Y11043D01*
X3511Y15231D02*
X7699Y11043D01*
X1566Y15231D02*
X3511D01*
X-1059Y17856D02*
X1566Y15231D01*
X-1059Y17856D02*
Y19896D01*
X-254Y20701D01*
X-7087Y11354D02*
Y17424D01*
X-9575Y5208D02*
Y5486D01*
X-10830Y3952D02*
X-9575Y5208D01*
X-18847Y3952D02*
X-10830D01*
X-19253Y3546D02*
X-18847Y3952D01*
X-19253Y-14333D02*
Y3546D01*
Y-14333D02*
X-11818Y-21768D01*
X-7468D02*
Y-10606D01*
X-6680Y-9819D01*
X3327Y7976D02*
X4535D01*
X4984Y7527D01*
X5947D01*
X7790Y5684D01*
Y4774D02*
Y5684D01*
X7569Y4553D02*
X7790Y4774D01*
X6080Y4553D02*
X7569D01*
X5375Y5258D02*
X6080Y4553D01*
X4512Y5258D02*
X5375D01*
X3996Y4742D02*
X4512Y5258D01*
X3996Y-4051D02*
Y4742D01*
Y-4051D02*
X4361Y-4416D01*
Y-6301D02*
Y-4416D01*
X2642Y-8021D02*
X4361Y-6301D01*
X2642Y-8687D02*
Y-8021D01*
X1575Y-9754D02*
X2642Y-8687D01*
X1575Y-11278D02*
Y-9754D01*
X17135Y10185D02*
Y13142D01*
X16688Y13589D02*
X17135Y13142D01*
X-13562Y-10787D02*
X-12479Y-11870D01*
Y-14450D02*
Y-11870D01*
X5935Y-2475D02*
X11725D01*
X5269Y-3141D02*
X5935Y-2475D01*
X5269Y-6909D02*
Y-3141D01*
X3762Y-8415D02*
X5269Y-6909D01*
X3762Y-9461D02*
Y-8415D01*
X3266Y-9958D02*
X3762Y-9461D01*
X3266Y-12400D02*
Y-9958D01*
Y-12400D02*
X4494Y-13629D01*
X7932D01*
X8124Y-12925D01*
X4724Y-3959D02*
Y2616D01*
Y-3959D02*
X4815Y-4050D01*
Y-6540D02*
Y-4050D01*
X3160Y-8195D02*
X4815Y-6540D01*
X3160Y-9381D02*
Y-8195D01*
X2812Y-9730D02*
X3160Y-9381D01*
X2812Y-12780D02*
Y-9730D01*
Y-12780D02*
X5344Y-15313D01*
X7569D01*
X11404Y-14173D02*
X11913D01*
X11125Y-13894D02*
X11404Y-14173D01*
X11125Y-13894D02*
Y-12925D01*
X10625Y-13480D02*
Y-12925D01*
X10414Y-13691D02*
X10625Y-13480D01*
X8554Y-13691D02*
X10414D01*
X8196Y-14048D02*
X8554Y-13691D01*
X8196Y-15719D02*
Y-14048D01*
X7976Y-15940D02*
X8196Y-15719D01*
X4990Y-15940D02*
X7976D01*
X442Y-11391D02*
X4990Y-15940D01*
X442Y-11391D02*
Y-8545D01*
X1592Y-7395D01*
Y1084D01*
X2007Y1499D01*
X8732Y10155D02*
X10060Y8828D01*
Y6798D02*
Y8828D01*
Y6798D02*
X10566Y6292D01*
Y5334D02*
Y6292D01*
X13513Y2235D02*
Y7366D01*
X15867Y9720D01*
Y12065D01*
X6168Y-10700D02*
X7400D01*
X5235Y-11633D02*
X6168Y-10700D01*
X4402Y-11633D02*
X5235D01*
X4174Y-11405D02*
X4402Y-11633D01*
X4174Y-11405D02*
Y-10534D01*
X5207Y-9500D01*
Y-9271D01*
X-13792Y-17475D02*
X-11684Y-19583D01*
X-13792Y-17475D02*
Y-12049D01*
X-14191Y-11651D02*
X-13792Y-12049D01*
X-14191Y-11651D02*
Y-10389D01*
X-15265Y-9314D02*
X-14191Y-10389D01*
X-15265Y-9314D02*
Y-6937D01*
X-12621Y-4293D01*
X-11989D01*
X5548Y-10200D02*
X7400D01*
X4801Y-10948D02*
X5548Y-10200D01*
X2127Y-16447D02*
X3136D01*
X-122Y-14199D02*
X2127Y-16447D01*
X-3658Y-14199D02*
X-122D01*
X-5729Y-12127D02*
X-3658Y-14199D01*
X-5729Y-12127D02*
Y-9091D01*
X-5279Y-8641D01*
Y-6725D01*
X-6271Y-5733D02*
X-5279Y-6725D01*
X-13106Y-15443D02*
Y-12522D01*
X-14478Y-14950D02*
Y-12675D01*
X-15418Y-11735D02*
X-14478Y-12675D01*
X-15418Y-11735D02*
Y-10160D01*
X-14605Y-3708D02*
X-10770Y127D01*
X-8077D01*
X1000Y-20100D02*
Y-18080D01*
X914Y-17994D02*
X1000Y-18080D01*
X-1092Y-6198D02*
X-533Y-5639D01*
Y254D01*
X8083Y-7727D02*
X9048Y-8692D01*
Y-8821D02*
Y-8692D01*
X-8534Y-1219D02*
X-8135Y-819D01*
X-6166D01*
X-5944Y-1041D01*
Y-1956D02*
Y-1041D01*
X-9085Y-5097D02*
X-5944Y-1956D01*
X-12616Y-5097D02*
X-9085D01*
X-13284Y-5766D02*
X-12616Y-5097D01*
X-13284Y-8966D02*
Y-5766D01*
Y-8966D02*
X-11398Y-10852D01*
Y-17444D02*
Y-10852D01*
X-11430Y-17475D02*
X-11398Y-17444D01*
X6325Y-9271D02*
X6754Y-9700D01*
X7400D01*
X6453Y-11200D02*
X7400D01*
X6325Y-11328D02*
X6453Y-11200D01*
X6325Y-12141D02*
Y-11328D01*
X3542Y-5131D02*
Y5579D01*
X4318Y6355D01*
X5988D01*
X7163Y5180D01*
X2700Y11200D02*
Y12300D01*
X-10415Y8038D02*
Y9195D01*
X-9387D01*
X1245Y-9144D02*
X2159Y-8230D01*
Y-3175D01*
X2634Y-2700D01*
Y8314D01*
X2464Y8484D02*
X2634Y8314D01*
X-12421Y-17628D02*
X-11243Y-18806D01*
X-12421Y-17628D02*
Y-15977D01*
X-11852Y-15408D01*
Y-11423D01*
X-14415Y-8861D02*
X-11852Y-11423D01*
X-14415Y-8861D02*
Y-7962D01*
X-2415Y5038D02*
X-1363D01*
X-770Y5631D01*
Y7426D01*
X254Y8450D01*
X465D01*
X533Y8382D01*
Y4851D02*
Y8382D01*
X94Y4412D02*
X533Y4851D01*
X94Y-5991D02*
Y4412D01*
X-926Y-7010D02*
X94Y-5991D01*
X-1143Y-7010D02*
X-926D01*
X12878Y8230D02*
X15240Y10592D01*
X12878Y406D02*
Y8230D01*
Y406D02*
X13462Y-178D01*
X-15494Y-610D02*
X-12725D01*
X-20320Y-16815D02*
Y-8484D01*
Y-16815D02*
X-11481Y-25654D01*
X-7899D01*
X-6020Y-27534D01*
X-1702D01*
X-1372Y-27203D01*
Y-26391D01*
X-1727Y-26035D02*
X-1372Y-26391D01*
X-1727Y-26035D02*
Y-22927D01*
X-1000Y-22200D01*
Y-20100D01*
X13325Y16731D02*
Y16775D01*
X13165Y15773D02*
Y16731D01*
Y15773D02*
X13462Y15477D01*
X14486D01*
X15240Y16231D01*
Y17856D01*
X14834Y18263D02*
X15240Y17856D01*
X11989Y18263D02*
X14834D01*
X11523Y17797D02*
X11989Y18263D01*
X11523Y13479D02*
Y17797D01*
X10820Y12776D02*
X11523Y13479D01*
X-4293Y4039D02*
X-1041D01*
X-103Y4977D01*
Y6818D01*
X5013Y3394D02*
Y4445D01*
Y3394D02*
X10132Y-1725D01*
X11725D01*
X5326Y19236D02*
X9479Y15083D01*
Y13190D02*
Y15083D01*
Y13190D02*
X12370Y10299D01*
Y-3327D02*
Y10299D01*
X11320Y-4377D02*
X12370Y-3327D01*
X10566Y-4377D02*
X11320D01*
X10244Y-4699D02*
X10566Y-4377D01*
X10244Y-5631D02*
Y-4699D01*
Y-5631D02*
X10625Y-6012D01*
Y-6975D02*
Y-6012D01*
X-7696Y-5535D02*
Y-4350D01*
X-5486Y-2141D01*
Y381D01*
X-6553Y1448D02*
X-5486Y381D01*
X-9760Y1448D02*
X-6553D01*
X-10649Y2337D02*
X-9760Y1448D01*
X-8433Y-10389D02*
X-7525Y-9481D01*
Y-6618D01*
X-7069Y-6162D01*
Y-5012D01*
X-5025Y-2968D01*
Y847D01*
X-5639Y2743D02*
X-4394Y1499D01*
X-8661Y2743D02*
X-5639D01*
X12624Y16775D02*
X13325D01*
X-11887Y-9449D02*
X-10312Y-11024D01*
Y-24232D02*
Y-11024D01*
Y-24232D02*
X-9500Y-25044D01*
X-7341D01*
X-5715Y-26670D01*
X13350Y-9700D02*
X15404D01*
X16900Y-8204D01*
Y-7625D01*
X13350Y-10200D02*
X16700D01*
X16900Y-10000D01*
Y-9425D01*
X13157Y-18059D02*
X13183D01*
X9728Y-21488D02*
X13157Y-18059D01*
X2464Y-21488D02*
X9728D01*
X2210Y-21742D02*
X2464Y-21488D01*
X2210Y-25222D02*
Y-21742D01*
X1676Y-25756D02*
X2210Y-25222D01*
X-1000Y-25518D02*
X-762Y-25756D01*
X-16662Y11640D02*
Y11709D01*
X-16550Y11752D02*
Y15175D01*
X-1000Y-25518D02*
Y-24350D01*
X-762Y-25756D02*
X1676D01*
X2210Y-18313D02*
X3763Y-16760D01*
Y-16150D01*
X3128Y-15515D02*
X3763Y-16150D01*
X2626Y-15515D02*
X3128D01*
X608Y-13497D02*
X2626Y-15515D01*
X-2607Y-13497D02*
X608D01*
X-4428Y-11676D02*
X-2607Y-13497D01*
X6960Y-7700D02*
X7400D01*
X6000Y22987D02*
Y23749D01*
X5381Y24368D02*
X6000Y23749D01*
X-118Y24368D02*
X5381D01*
X-991Y23495D02*
X-118Y24368D01*
X-991Y22605D02*
Y23495D01*
X-1981Y21614D02*
X-991Y22605D01*
X-1981Y15519D02*
Y21614D01*
Y15519D02*
X1397Y12141D01*
Y4572D02*
Y12141D01*
X553Y3728D02*
X1397Y4572D01*
X553Y-6240D02*
Y3728D01*
X-744Y-7537D02*
X553Y-6240D01*
X-744Y-10185D02*
Y-7537D01*
X-1684Y-11125D02*
X-744Y-10185D01*
X-2795Y-11125D02*
X-1684D01*
X-3557Y-10363D02*
X-2795Y-11125D01*
X-4648Y-10363D02*
X-3557D01*
X5000Y-20100D02*
Y-18847D01*
X-1684Y-12878D02*
X1133D01*
X-3572Y-10990D02*
X-1684Y-12878D01*
X-5029Y-10990D02*
X-3572D01*
X-5275Y-10744D02*
X-5029Y-10990D01*
X-5275Y-10744D02*
Y-9949D01*
X-4415Y-9089D01*
Y-7962D01*
X-7244Y10053D02*
X-7025Y9834D01*
X-8093Y10053D02*
X-7244D01*
X-9573Y11532D02*
X-8093Y10053D01*
X-14849Y11532D02*
X-9573D01*
X-16159Y10222D02*
X-14849Y11532D01*
X-22727Y10222D02*
X-16159D01*
X-22900Y10395D02*
X-22727Y10222D01*
X-6764Y10524D02*
X-6198Y9957D01*
X-7767Y10524D02*
X-6764D01*
X-9229Y11986D02*
X-7767Y10524D01*
X-15376Y11986D02*
X-9229D01*
X-16599Y10763D02*
X-15376Y11986D01*
X-17113Y10763D02*
X-16599D01*
X-17297Y10947D02*
X-17113Y10763D01*
X-17297Y10947D02*
Y21488D01*
X-15291Y23495D01*
X-9658D01*
X-7575Y25578D01*
X-3000Y-24663D02*
Y-24350D01*
X-9728Y-23673D02*
X-9322Y-24079D01*
X-9728Y-23673D02*
Y-10610D01*
X-11270Y-9069D02*
X-9728Y-10610D01*
X-11270Y-9069D02*
Y-6102D01*
X-11074Y-5906D01*
X-3200Y-2962D02*
X-2415D01*
X-3505Y-3267D02*
X-3200Y-2962D01*
X-3505Y-9757D02*
Y-3267D01*
Y-9757D02*
X-3044Y-10219D01*
X-2262D01*
X-1651Y-9608D01*
Y-9449D01*
X-13287Y9973D02*
X-9104D01*
X-8628Y9497D01*
X-7897D01*
X-7311Y8911D01*
X-6415Y8038D02*
Y8911D01*
X4699Y20244D02*
X6985D01*
X8636Y21895D01*
X-5283Y7036D02*
Y21209D01*
X-5918Y6401D02*
X-5283Y7036D01*
X-7874Y6401D02*
X-5918D01*
X-8407Y5867D02*
X-7874Y6401D01*
X-8407Y4318D02*
Y5867D01*
X-9398Y3327D02*
X-8407Y4318D01*
X-16815Y3327D02*
X-9398D01*
X-17780Y2362D02*
X-16815Y3327D01*
X-17780Y-5893D02*
Y2362D01*
X-18415Y-6528D02*
X-17780Y-5893D01*
X-18415Y-7962D02*
Y-6528D01*
X-6025Y5672D02*
X-5740Y5957D01*
X-4152D01*
X-1475Y8634D01*
Y9775D01*
X14427Y16800D02*
X14525D01*
X-5000Y-25175D02*
Y-24350D01*
Y-25175D02*
X-3277Y-26899D01*
X-15286Y-14732D02*
Y-12705D01*
X-16459Y-11532D02*
X-15286Y-12705D01*
X-3000Y-20498D02*
Y-20100D01*
X-2261Y-20498D02*
X-2235Y-20472D01*
X-17971Y-14465D02*
X-11963Y-20472D01*
X-17971Y-14465D02*
Y-13500D01*
X18408Y8641D02*
X21400Y11633D01*
Y17050D01*
X8124Y-6975D02*
Y-6042D01*
X7925Y-5842D02*
X8124Y-6042D01*
X17018Y6150D02*
X17125D01*
X16052Y4825D02*
X17018Y5791D01*
X14925Y4825D02*
X16052D01*
X-2590Y-4962D02*
X-2415D01*
X-1956Y-7036D02*
Y-6163D01*
X-1218Y-5425D01*
Y2819D01*
X-1437Y3038D02*
X-1218Y2819D01*
X-2415Y3038D02*
X-1437D01*
X18542Y9866D02*
Y11742D01*
X17780Y9104D02*
X18542Y9866D01*
X17780Y7154D02*
Y9104D01*
X17526Y6900D02*
X17780Y7154D01*
X17125Y6900D02*
X17526D01*
X8625Y-4872D02*
X9710Y-3786D01*
X10690D01*
X11075Y-3402D01*
X12626Y-6975D02*
Y-6960D01*
X13275Y-15650D02*
Y-15062D01*
X13072Y-14859D02*
X13275Y-15062D01*
X11331Y-14859D02*
X13072D01*
X10820Y-14348D02*
X11331Y-14859D01*
X9195Y-14348D02*
X10820D01*
X8948Y-14595D02*
X9195Y-14348D01*
X8948Y-15908D02*
Y-14595D01*
Y-15908D02*
X10473Y-17432D01*
X14699D01*
X15570Y-16561D01*
X-4415Y10353D02*
X-3070Y11698D01*
Y23974D01*
X-3734Y24638D02*
X-3070Y23974D01*
X-4349Y24638D02*
X-3734D01*
X-6000Y22987D02*
X-4349Y24638D01*
X11625Y-6014D02*
X13009Y-4630D01*
X11625Y-6975D02*
Y-6014D01*
X14925Y6825D02*
Y7708D01*
X16321Y9104D01*
Y10730D01*
X16680Y11089D01*
Y12556D01*
X15850Y13386D02*
X16680Y12556D01*
X15646Y-6200D02*
X17325D01*
X-16550Y18275D02*
Y21340D01*
X-14903Y22987D01*
X-6000D01*
X13350Y-7700D02*
X13868D01*
X14148Y-7421D01*
Y-6695D01*
X15392Y-5450D01*
X17325D01*
X13350Y-11200D02*
X15328D01*
X15734Y-11606D01*
X13350Y-11700D02*
X14697D01*
X15088Y-12090D01*
X2700Y9600D02*
X3531D01*
X3681Y9750D01*
X4525D01*
X13517Y-4699D02*
Y-3547D01*
X17550Y-11715D02*
Y-9425D01*
X16311Y-12954D02*
X17550Y-11715D01*
X16311Y-13736D02*
Y-12954D01*
X11875Y-15650D02*
X12323D01*
X12548Y-15875D01*
Y-16434D02*
Y-15875D01*
Y-16434D02*
X14021D01*
Y-14959D01*
X13352Y-14290D02*
X14021Y-14959D01*
X13073Y-14290D02*
X13352D01*
X12626Y-13843D02*
X13073Y-14290D01*
X12626Y-13843D02*
Y-12925D01*
X14961Y-3947D02*
X15509Y-4496D01*
X-4415Y8038D02*
Y9322D01*
X-3221Y10516D01*
X-1704D01*
X-1475Y10744D01*
Y11175D01*
X18200Y-7625D02*
Y-7544D01*
X-15125Y15951D02*
Y16750D01*
X-15150Y15926D02*
X-15125Y15951D01*
X-15150Y15175D02*
Y15926D01*
X-15150Y17500D02*
Y18275D01*
Y17500D02*
X-15125Y17475D01*
Y16750D02*
Y17475D01*
X13350Y-8700D02*
Y-8200D01*
Y-9200D02*
Y-8700D01*
X-16525Y15951D02*
Y16750D01*
X-16550Y15926D02*
X-16525Y15951D01*
X-16550Y15175D02*
Y15926D01*
X-16550Y17500D02*
Y18275D01*
Y17500D02*
X-16525Y17475D01*
Y16750D02*
Y17475D01*
X-534Y11200D02*
X400D01*
X-559Y11175D02*
X-534Y11200D01*
X-1475Y11175D02*
X-559D01*
X13517Y-2147D02*
X14914D01*
X14925Y1332D02*
Y4825D01*
X14914Y1321D02*
X14925Y1332D01*
X14914Y-2147D02*
Y1321D01*
X16311Y-13815D02*
Y-13736D01*
Y-13815D02*
X17711Y-15215D01*
Y-15260D02*
Y-15215D01*
X17550Y-9425D02*
X18200D01*
X17550D02*
Y-7625D01*
X17325Y-6811D02*
Y-6200D01*
Y-6811D02*
X17550Y-7036D01*
Y-7625D02*
Y-7036D01*
X-460Y9600D02*
X400D01*
X-635Y9775D02*
X-460Y9600D01*
X-1475Y9775D02*
X-635D01*
X3631Y11150D02*
X4525D01*
X3581Y11200D02*
X3631Y11150D01*
X2700Y11200D02*
X3581D01*
X11125Y-15650D02*
X11875D01*
X11100Y-15625D02*
X11125Y-15650D01*
X10375Y-15625D02*
X11100D01*
X13919Y17550D02*
X14525D01*
X13894Y17525D02*
X13919Y17550D01*
X13325Y17525D02*
X13894D01*
X7849Y-7727D02*
X7954D01*
D24*
X25625Y-6450D02*
D03*
D25*
X26300D02*
D03*
D26*
X22163Y-7225D02*
D03*
D27*
X24384Y7874D02*
D03*
D28*
X19756Y901D02*
D03*
D29*
X23075Y-9062D02*
D03*
D30*
X6000Y22987D02*
D03*
X4000D02*
D03*
X2000D02*
D03*
X0D02*
D03*
X-2000D02*
D03*
X-4000D02*
D03*
X-6000D02*
D03*
X20053Y18397D02*
D03*
X21400Y17050D02*
D03*
D31*
X13500Y12400D02*
D03*
D32*
X18800Y-8407D02*
D03*
X6975Y-6950D02*
D03*
X15075Y-12100D02*
D03*
X13659Y-13313D02*
D03*
X11913Y-14173D02*
D03*
X-15150Y13225D02*
D03*
X14681Y-8560D02*
D03*
X965Y-7112D02*
D03*
X-4415Y-5262D02*
D03*
X-12242Y18225D02*
D03*
X-4415Y-3670D02*
D03*
X-432Y18212D02*
D03*
X5613Y8179D02*
D03*
X7366Y3378D02*
D03*
X7450Y7660D02*
D03*
X22657Y-10465D02*
D03*
X12387Y15519D02*
D03*
X15240Y10592D02*
D03*
X11030Y3562D02*
D03*
X10820Y4470D02*
D03*
X8698Y1597D02*
D03*
X-3353Y-1956D02*
D03*
X-7772Y5563D02*
D03*
X-2438Y11252D02*
D03*
X3000Y-22146D02*
D03*
X-965Y-15291D02*
D03*
X1000Y-21784D02*
D03*
X3480Y-6223D02*
D03*
X4013Y7225D02*
D03*
X10262Y15265D02*
D03*
X13487Y21488D02*
D03*
X-8509Y-5410D02*
D03*
X-2286Y-26670D02*
D03*
X-17971Y-13500D02*
D03*
X-6591Y-1460D02*
D03*
X3810Y-18923D02*
D03*
X9576Y-15164D02*
D03*
X10338Y-711D02*
D03*
X2794Y14224D02*
D03*
X-10490Y10871D02*
D03*
X5202Y17170D02*
D03*
X7235Y16020D02*
D03*
X-10338Y6528D02*
D03*
X10744Y7831D02*
D03*
X2430Y18644D02*
D03*
X10871Y-5004D02*
D03*
X11125Y-1067D02*
D03*
X-254Y20701D02*
D03*
X-7087Y17424D02*
D03*
Y11354D02*
D03*
X-9575Y5486D02*
D03*
X-11818Y-21768D02*
D03*
X-7468D02*
D03*
X-6680Y-9819D02*
D03*
X3327Y7976D02*
D03*
X1575Y-11278D02*
D03*
X17135Y10185D02*
D03*
X16688Y13589D02*
D03*
X-13562Y-10787D02*
D03*
X-12479Y-14450D02*
D03*
X4724Y2616D02*
D03*
X7569Y-15313D02*
D03*
X2007Y1499D02*
D03*
X8732Y10155D02*
D03*
X10566Y5334D02*
D03*
X13513Y2235D02*
D03*
X15867Y12065D02*
D03*
X5207Y-9271D02*
D03*
X-11684Y-19583D02*
D03*
X-11989Y-4293D02*
D03*
X4801Y-10948D02*
D03*
X3136Y-16447D02*
D03*
X-6271Y-5733D02*
D03*
X-13106Y-12522D02*
D03*
Y-15443D02*
D03*
X-14478Y-14950D02*
D03*
X-15418Y-10160D02*
D03*
X-14605Y-3708D02*
D03*
X-8077Y127D02*
D03*
X914Y-17994D02*
D03*
X-1092Y-6198D02*
D03*
X-533Y254D02*
D03*
X-8534Y-1219D02*
D03*
X-11430Y-17475D02*
D03*
X6325Y-9271D02*
D03*
Y-12141D02*
D03*
X3542Y-5131D02*
D03*
X7163Y5180D02*
D03*
X2700Y12300D02*
D03*
X-9387Y9195D02*
D03*
X1245Y-9144D02*
D03*
X2464Y8484D02*
D03*
X-11243Y-18806D02*
D03*
X-1143Y-7010D02*
D03*
X13462Y-178D02*
D03*
X-12725Y-610D02*
D03*
X-15494D02*
D03*
X-20320Y-8484D02*
D03*
X10820Y12776D02*
D03*
X-4293Y4039D02*
D03*
X-103Y6818D02*
D03*
X5013Y4445D02*
D03*
X5326Y19236D02*
D03*
X-7696Y-5535D02*
D03*
X-10649Y2337D02*
D03*
X-8433Y-10389D02*
D03*
X-5025Y847D02*
D03*
X-4394Y1499D02*
D03*
X-8661Y2743D02*
D03*
X12624Y16775D02*
D03*
X-11887Y-9449D02*
D03*
X-5715Y-26670D02*
D03*
X13183Y-18059D02*
D03*
X-16662Y11709D02*
D03*
X-4428Y-11676D02*
D03*
X6960Y-3912D02*
D03*
X-4648Y-10363D02*
D03*
X7998Y-18847D02*
D03*
X-7025Y9834D02*
D03*
X-22900Y10395D02*
D03*
X-6198Y9957D02*
D03*
X-7575Y25578D02*
D03*
X-9322Y-24079D02*
D03*
X-11074Y-5906D02*
D03*
X-1651Y-9449D02*
D03*
X-13287Y9973D02*
D03*
X4699Y20244D02*
D03*
X8636Y21895D02*
D03*
X-5283Y21209D02*
D03*
X-6025Y5672D02*
D03*
X13792Y16104D02*
D03*
X-3277Y-26899D02*
D03*
X-15286Y-14732D02*
D03*
X-16459Y-11532D02*
D03*
X-2235Y-20472D02*
D03*
X-11963D02*
D03*
X18408Y8641D02*
D03*
X7925Y-5842D02*
D03*
X-2590Y-9550D02*
D03*
X-1956Y-7036D02*
D03*
X18542Y11742D02*
D03*
X11075Y-3402D02*
D03*
X13259Y-6960D02*
D03*
X13009Y-4630D02*
D03*
X15850Y13386D02*
D03*
X15646Y-6200D02*
D03*
X-3988Y-24663D02*
D03*
X15734Y-11606D02*
D03*
X13517Y-4699D02*
D03*
X15509Y-4496D02*
D03*
X4177Y-23012D02*
D03*
D33*
X10375Y-9950D02*
D03*
D34*
X13474Y12400D02*
D03*
M02*
