%FSLAX24Y24*%
%MOIN*%
G70*
G01*
G75*
G04 Layer_Color=16711935*
%ADD10R,0.0236X0.0157*%
%ADD11R,0.0551X0.0472*%
%ADD12R,0.0512X0.0472*%
%ADD13R,0.0354X0.0315*%
%ADD14R,0.1772X0.1772*%
%ADD15R,0.0110X0.0335*%
%ADD16R,0.0335X0.0110*%
%ADD17R,0.0295X0.0787*%
%ADD18R,0.0315X0.0354*%
%ADD19R,0.0138X0.0394*%
G04:AMPARAMS|DCode=20|XSize=78.7mil|YSize=39.4mil|CornerRadius=9.8mil|HoleSize=0mil|Usage=FLASHONLY|Rotation=90.000|XOffset=0mil|YOffset=0mil|HoleType=Round|Shape=RoundedRectangle|*
%AMROUNDEDRECTD20*
21,1,0.0787,0.0197,0,0,90.0*
21,1,0.0591,0.0394,0,0,90.0*
1,1,0.0197,0.0098,0.0295*
1,1,0.0197,0.0098,-0.0295*
1,1,0.0197,-0.0098,-0.0295*
1,1,0.0197,-0.0098,0.0295*
%
%ADD20ROUNDEDRECTD20*%
G04:AMPARAMS|DCode=21|XSize=59.1mil|YSize=39.4mil|CornerRadius=9.8mil|HoleSize=0mil|Usage=FLASHONLY|Rotation=180.000|XOffset=0mil|YOffset=0mil|HoleType=Round|Shape=RoundedRectangle|*
%AMROUNDEDRECTD21*
21,1,0.0591,0.0197,0,0,180.0*
21,1,0.0394,0.0394,0,0,180.0*
1,1,0.0197,-0.0197,0.0098*
1,1,0.0197,0.0197,0.0098*
1,1,0.0197,0.0197,-0.0098*
1,1,0.0197,-0.0197,-0.0098*
%
%ADD21ROUNDEDRECTD21*%
%ADD22R,0.1260X0.0591*%
%ADD23C,0.0100*%
%ADD24R,0.0364X0.0394*%
%ADD25R,0.0463X0.0295*%
%ADD26R,0.0000X0.0295*%
%ADD27R,0.3189X0.0315*%
%ADD28R,0.2400X0.0200*%
%ADD29R,0.1244X0.5621*%
%ADD30R,0.2972X0.0581*%
%ADD31C,0.0472*%
%ADD32C,0.0394*%
%ADD33C,0.0236*%
%ADD34C,0.0787*%
%ADD35R,0.0669X0.0669*%
%ADD36R,0.0394X0.0709*%
%ADD37O,0.0610X0.0098*%
%ADD38O,0.0098X0.0610*%
%ADD39R,0.0098X0.0138*%
%ADD40R,0.0138X0.0098*%
%ADD41R,0.0157X0.0236*%
%ADD42R,0.0394X0.0748*%
%ADD43P,0.0445X4X337.5*%
%ADD44P,0.0445X4X382.5*%
%ADD45P,0.0445X4X247.5*%
%ADD46P,0.0445X4X292.5*%
%ADD47O,0.0335X0.0098*%
%ADD48O,0.0098X0.0335*%
G04:AMPARAMS|DCode=49|XSize=15.7mil|YSize=23.6mil|CornerRadius=0mil|HoleSize=0mil|Usage=FLASHONLY|Rotation=331.875|XOffset=0mil|YOffset=0mil|HoleType=Round|Shape=Rectangle|*
%AMROTATEDRECTD49*
4,1,4,-0.0125,-0.0067,-0.0014,0.0141,0.0125,0.0067,0.0014,-0.0141,-0.0125,-0.0067,0.0*
%
%ADD49ROTATEDRECTD49*%

G04:AMPARAMS|DCode=50|XSize=15.7mil|YSize=23.6mil|CornerRadius=0mil|HoleSize=0mil|Usage=FLASHONLY|Rotation=241.875|XOffset=0mil|YOffset=0mil|HoleType=Round|Shape=Rectangle|*
%AMROTATEDRECTD50*
4,1,4,-0.0067,0.0125,0.0141,0.0014,0.0067,-0.0125,-0.0141,-0.0014,-0.0067,0.0125,0.0*
%
%ADD50ROTATEDRECTD50*%

G04:AMPARAMS|DCode=51|XSize=15.7mil|YSize=23.6mil|CornerRadius=0mil|HoleSize=0mil|Usage=FLASHONLY|Rotation=196.875|XOffset=0mil|YOffset=0mil|HoleType=Round|Shape=Rectangle|*
%AMROTATEDRECTD51*
4,1,4,0.0041,0.0136,0.0110,-0.0090,-0.0041,-0.0136,-0.0110,0.0090,0.0041,0.0136,0.0*
%
%ADD51ROTATEDRECTD51*%

G04:AMPARAMS|DCode=52|XSize=15.7mil|YSize=23.6mil|CornerRadius=0mil|HoleSize=0mil|Usage=FLASHONLY|Rotation=343.125|XOffset=0mil|YOffset=0mil|HoleType=Round|Shape=Rectangle|*
%AMROTATEDRECTD52*
4,1,4,-0.0110,-0.0090,-0.0041,0.0136,0.0110,0.0090,0.0041,-0.0136,-0.0110,-0.0090,0.0*
%
%ADD52ROTATEDRECTD52*%

G04:AMPARAMS|DCode=53|XSize=15.7mil|YSize=23.6mil|CornerRadius=0mil|HoleSize=0mil|Usage=FLASHONLY|Rotation=303.750|XOffset=0mil|YOffset=0mil|HoleType=Round|Shape=Rectangle|*
%AMROTATEDRECTD53*
4,1,4,-0.0142,-0.0000,0.0054,0.0131,0.0142,0.0000,-0.0054,-0.0131,-0.0142,-0.0000,0.0*
%
%ADD53ROTATEDRECTD53*%

%ADD54R,0.0472X0.0551*%
%ADD55R,0.0669X0.0630*%
G04:AMPARAMS|DCode=56|XSize=63mil|YSize=66.9mil|CornerRadius=0mil|HoleSize=0mil|Usage=FLASHONLY|Rotation=151.875|XOffset=0mil|YOffset=0mil|HoleType=Round|Shape=Rectangle|*
%AMROTATEDRECTD56*
4,1,4,0.0436,0.0147,0.0120,-0.0444,-0.0436,-0.0147,-0.0120,0.0444,0.0436,0.0147,0.0*
%
%ADD56ROTATEDRECTD56*%

%ADD57R,0.0316X0.0237*%
%ADD58R,0.0631X0.0552*%
%ADD59R,0.0592X0.0552*%
%ADD60R,0.0434X0.0395*%
%ADD61R,0.0012X0.0012*%
%ADD62R,0.0190X0.0415*%
%ADD63R,0.0415X0.0190*%
%ADD64R,0.0375X0.0867*%
%ADD65R,0.0395X0.0434*%
%ADD66R,0.0218X0.0474*%
G04:AMPARAMS|DCode=67|XSize=86.7mil|YSize=47.4mil|CornerRadius=13.8mil|HoleSize=0mil|Usage=FLASHONLY|Rotation=90.000|XOffset=0mil|YOffset=0mil|HoleType=Round|Shape=RoundedRectangle|*
%AMROUNDEDRECTD67*
21,1,0.0867,0.0197,0,0,90.0*
21,1,0.0591,0.0474,0,0,90.0*
1,1,0.0277,0.0098,0.0295*
1,1,0.0277,0.0098,-0.0295*
1,1,0.0277,-0.0098,-0.0295*
1,1,0.0277,-0.0098,0.0295*
%
%ADD67ROUNDEDRECTD67*%
G04:AMPARAMS|DCode=68|XSize=67.1mil|YSize=47.4mil|CornerRadius=13.8mil|HoleSize=0mil|Usage=FLASHONLY|Rotation=180.000|XOffset=0mil|YOffset=0mil|HoleType=Round|Shape=RoundedRectangle|*
%AMROUNDEDRECTD68*
21,1,0.0671,0.0197,0,0,180.0*
21,1,0.0394,0.0474,0,0,180.0*
1,1,0.0277,-0.0197,0.0098*
1,1,0.0277,0.0197,0.0098*
1,1,0.0277,0.0197,-0.0098*
1,1,0.0277,-0.0197,-0.0098*
%
%ADD68ROUNDEDRECTD68*%
%ADD69R,0.1340X0.0671*%
%ADD70C,0.0552*%
%ADD71C,0.0474*%
%ADD72C,0.0316*%
%ADD73C,0.0867*%
%ADD74R,0.0474X0.0789*%
%ADD75O,0.0690X0.0178*%
%ADD76O,0.0178X0.0690*%
%ADD77R,0.0178X0.0218*%
%ADD78R,0.0218X0.0178*%
%ADD79R,0.0237X0.0316*%
%ADD80R,0.0474X0.0828*%
%ADD81P,0.0559X4X337.5*%
%ADD82P,0.0559X4X382.5*%
%ADD83P,0.0559X4X247.5*%
%ADD84P,0.0559X4X292.5*%
%ADD85O,0.0415X0.0178*%
%ADD86O,0.0178X0.0415*%
G04:AMPARAMS|DCode=87|XSize=23.7mil|YSize=31.6mil|CornerRadius=0mil|HoleSize=0mil|Usage=FLASHONLY|Rotation=331.875|XOffset=0mil|YOffset=0mil|HoleType=Round|Shape=Rectangle|*
%AMROTATEDRECTD87*
4,1,4,-0.0179,-0.0083,-0.0030,0.0195,0.0179,0.0083,0.0030,-0.0195,-0.0179,-0.0083,0.0*
%
%ADD87ROTATEDRECTD87*%

G04:AMPARAMS|DCode=88|XSize=23.7mil|YSize=31.6mil|CornerRadius=0mil|HoleSize=0mil|Usage=FLASHONLY|Rotation=241.875|XOffset=0mil|YOffset=0mil|HoleType=Round|Shape=Rectangle|*
%AMROTATEDRECTD88*
4,1,4,-0.0083,0.0179,0.0195,0.0030,0.0083,-0.0179,-0.0195,-0.0030,-0.0083,0.0179,0.0*
%
%ADD88ROTATEDRECTD88*%

G04:AMPARAMS|DCode=89|XSize=23.7mil|YSize=31.6mil|CornerRadius=0mil|HoleSize=0mil|Usage=FLASHONLY|Rotation=196.875|XOffset=0mil|YOffset=0mil|HoleType=Round|Shape=Rectangle|*
%AMROTATEDRECTD89*
4,1,4,0.0068,0.0186,0.0160,-0.0117,-0.0068,-0.0186,-0.0160,0.0117,0.0068,0.0186,0.0*
%
%ADD89ROTATEDRECTD89*%

G04:AMPARAMS|DCode=90|XSize=23.7mil|YSize=31.6mil|CornerRadius=0mil|HoleSize=0mil|Usage=FLASHONLY|Rotation=343.125|XOffset=0mil|YOffset=0mil|HoleType=Round|Shape=Rectangle|*
%AMROTATEDRECTD90*
4,1,4,-0.0160,-0.0117,-0.0068,0.0186,0.0160,0.0117,0.0068,-0.0186,-0.0160,-0.0117,0.0*
%
%ADD90ROTATEDRECTD90*%

G04:AMPARAMS|DCode=91|XSize=23.7mil|YSize=31.6mil|CornerRadius=0mil|HoleSize=0mil|Usage=FLASHONLY|Rotation=303.750|XOffset=0mil|YOffset=0mil|HoleType=Round|Shape=Rectangle|*
%AMROTATEDRECTD91*
4,1,4,-0.0197,0.0011,0.0066,0.0187,0.0197,-0.0011,-0.0066,-0.0187,-0.0197,0.0011,0.0*
%
%ADD91ROTATEDRECTD91*%

%ADD92R,0.0552X0.0631*%
%ADD93R,0.0749X0.0710*%
G04:AMPARAMS|DCode=94|XSize=71mil|YSize=74.9mil|CornerRadius=0mil|HoleSize=0mil|Usage=FLASHONLY|Rotation=151.875|XOffset=0mil|YOffset=0mil|HoleType=Round|Shape=Rectangle|*
%AMROTATEDRECTD94*
4,1,4,0.0490,0.0163,0.0136,-0.0498,-0.0490,-0.0163,-0.0136,0.0498,0.0490,0.0163,0.0*
%
%ADD94ROTATEDRECTD94*%

D57*
X-4656Y69D02*
D03*
Y-226D02*
D03*
X5492Y-7579D02*
D03*
Y-7953D02*
D03*
Y-8327D02*
D03*
X4587D02*
D03*
Y-7579D02*
D03*
X-7992Y5207D02*
D03*
Y5581D02*
D03*
Y5955D02*
D03*
X-7087D02*
D03*
Y5207D02*
D03*
X4035Y3652D02*
D03*
Y3356D02*
D03*
X6732Y3022D02*
D03*
Y2726D02*
D03*
D58*
X-8898Y6073D02*
D03*
Y5285D02*
D03*
X3553Y-3110D02*
D03*
Y-3898D02*
D03*
D59*
X6194Y-5393D02*
D03*
X7100D02*
D03*
Y-6023D02*
D03*
X6194D02*
D03*
D60*
X3819Y-9232D02*
D03*
X3819Y-8681D02*
D03*
X-6211Y6594D02*
D03*
Y6043D02*
D03*
X-7215Y6624D02*
D03*
Y7175D02*
D03*
X-7854Y6614D02*
D03*
Y7165D02*
D03*
X6486Y1388D02*
D03*
X6486Y1939D02*
D03*
X6368Y-7805D02*
D03*
Y-7254D02*
D03*
X6929Y-7815D02*
D03*
Y-7264D02*
D03*
D65*
X-5728Y-8159D02*
D03*
X-6280D02*
D03*
X-7874Y4478D02*
D03*
X-7323D02*
D03*
X9380Y5049D02*
D03*
X8829D02*
D03*
X-3002Y-4429D02*
D03*
X-3553Y-4429D02*
D03*
D70*
X2362Y9050D02*
D03*
X1575D02*
D03*
X787D02*
D03*
X0D02*
D03*
X-787D02*
D03*
X-1575D02*
D03*
X-2362D02*
D03*
X7895Y7243D02*
D03*
X8425Y6713D02*
D03*
D71*
X5315Y4882D02*
D03*
D72*
X-3317Y-3947D02*
D03*
X6319Y4724D02*
D03*
X8920Y-4120D02*
D03*
X7264Y-4232D02*
D03*
X2746Y-2736D02*
D03*
X5935Y-4764D02*
D03*
X5377Y-5241D02*
D03*
X4690Y-5580D02*
D03*
X-5965Y5207D02*
D03*
X5780Y-3370D02*
D03*
X380Y-2800D02*
D03*
X-1738Y-2072D02*
D03*
X-4820Y7175D02*
D03*
X-1738Y-1445D02*
D03*
X-170Y7170D02*
D03*
X2210Y3220D02*
D03*
X2900Y1330D02*
D03*
X2933Y3016D02*
D03*
X4877Y6110D02*
D03*
X6000Y4170D02*
D03*
X4343Y1403D02*
D03*
X4260Y1760D02*
D03*
X3424Y629D02*
D03*
X-1320Y-770D02*
D03*
X-3060Y2190D02*
D03*
X-960Y4430D02*
D03*
X1181Y-8719D02*
D03*
X-380Y-6020D02*
D03*
X394Y-8576D02*
D03*
X1370Y-2450D02*
D03*
X1580Y2844D02*
D03*
X4040Y6010D02*
D03*
X5310Y8460D02*
D03*
X-3350Y-2130D02*
D03*
X-900Y-10500D02*
D03*
X-7075Y-5315D02*
D03*
X-2595Y-575D02*
D03*
X1500Y-7450D02*
D03*
X3770Y-5970D02*
D03*
X4070Y-280D02*
D03*
X1100Y5600D02*
D03*
X-4130Y4280D02*
D03*
X2048Y6760D02*
D03*
X2849Y6307D02*
D03*
X-4070Y2570D02*
D03*
X4230Y3083D02*
D03*
X957Y7340D02*
D03*
X4280Y-1970D02*
D03*
X4380Y-420D02*
D03*
X-100Y8150D02*
D03*
X-2790Y6860D02*
D03*
Y4470D02*
D03*
X-3770Y2160D02*
D03*
X-4653Y-8570D02*
D03*
X-2940D02*
D03*
X-2630Y-3866D02*
D03*
X1310Y3140D02*
D03*
X620Y-4440D02*
D03*
X6746Y4010D02*
D03*
X6570Y5350D02*
D03*
X-5339Y-4247D02*
D03*
X-4913Y-5689D02*
D03*
X1860Y1030D02*
D03*
X2980Y-6029D02*
D03*
X790Y590D02*
D03*
X3438Y3998D02*
D03*
X4160Y2100D02*
D03*
X5320Y880D02*
D03*
X2050Y-3650D02*
D03*
X-4600Y-7710D02*
D03*
X-4720Y-1690D02*
D03*
X1890Y-4310D02*
D03*
X1235Y-6475D02*
D03*
X-2469Y-2257D02*
D03*
X-5160Y-4930D02*
D03*
Y-6080D02*
D03*
X-5700Y-5886D02*
D03*
X-6070Y-4000D02*
D03*
X-5750Y-1460D02*
D03*
X-3180Y50D02*
D03*
X360Y-7084D02*
D03*
X-430Y-2440D02*
D03*
X-210Y100D02*
D03*
X-3360Y-480D02*
D03*
X-4500Y-6880D02*
D03*
X2490Y-3650D02*
D03*
Y-4780D02*
D03*
X1394Y-2020D02*
D03*
X2820Y2039D02*
D03*
X1063Y4842D02*
D03*
X-3696Y3620D02*
D03*
X490Y-3600D02*
D03*
X970Y3340D02*
D03*
X-4426Y-7404D02*
D03*
X-450Y-2760D02*
D03*
X5300Y-70D02*
D03*
X-5010Y-240D02*
D03*
X-6100D02*
D03*
X-8000Y-3340D02*
D03*
X4260Y5030D02*
D03*
X-1690Y1590D02*
D03*
X-40Y2684D02*
D03*
X1974Y1750D02*
D03*
X2097Y7573D02*
D03*
X-3030Y-2179D02*
D03*
X-4193Y920D02*
D03*
X-1978Y333D02*
D03*
X-1730Y590D02*
D03*
X-3410Y1080D02*
D03*
X4970Y6604D02*
D03*
X-4680Y-3720D02*
D03*
X-2250Y-10500D02*
D03*
X5190Y-7110D02*
D03*
X-6560Y4610D02*
D03*
X-1743Y-4597D02*
D03*
X2740Y-1540D02*
D03*
X-1830Y-4080D02*
D03*
X3149Y-7420D02*
D03*
X-2766Y3872D02*
D03*
X-9016Y4093D02*
D03*
X-2440Y3920D02*
D03*
X-2982Y10070D02*
D03*
X-3670Y-9480D02*
D03*
X-4360Y-2325D02*
D03*
X-650Y-3720D02*
D03*
X-5231Y3926D02*
D03*
X1850Y7970D02*
D03*
X3400Y8620D02*
D03*
X-2080Y8350D02*
D03*
X-2372Y2233D02*
D03*
X5430Y6340D02*
D03*
X-1290Y-10590D02*
D03*
X-6018Y-5800D02*
D03*
X-6480Y-4540D02*
D03*
X-880Y-8060D02*
D03*
X-4710D02*
D03*
X7247Y3402D02*
D03*
X3120Y-2300D02*
D03*
X-1020Y-3760D02*
D03*
X-770Y-2770D02*
D03*
X7300Y4623D02*
D03*
X4360Y-1339D02*
D03*
X5220Y-2740D02*
D03*
X5122Y-1823D02*
D03*
X6240Y5270D02*
D03*
X6160Y-2441D02*
D03*
X-1570Y-9710D02*
D03*
X6194Y-4569D02*
D03*
X6106Y-1770D02*
D03*
X1645Y-9060D02*
D03*
D73*
X4085Y-3917D02*
D03*
D74*
X6106Y-1171D02*
D03*
X5122D02*
D03*
D75*
X-3858Y394D02*
D03*
X-3858Y197D02*
D03*
X-3858Y0D02*
D03*
X-3858Y-197D02*
D03*
X-3858Y-394D02*
D03*
Y-591D02*
D03*
X-3858Y-787D02*
D03*
Y-984D02*
D03*
X-3858Y-1181D02*
D03*
Y-1378D02*
D03*
Y-1575D02*
D03*
Y-1772D02*
D03*
Y-1968D02*
D03*
X-3858Y-2165D02*
D03*
Y-2362D02*
D03*
X-3858Y-2559D02*
D03*
X492Y-2559D02*
D03*
X492Y-2362D02*
D03*
X492Y-2165D02*
D03*
X492Y-1969D02*
D03*
X492Y-1772D02*
D03*
X492Y-1575D02*
D03*
Y-1378D02*
D03*
X492Y-1181D02*
D03*
X492Y-984D02*
D03*
X492Y-787D02*
D03*
X492Y-591D02*
D03*
Y-394D02*
D03*
X492Y-197D02*
D03*
X492Y-0D02*
D03*
Y197D02*
D03*
X492Y394D02*
D03*
D76*
X-3159Y-3258D02*
D03*
X-2963Y-3258D02*
D03*
X-2766Y-3258D02*
D03*
X-2569D02*
D03*
X-2372D02*
D03*
X-2175D02*
D03*
X-1978D02*
D03*
X-1781Y-3258D02*
D03*
X-1585D02*
D03*
X-1388Y-3258D02*
D03*
X-1191Y-3258D02*
D03*
X-994Y-3258D02*
D03*
X-797Y-3258D02*
D03*
X-600Y-3258D02*
D03*
X-404D02*
D03*
X-207Y-3258D02*
D03*
X-207Y1093D02*
D03*
X-404D02*
D03*
X-600Y1093D02*
D03*
X-797Y1093D02*
D03*
X-994D02*
D03*
X-1191D02*
D03*
X-1388Y1093D02*
D03*
X-1585D02*
D03*
X-1781Y1093D02*
D03*
X-1978Y1093D02*
D03*
X-2175Y1093D02*
D03*
X-2372D02*
D03*
X-2569Y1093D02*
D03*
X-2766Y1093D02*
D03*
X-2963D02*
D03*
X-3159Y1093D02*
D03*
D77*
X-6339Y-5404D02*
D03*
X-6142D02*
D03*
X-5945D02*
D03*
X-5748Y-5404D02*
D03*
X-5551D02*
D03*
X-5551Y-6368D02*
D03*
X-5748D02*
D03*
X-5945D02*
D03*
X-6142D02*
D03*
X-6339Y-6368D02*
D03*
D78*
X-5463Y-5689D02*
D03*
X-5463Y-5886D02*
D03*
Y-6083D02*
D03*
X-6427D02*
D03*
Y-5886D02*
D03*
Y-5689D02*
D03*
D79*
X-4419Y-4429D02*
D03*
X-4124D02*
D03*
X9163Y3740D02*
D03*
X8868D02*
D03*
X-9311Y3789D02*
D03*
X-9016Y3789D02*
D03*
X-6319Y4646D02*
D03*
X-6024D02*
D03*
X9154Y4360D02*
D03*
X8858D02*
D03*
X-7264Y-4173D02*
D03*
X-7559D02*
D03*
X-7264Y-4616D02*
D03*
X-7559Y-4616D02*
D03*
X7697Y3730D02*
D03*
X7402D02*
D03*
X3268Y3346D02*
D03*
X3563D02*
D03*
X3602Y7156D02*
D03*
X3307D02*
D03*
X3622Y6437D02*
D03*
X3327D02*
D03*
X9213Y5650D02*
D03*
X8917D02*
D03*
D80*
X-2500Y5846D02*
D03*
X-1500D02*
D03*
X-500D02*
D03*
X500D02*
D03*
X1500D02*
D03*
X2500D02*
D03*
Y7746D02*
D03*
X1500D02*
D03*
X500D02*
D03*
X-500D02*
D03*
X-1500D02*
D03*
X-2500D02*
D03*
D81*
X-10263Y-3816D02*
D03*
X-10037Y-4361D02*
D03*
X9979Y4435D02*
D03*
X10204Y3890D02*
D03*
D82*
X-4456Y-9969D02*
D03*
X-3910Y-10195D02*
D03*
X3894Y10180D02*
D03*
X4440Y9955D02*
D03*
D83*
X4435Y-9979D02*
D03*
X3890Y-10204D02*
D03*
X-4435Y9979D02*
D03*
X-3890Y10204D02*
D03*
D84*
X10180Y-3894D02*
D03*
X9955Y-4440D02*
D03*
X-9998Y4484D02*
D03*
X-10224Y3938D02*
D03*
D85*
X5925Y4587D02*
D03*
Y4783D02*
D03*
Y4980D02*
D03*
Y5177D02*
D03*
X4695Y5177D02*
D03*
X4695Y4980D02*
D03*
X4695Y4783D02*
D03*
X4695Y4587D02*
D03*
D86*
X5591Y5492D02*
D03*
X5394D02*
D03*
X5197Y5492D02*
D03*
X5000D02*
D03*
Y4272D02*
D03*
X5197D02*
D03*
X5394D02*
D03*
X5591Y4272D02*
D03*
D87*
X5045Y9677D02*
D03*
X5305Y9537D02*
D03*
D88*
X9765Y-5005D02*
D03*
X9626Y-5266D02*
D03*
D89*
X3058Y-10495D02*
D03*
X2776Y-10581D02*
D03*
X-3265Y10426D02*
D03*
X-2982Y10512D02*
D03*
D90*
X-3333Y-10414D02*
D03*
X-3050Y-10500D02*
D03*
D91*
X-9701Y-5069D02*
D03*
X-9537Y-5315D02*
D03*
D92*
X-6447Y-7392D02*
D03*
X-5659D02*
D03*
D93*
X5571Y1398D02*
D03*
Y2461D02*
D03*
D94*
X6890Y6476D02*
D03*
X7827Y5975D02*
D03*
M02*
