M48
;Layer_Color=9474304
;FILE_FORMAT=2:4
INCH,LZ
;TYPE=PLATED
T1F00S00C0.0118
T2F00S00C0.0197
T3F00S00C0.0236
T4F00S00C0.0394
%
T01
X-00367Y-00948
X-00294Y-00857
X-00157Y-00971
X-00129Y-01059
X-0009Y-0105
X-00225
X-00088Y-00806
X000394Y-008576
X001181Y-008719
X001645Y-00906
X0015Y-00745
X001235Y-006475
X00036Y-007084
X-00038Y-00602
X-00065Y-00372
X-00102Y-00376
X-00183Y-00408
X-001743Y-004597
X-00263Y-003866
X-003317Y-003947
X-00335Y-00213
X-00303Y-002179
X-002469Y-002257
X-001738Y-002072
Y-001445
X-00132Y-00077
X-002595Y-000575
X-00336Y-00048
X-00318Y00005
X-001978Y000333
X-00173Y00059
X-00021Y0001
X00079Y00059
X003424Y000629
X00407Y-00028
X00438Y-00042
X00436Y-001339
X00428Y-00197
X005122Y-001823
X00522Y-00274
X00578Y-00337
X00616Y-002441
X006106Y-00177
X0053Y-00007
X00532Y00088
X00274Y-00154
X00312Y-0023
X002746Y-002736
X00249Y-00365
X00205
X00189Y-00431
X00249Y-00478
X00298Y-006029
X00377Y-00597
X00469Y-00558
X005377Y-005241
X005935Y-004764
X006194Y-004569
X007264Y-004232
X00892Y-00412
X00519Y-00711
X003149Y-00742
X00062Y-00444
X00049Y-0036
X00038Y-0028
X-00045Y-00276
X-00077Y-00277
X-00043Y-00244
X00137Y-00245
X001394Y-00202
X-00436Y-002325
X-00472Y-00169
X-00575Y-00146
X-0061Y-00024
X-00501
X-004193Y00092
X-00468Y-00372
X-005339Y-004247
X-00516Y-00493
X-004913Y-005689
X-00516Y-00608
X-0057Y-005886
X-006018Y-0058
X-007075Y-005315
X-00648Y-00454
X-00607Y-004
X-008Y-00334
X-0045Y-00688
X-004426Y-007404
X-0046Y-00771
X-00471Y-00806
X-004653Y-00857
X-00407Y00257
X-00413Y00428
X-005231Y003926
X-00656Y00461
X-005965Y005207
X-00482Y007175
X-009016Y004093
X-003696Y00362
X-002766Y003872
X-00244Y00392
X-00279Y00447
X-00096Y00443
X001063Y004842
X0011Y0056
X000957Y00734
X-00017Y00717
X-0001Y00815
X00185Y00797
X002097Y007573
X002048Y00676
X002849Y006307
X00404Y00601
X004877Y00611
X00497Y006604
X00543Y00634
X00624Y00527
X00657Y00535
X006319Y004724
X006Y00417
X006746Y00401
X007247Y003402
X0073Y004623
X00426Y00503
X003438Y003998
X002933Y003016
X00221Y00322
X00131Y00314
X00097Y00334
X00158Y002844
X001974Y00175
X00186Y00103
X0029Y00133
X00282Y002039
X00416Y0021
X00426Y00176
X004343Y001403
X00423Y003083
X-00004Y002684
X-00169Y00159
X-002372Y002233
X-00306Y00219
X-00377Y00216
X-00341Y00108
X-00279Y00686
X-00208Y00835
X-002982Y01007
X0034Y00862
X00531Y00846
T02
X005315Y004882
T03
X-002362Y00905
X-001575
X-000787
X0
X000787
X001575
X002362
X007895Y007243
X008425Y006713
T04
X004085Y-003917
M30
