%FSLAX43Y43*%
%MOMM*%
G71*
G01*
G75*
G04 Layer_Color=16711935*
%ADD10R,0.600X0.400*%
%ADD11R,1.400X1.200*%
%ADD12R,1.300X1.200*%
%ADD13R,0.900X0.800*%
%ADD14R,4.500X4.500*%
%ADD15R,0.280X0.850*%
%ADD16R,0.850X0.280*%
%ADD17R,0.750X2.000*%
%ADD18R,0.800X0.900*%
%ADD19R,0.350X1.000*%
G04:AMPARAMS|DCode=20|XSize=2mm|YSize=1mm|CornerRadius=0.25mm|HoleSize=0mm|Usage=FLASHONLY|Rotation=90.000|XOffset=0mm|YOffset=0mm|HoleType=Round|Shape=RoundedRectangle|*
%AMROUNDEDRECTD20*
21,1,2.000,0.500,0,0,90.0*
21,1,1.500,1.000,0,0,90.0*
1,1,0.500,0.250,0.750*
1,1,0.500,0.250,-0.750*
1,1,0.500,-0.250,-0.750*
1,1,0.500,-0.250,0.750*
%
%ADD20ROUNDEDRECTD20*%
G04:AMPARAMS|DCode=21|XSize=1.5mm|YSize=1mm|CornerRadius=0.25mm|HoleSize=0mm|Usage=FLASHONLY|Rotation=180.000|XOffset=0mm|YOffset=0mm|HoleType=Round|Shape=RoundedRectangle|*
%AMROUNDEDRECTD21*
21,1,1.500,0.500,0,0,180.0*
21,1,1.000,1.000,0,0,180.0*
1,1,0.500,-0.500,0.250*
1,1,0.500,0.500,0.250*
1,1,0.500,0.500,-0.250*
1,1,0.500,-0.500,-0.250*
%
%ADD21ROUNDEDRECTD21*%
%ADD22R,3.200X1.500*%
%ADD23C,0.254*%
%ADD24R,1.350X0.750*%
%ADD25R,0.000X0.750*%
%ADD26R,8.275X0.800*%
%ADD27R,6.096X0.508*%
%ADD28R,3.161X14.453*%
%ADD29R,7.550X1.775*%
%ADD30C,1.200*%
%ADD31C,1.000*%
%ADD32C,0.600*%
%ADD33C,2.000*%
%ADD34R,1.700X1.700*%
%ADD35R,1.000X1.800*%
%ADD36O,1.550X0.250*%
%ADD37O,0.250X1.550*%
%ADD38R,0.250X0.350*%
%ADD39R,0.350X0.250*%
%ADD40R,0.400X0.600*%
%ADD41R,1.000X1.900*%
%ADD42P,1.131X4X337.5*%
%ADD43P,1.131X4X382.5*%
%ADD44P,1.131X4X247.5*%
%ADD45P,1.131X4X292.5*%
%ADD46O,0.850X0.250*%
%ADD47O,0.250X0.850*%
G04:AMPARAMS|DCode=48|XSize=0.4mm|YSize=0.6mm|CornerRadius=0mm|HoleSize=0mm|Usage=FLASHONLY|Rotation=331.875|XOffset=0mm|YOffset=0mm|HoleType=Round|Shape=Rectangle|*
%AMROTATEDRECTD48*
4,1,4,-0.318,-0.170,-0.035,0.359,0.318,0.170,0.035,-0.359,-0.318,-0.170,0.0*
%
%ADD48ROTATEDRECTD48*%

G04:AMPARAMS|DCode=49|XSize=0.4mm|YSize=0.6mm|CornerRadius=0mm|HoleSize=0mm|Usage=FLASHONLY|Rotation=241.875|XOffset=0mm|YOffset=0mm|HoleType=Round|Shape=Rectangle|*
%AMROTATEDRECTD49*
4,1,4,-0.170,0.318,0.359,0.035,0.170,-0.318,-0.359,-0.035,-0.170,0.318,0.0*
%
%ADD49ROTATEDRECTD49*%

G04:AMPARAMS|DCode=50|XSize=0.4mm|YSize=0.6mm|CornerRadius=0mm|HoleSize=0mm|Usage=FLASHONLY|Rotation=196.875|XOffset=0mm|YOffset=0mm|HoleType=Round|Shape=Rectangle|*
%AMROTATEDRECTD50*
4,1,4,0.104,0.345,0.278,-0.229,-0.104,-0.345,-0.278,0.229,0.104,0.345,0.0*
%
%ADD50ROTATEDRECTD50*%

G04:AMPARAMS|DCode=51|XSize=0.4mm|YSize=0.6mm|CornerRadius=0mm|HoleSize=0mm|Usage=FLASHONLY|Rotation=343.125|XOffset=0mm|YOffset=0mm|HoleType=Round|Shape=Rectangle|*
%AMROTATEDRECTD51*
4,1,4,-0.278,-0.229,-0.104,0.345,0.278,0.229,0.104,-0.345,-0.278,-0.229,0.0*
%
%ADD51ROTATEDRECTD51*%

G04:AMPARAMS|DCode=52|XSize=0.4mm|YSize=0.6mm|CornerRadius=0mm|HoleSize=0mm|Usage=FLASHONLY|Rotation=303.750|XOffset=0mm|YOffset=0mm|HoleType=Round|Shape=Rectangle|*
%AMROTATEDRECTD52*
4,1,4,-0.361,-0.000,0.138,0.333,0.361,0.000,-0.138,-0.333,-0.361,-0.000,0.0*
%
%ADD52ROTATEDRECTD52*%

%ADD53R,1.200X1.400*%
%ADD54R,1.700X1.600*%
G04:AMPARAMS|DCode=55|XSize=1.6mm|YSize=1.7mm|CornerRadius=0mm|HoleSize=0mm|Usage=FLASHONLY|Rotation=151.875|XOffset=0mm|YOffset=0mm|HoleType=Round|Shape=Rectangle|*
%AMROTATEDRECTD55*
4,1,4,1.106,0.373,0.305,-1.127,-1.106,-0.373,-0.305,1.127,1.106,0.373,0.0*
%
%ADD55ROTATEDRECTD55*%

%ADD56R,0.025X0.025*%
%ADD57R,0.803X0.603*%
%ADD58R,1.603X1.403*%
%ADD59R,1.503X1.403*%
%ADD60R,1.103X1.003*%
%ADD61R,0.030X0.030*%
%ADD62R,0.483X1.053*%
%ADD63R,1.053X0.483*%
%ADD64R,0.953X2.203*%
%ADD65R,1.003X1.103*%
%ADD66R,0.553X1.203*%
G04:AMPARAMS|DCode=67|XSize=2.203mm|YSize=1.203mm|CornerRadius=0.352mm|HoleSize=0mm|Usage=FLASHONLY|Rotation=90.000|XOffset=0mm|YOffset=0mm|HoleType=Round|Shape=RoundedRectangle|*
%AMROUNDEDRECTD67*
21,1,2.203,0.500,0,0,90.0*
21,1,1.500,1.203,0,0,90.0*
1,1,0.703,0.250,0.750*
1,1,0.703,0.250,-0.750*
1,1,0.703,-0.250,-0.750*
1,1,0.703,-0.250,0.750*
%
%ADD67ROUNDEDRECTD67*%
G04:AMPARAMS|DCode=68|XSize=1.703mm|YSize=1.203mm|CornerRadius=0.352mm|HoleSize=0mm|Usage=FLASHONLY|Rotation=180.000|XOffset=0mm|YOffset=0mm|HoleType=Round|Shape=RoundedRectangle|*
%AMROUNDEDRECTD68*
21,1,1.703,0.500,0,0,180.0*
21,1,1.000,1.203,0,0,180.0*
1,1,0.703,-0.500,0.250*
1,1,0.703,0.500,0.250*
1,1,0.703,0.500,-0.250*
1,1,0.703,-0.500,-0.250*
%
%ADD68ROUNDEDRECTD68*%
%ADD69R,3.403X1.703*%
%ADD70C,1.403*%
%ADD71C,1.203*%
%ADD72C,0.803*%
%ADD73C,2.203*%
%ADD74R,1.203X2.003*%
%ADD75O,1.753X0.453*%
%ADD76O,0.453X1.753*%
%ADD77R,0.453X0.553*%
%ADD78R,0.553X0.453*%
%ADD79R,0.603X0.803*%
%ADD80R,1.203X2.103*%
%ADD81P,1.419X4X337.5*%
%ADD82P,1.419X4X382.5*%
%ADD83P,1.419X4X247.5*%
%ADD84P,1.419X4X292.5*%
%ADD85O,1.053X0.453*%
%ADD86O,0.453X1.053*%
G04:AMPARAMS|DCode=87|XSize=0.603mm|YSize=0.803mm|CornerRadius=0mm|HoleSize=0mm|Usage=FLASHONLY|Rotation=331.875|XOffset=0mm|YOffset=0mm|HoleType=Round|Shape=Rectangle|*
%AMROTATEDRECTD87*
4,1,4,-0.455,-0.212,-0.077,0.496,0.455,0.212,0.077,-0.496,-0.455,-0.212,0.0*
%
%ADD87ROTATEDRECTD87*%

G04:AMPARAMS|DCode=88|XSize=0.603mm|YSize=0.803mm|CornerRadius=0mm|HoleSize=0mm|Usage=FLASHONLY|Rotation=241.875|XOffset=0mm|YOffset=0mm|HoleType=Round|Shape=Rectangle|*
%AMROTATEDRECTD88*
4,1,4,-0.212,0.455,0.496,0.077,0.212,-0.455,-0.496,-0.077,-0.212,0.455,0.0*
%
%ADD88ROTATEDRECTD88*%

G04:AMPARAMS|DCode=89|XSize=0.603mm|YSize=0.803mm|CornerRadius=0mm|HoleSize=0mm|Usage=FLASHONLY|Rotation=196.875|XOffset=0mm|YOffset=0mm|HoleType=Round|Shape=Rectangle|*
%AMROTATEDRECTD89*
4,1,4,0.172,0.472,0.405,-0.297,-0.172,-0.472,-0.405,0.297,0.172,0.472,0.0*
%
%ADD89ROTATEDRECTD89*%

G04:AMPARAMS|DCode=90|XSize=0.603mm|YSize=0.803mm|CornerRadius=0mm|HoleSize=0mm|Usage=FLASHONLY|Rotation=343.125|XOffset=0mm|YOffset=0mm|HoleType=Round|Shape=Rectangle|*
%AMROTATEDRECTD90*
4,1,4,-0.405,-0.297,-0.172,0.472,0.405,0.297,0.172,-0.472,-0.405,-0.297,0.0*
%
%ADD90ROTATEDRECTD90*%

G04:AMPARAMS|DCode=91|XSize=0.603mm|YSize=0.803mm|CornerRadius=0mm|HoleSize=0mm|Usage=FLASHONLY|Rotation=303.750|XOffset=0mm|YOffset=0mm|HoleType=Round|Shape=Rectangle|*
%AMROTATEDRECTD91*
4,1,4,-0.501,0.028,0.166,0.474,0.501,-0.028,-0.166,-0.474,-0.501,0.028,0.0*
%
%ADD91ROTATEDRECTD91*%

%ADD92R,1.403X1.603*%
%ADD93R,1.903X1.803*%
G04:AMPARAMS|DCode=94|XSize=1.803mm|YSize=1.903mm|CornerRadius=0mm|HoleSize=0mm|Usage=FLASHONLY|Rotation=151.875|XOffset=0mm|YOffset=0mm|HoleType=Round|Shape=Rectangle|*
%AMROTATEDRECTD94*
4,1,4,1.244,0.414,0.347,-1.264,-1.244,-0.414,-0.347,1.264,1.244,0.414,0.0*
%
%ADD94ROTATEDRECTD94*%

D57*
X-11825Y175D02*
D03*
Y-575D02*
D03*
X13950Y-19250D02*
D03*
Y-20200D02*
D03*
Y-21150D02*
D03*
X11650D02*
D03*
Y-19250D02*
D03*
X-20300Y13225D02*
D03*
Y14175D02*
D03*
Y15125D02*
D03*
X-18000D02*
D03*
Y13225D02*
D03*
X10250Y9275D02*
D03*
Y8525D02*
D03*
X17100Y7675D02*
D03*
Y6925D02*
D03*
D58*
X-22600Y15425D02*
D03*
Y13425D02*
D03*
X9025Y-7900D02*
D03*
Y-9900D02*
D03*
D59*
X15734Y-13698D02*
D03*
X18034D02*
D03*
Y-15298D02*
D03*
X15734D02*
D03*
D60*
X9700Y-23450D02*
D03*
X9700Y-22050D02*
D03*
X-15775Y16750D02*
D03*
Y15350D02*
D03*
X-18325Y16825D02*
D03*
Y18225D02*
D03*
X-19950Y16800D02*
D03*
Y18200D02*
D03*
X16475Y3525D02*
D03*
X16475Y4925D02*
D03*
X16175Y-19825D02*
D03*
Y-18425D02*
D03*
X17600Y-19850D02*
D03*
Y-18450D02*
D03*
D65*
X-14550Y-20725D02*
D03*
X-15950D02*
D03*
X-20000Y11375D02*
D03*
X-18600D02*
D03*
X23825Y12825D02*
D03*
X22425D02*
D03*
X-7625Y-11250D02*
D03*
X-9025Y-11250D02*
D03*
D70*
X6000Y22987D02*
D03*
X4000D02*
D03*
X2000D02*
D03*
X0D02*
D03*
X-2000D02*
D03*
X-4000D02*
D03*
X-6000D02*
D03*
X20053Y18397D02*
D03*
X21400Y17050D02*
D03*
D71*
X13500Y12400D02*
D03*
D72*
X18800Y-8407D02*
D03*
X6975Y-6950D02*
D03*
X15075Y-12100D02*
D03*
X13659Y-13313D02*
D03*
X11913Y-14173D02*
D03*
X-15150Y13225D02*
D03*
X14681Y-8560D02*
D03*
X965Y-7112D02*
D03*
X-4415Y-5262D02*
D03*
X-12242Y18225D02*
D03*
X-4415Y-3670D02*
D03*
X-432Y18212D02*
D03*
X5613Y8179D02*
D03*
X7366Y3378D02*
D03*
X7450Y7660D02*
D03*
X22657Y-10465D02*
D03*
X12387Y15519D02*
D03*
X15240Y10592D02*
D03*
X11030Y3562D02*
D03*
X10820Y4470D02*
D03*
X8698Y1597D02*
D03*
X-3353Y-1956D02*
D03*
X-7772Y5563D02*
D03*
X-2438Y11252D02*
D03*
X3000Y-22146D02*
D03*
X-965Y-15291D02*
D03*
X1000Y-21784D02*
D03*
X3480Y-6223D02*
D03*
X4013Y7225D02*
D03*
X10262Y15265D02*
D03*
X13487Y21488D02*
D03*
X-8509Y-5410D02*
D03*
X-2286Y-26670D02*
D03*
X-17971Y-13500D02*
D03*
X-6591Y-1460D02*
D03*
X3810Y-18923D02*
D03*
X9576Y-15164D02*
D03*
X10338Y-711D02*
D03*
X2794Y14224D02*
D03*
X-10490Y10871D02*
D03*
X5202Y17170D02*
D03*
X7235Y16020D02*
D03*
X-10338Y6528D02*
D03*
X10744Y7831D02*
D03*
X2430Y18644D02*
D03*
X10871Y-5004D02*
D03*
X11125Y-1067D02*
D03*
X-254Y20701D02*
D03*
X-7087Y17424D02*
D03*
Y11354D02*
D03*
X-9575Y5486D02*
D03*
X-11818Y-21768D02*
D03*
X-7468D02*
D03*
X-6680Y-9819D02*
D03*
X3327Y7976D02*
D03*
X1575Y-11278D02*
D03*
X17135Y10185D02*
D03*
X16688Y13589D02*
D03*
X-13562Y-10787D02*
D03*
X-12479Y-14450D02*
D03*
X4724Y2616D02*
D03*
X7569Y-15313D02*
D03*
X2007Y1499D02*
D03*
X8732Y10155D02*
D03*
X10566Y5334D02*
D03*
X13513Y2235D02*
D03*
X15867Y12065D02*
D03*
X5207Y-9271D02*
D03*
X-11684Y-19583D02*
D03*
X-11989Y-4293D02*
D03*
X4801Y-10948D02*
D03*
X3136Y-16447D02*
D03*
X-6271Y-5733D02*
D03*
X-13106Y-12522D02*
D03*
Y-15443D02*
D03*
X-14478Y-14950D02*
D03*
X-15418Y-10160D02*
D03*
X-14605Y-3708D02*
D03*
X-8077Y127D02*
D03*
X914Y-17994D02*
D03*
X-1092Y-6198D02*
D03*
X-533Y254D02*
D03*
X-8534Y-1219D02*
D03*
X-11430Y-17475D02*
D03*
X6325Y-9271D02*
D03*
Y-12141D02*
D03*
X3542Y-5131D02*
D03*
X7163Y5180D02*
D03*
X2700Y12300D02*
D03*
X-9387Y9195D02*
D03*
X1245Y-9144D02*
D03*
X2464Y8484D02*
D03*
X-11243Y-18806D02*
D03*
X-1143Y-7010D02*
D03*
X13462Y-178D02*
D03*
X-12725Y-610D02*
D03*
X-15494D02*
D03*
X-20320Y-8484D02*
D03*
X10820Y12776D02*
D03*
X-4293Y4039D02*
D03*
X-103Y6818D02*
D03*
X5013Y4445D02*
D03*
X5326Y19236D02*
D03*
X-7696Y-5535D02*
D03*
X-10649Y2337D02*
D03*
X-8433Y-10389D02*
D03*
X-5025Y847D02*
D03*
X-4394Y1499D02*
D03*
X-8661Y2743D02*
D03*
X12624Y16775D02*
D03*
X-11887Y-9449D02*
D03*
X-5715Y-26670D02*
D03*
X13183Y-18059D02*
D03*
X-16662Y11709D02*
D03*
X-4428Y-11676D02*
D03*
X6960Y-3912D02*
D03*
X-4648Y-10363D02*
D03*
X7998Y-18847D02*
D03*
X-7025Y9834D02*
D03*
X-22900Y10395D02*
D03*
X-6198Y9957D02*
D03*
X-7575Y25578D02*
D03*
X-9322Y-24079D02*
D03*
X-11074Y-5906D02*
D03*
X-1651Y-9449D02*
D03*
X-13287Y9973D02*
D03*
X4699Y20244D02*
D03*
X8636Y21895D02*
D03*
X-5283Y21209D02*
D03*
X-6025Y5672D02*
D03*
X13792Y16104D02*
D03*
X-3277Y-26899D02*
D03*
X-15286Y-14732D02*
D03*
X-16459Y-11532D02*
D03*
X-2235Y-20472D02*
D03*
X-11963D02*
D03*
X18408Y8641D02*
D03*
X7925Y-5842D02*
D03*
X-2590Y-9550D02*
D03*
X-1956Y-7036D02*
D03*
X18542Y11742D02*
D03*
X11075Y-3402D02*
D03*
X13259Y-6960D02*
D03*
X13009Y-4630D02*
D03*
X15850Y13386D02*
D03*
X15646Y-6200D02*
D03*
X-3988Y-24663D02*
D03*
X15734Y-11606D02*
D03*
X13517Y-4699D02*
D03*
X15509Y-4496D02*
D03*
X4177Y-23012D02*
D03*
D73*
X10375Y-9950D02*
D03*
D74*
X15509Y-2974D02*
D03*
X13009D02*
D03*
D75*
X-9800Y1000D02*
D03*
X-9800Y500D02*
D03*
X-9800Y0D02*
D03*
X-9800Y-500D02*
D03*
X-9800Y-1000D02*
D03*
Y-1500D02*
D03*
X-9800Y-2000D02*
D03*
Y-2500D02*
D03*
X-9800Y-3000D02*
D03*
Y-3500D02*
D03*
Y-4000D02*
D03*
Y-4500D02*
D03*
Y-5000D02*
D03*
X-9800Y-5500D02*
D03*
Y-6000D02*
D03*
X-9800Y-6500D02*
D03*
X1250Y-6500D02*
D03*
X1250Y-6000D02*
D03*
X1250Y-5500D02*
D03*
X1250Y-5000D02*
D03*
X1250Y-4500D02*
D03*
X1250Y-4000D02*
D03*
Y-3500D02*
D03*
X1250Y-3000D02*
D03*
X1250Y-2500D02*
D03*
X1250Y-2000D02*
D03*
X1250Y-1500D02*
D03*
Y-1000D02*
D03*
X1250Y-500D02*
D03*
X1250Y-0D02*
D03*
Y500D02*
D03*
X1250Y1000D02*
D03*
D76*
X-8025Y-8275D02*
D03*
X-7525Y-8275D02*
D03*
X-7025Y-8275D02*
D03*
X-6525D02*
D03*
X-6025D02*
D03*
X-5525D02*
D03*
X-5025D02*
D03*
X-4525Y-8275D02*
D03*
X-4025D02*
D03*
X-3525Y-8275D02*
D03*
X-3025Y-8275D02*
D03*
X-2525Y-8275D02*
D03*
X-2025Y-8275D02*
D03*
X-1525Y-8275D02*
D03*
X-1025D02*
D03*
X-525Y-8275D02*
D03*
X-525Y2775D02*
D03*
X-1025D02*
D03*
X-1525Y2775D02*
D03*
X-2025Y2775D02*
D03*
X-2525D02*
D03*
X-3025D02*
D03*
X-3525Y2775D02*
D03*
X-4025D02*
D03*
X-4525Y2775D02*
D03*
X-5025Y2775D02*
D03*
X-5525Y2775D02*
D03*
X-6025D02*
D03*
X-6525Y2775D02*
D03*
X-7025Y2775D02*
D03*
X-7525D02*
D03*
X-8025Y2775D02*
D03*
D77*
X-16100Y-13725D02*
D03*
X-15600D02*
D03*
X-15100D02*
D03*
X-14600Y-13725D02*
D03*
X-14100D02*
D03*
X-14100Y-16175D02*
D03*
X-14600D02*
D03*
X-15100D02*
D03*
X-15600D02*
D03*
X-16100Y-16175D02*
D03*
D78*
X-13875Y-14450D02*
D03*
X-13875Y-14950D02*
D03*
Y-15450D02*
D03*
X-16325D02*
D03*
Y-14950D02*
D03*
Y-14450D02*
D03*
D79*
X-11225Y-11250D02*
D03*
X-10475D02*
D03*
X23275Y9500D02*
D03*
X22525D02*
D03*
X-23650Y9625D02*
D03*
X-22900Y9625D02*
D03*
X-16050Y11800D02*
D03*
X-15300D02*
D03*
X23250Y11075D02*
D03*
X22500D02*
D03*
X-18450Y-10600D02*
D03*
X-19200D02*
D03*
X-18450Y-11725D02*
D03*
X-19200Y-11725D02*
D03*
X19550Y9475D02*
D03*
X18800D02*
D03*
X8300Y8500D02*
D03*
X9050D02*
D03*
X9150Y18175D02*
D03*
X8400D02*
D03*
X9200Y16350D02*
D03*
X8450D02*
D03*
X23400Y14350D02*
D03*
X22650D02*
D03*
D80*
X-6350Y14850D02*
D03*
X-3810D02*
D03*
X-1270D02*
D03*
X1270D02*
D03*
X3810D02*
D03*
X6350D02*
D03*
Y19676D02*
D03*
X3810D02*
D03*
X1270D02*
D03*
X-1270D02*
D03*
X-3810D02*
D03*
X-6350D02*
D03*
D81*
X-26069Y-9692D02*
D03*
X-25495Y-11078D02*
D03*
X25345Y11266D02*
D03*
X25919Y9880D02*
D03*
D82*
X-11318Y-25323D02*
D03*
X-9932Y-25897D02*
D03*
X9891Y25858D02*
D03*
X11277Y25284D02*
D03*
D83*
X11266Y-25345D02*
D03*
X9880Y-25919D02*
D03*
X-11266Y25345D02*
D03*
X-9880Y25919D02*
D03*
D84*
X25858Y-9891D02*
D03*
X25284Y-11277D02*
D03*
X-25396Y11389D02*
D03*
X-25970Y10003D02*
D03*
D85*
X15050Y11650D02*
D03*
Y12150D02*
D03*
Y12650D02*
D03*
Y13150D02*
D03*
X11925Y13150D02*
D03*
X11925Y12650D02*
D03*
X11925Y12150D02*
D03*
X11925Y11650D02*
D03*
D86*
X14200Y13950D02*
D03*
X13700D02*
D03*
X13200Y13950D02*
D03*
X12700D02*
D03*
Y10850D02*
D03*
X13200D02*
D03*
X13700D02*
D03*
X14200Y10850D02*
D03*
D87*
X12814Y24579D02*
D03*
X13475Y24225D02*
D03*
D88*
X24804Y-12714D02*
D03*
X24450Y-13375D02*
D03*
D89*
X7768Y-26657D02*
D03*
X7050Y-26875D02*
D03*
X-8293Y26482D02*
D03*
X-7575Y26700D02*
D03*
D90*
X-8465Y-26452D02*
D03*
X-7747Y-26670D02*
D03*
D91*
X-24642Y-12876D02*
D03*
X-24225Y-13500D02*
D03*
D92*
X-16375Y-18775D02*
D03*
X-14375D02*
D03*
D93*
X14150Y3550D02*
D03*
Y6250D02*
D03*
D94*
X17500Y16450D02*
D03*
X19881Y15177D02*
D03*
M02*
