M48
;Layer_Color=9474304
;FILE_FORMAT=4:3
METRIC,LZ
;TYPE=PLATED
T1F00S00C0.300
T2F00S00C0.500
T3F00S00C0.600
T4F00S00C1.000
%
T01
X-0009322Y-0024079
X-0007468Y-0021768
X-0003988Y-0024663
X-0003277Y-0026899
X-0002286Y-002667
X-0005715
X-0002235Y-0020472
X0001Y-0021784
X0003Y-0022146
X0004177Y-0023012
X000381Y-0018923
X0003136Y-0016447
X0000914Y-0017994
X-0000965Y-0015291
X-0001651Y-0009449
X-000259Y-000955
X-0004648Y-0010363
X-0004428Y-0011676
X-000668Y-0009819
X-0008433Y-0010389
X-0008509Y-000541
X-0007696Y-0005535
X-0006271Y-0005733
X-0004415Y-0005262
Y-000367
X-0003353Y-0001956
X-0006591Y-000146
X-0008534Y-0001219
X-0008077Y0000127
X-0005025Y0000847
X-0004394Y0001499
X-0000533Y0000254
X0002007Y0001499
X0008698Y0001597
X0010338Y-0000711
X0011125Y-0001067
X0011075Y-0003402
X0010871Y-0005004
X0013009Y-000463
X0013517Y-0004699
X0015509Y-0004496
X0015646Y-00062
X0013259Y-000696
X0014681Y-000856
X0015075Y-00121
X0015734Y-0011606
X0013659Y-0013313
X0011913Y-0014173
X0009576Y-0015164
X0007569Y-0015313
X0007998Y-0018847
X0013183Y-0018059
X0006325Y-0012141
X0004801Y-0010948
X0005207Y-0009271
X0006325
X0006975Y-000695
X0007925Y-0005842
X000696Y-0003912
X0003542Y-0005131
X000348Y-0006223
X0000965Y-0007112
X-0001143Y-000701
X-0001956Y-0007036
X-0001092Y-0006198
X0001245Y-0009144
X0001575Y-0011278
X00188Y-0008407
X0022657Y-0010465
X0013462Y-0000178
X0013513Y0002235
X-0010649Y0002337
X-0012725Y-000061
X-0015494
X-0014605Y-0003708
X-0011989Y-0004293
X-0011074Y-0005906
X-0011887Y-0009449
X-0013562Y-0010787
X-0013106Y-0012522
X-0012479Y-001445
X-0013106Y-0015443
X-0014478Y-001495
X-0015286Y-0014732
X-0017971Y-00135
X-0016459Y-0011532
X-0015418Y-001016
X-002032Y-0008484
X-001143Y-0017475
X-0011243Y-0018806
X-0011684Y-0019583
X-0011963Y-0020472
X-0011818Y-0021768
X-0010338Y0006528
X-001049Y0010871
X-0013287Y0009973
X-0016662Y0011709
X-001515Y0013225
X-0012242Y0018225
X-00229Y0010395
X-0009387Y0009195
X-0007025Y0009834
X-0006198Y0009957
X-0007087Y0011354
X-0002438Y0011252
X00027Y00123
X0002794Y0014224
X000243Y0018644
X-0000432Y0018212
X-0000254Y0020701
X0004699Y0020244
X0005326Y0019236
X0005202Y001717
X0007235Y001602
X0010262Y0015265
X0012387Y0015519
X0012624Y0016775
X0013792Y0016104
X001585Y0013386
X0016688Y0013589
X0015867Y0012065
X001524Y0010592
X0017135Y0010185
X0018408Y0008641
X0018542Y0011742
X001082Y0012776
X0008732Y0010155
X000745Y000766
X0005613Y0008179
X0003327Y0007976
X0002464Y0008484
X0004013Y0007225
X0005013Y0004445
X0004724Y0002616
X0007366Y0003378
X0007163Y000518
X0010566Y0005334
X001082Y000447
X001103Y0003562
X0010744Y0007831
X-0000103Y0006818
X-0004293Y0004039
X-0006025Y0005672
X-0007772Y0005563
X-0009575Y0005486
X-0008661Y0002743
X-0007087Y0017424
X-0005283Y0021209
X-0007575Y0025578
X0008636Y0021895
X0013487Y0021488
T02
X00135Y00124
T03
X-0006Y0022987
X-0004
X-0002
X0
X0002
X0004
X0006
X0020053Y0018397
X00214Y001705
T04
X0010375Y-000995
M30
