%FSLAX24Y24*%
%MOIN*%
G70*
G01*
G75*
G04 Layer_Physical_Order=1*
G04 Layer_Color=255*
%ADD10R,0.0276X0.0354*%
%ADD11P,0.0445X4X112.5*%
%ADD12R,0.0354X0.0315*%
%ADD13R,0.0315X0.0354*%
%ADD14R,0.0354X0.0276*%
%ADD15P,0.0445X4X67.5*%
%ADD16P,0.0445X4X382.5*%
%ADD17P,0.0445X4X157.5*%
%ADD18R,0.0250X0.0098*%
%ADD19C,0.0079*%
%ADD20C,0.0004*%
%ADD21C,0.0472*%
%ADD22C,0.0600*%
%ADD23C,0.0236*%
D10*
X8996Y-2598D02*
D03*
X9587D02*
D03*
X-2421Y-10276D02*
D03*
X-3012D02*
D03*
X-3406Y-5236D02*
D03*
X-2815D02*
D03*
X-3406Y-4646D02*
D03*
X-2815D02*
D03*
X-8406Y-5118D02*
D03*
X-8996D02*
D03*
X-7657Y4449D02*
D03*
X-8248D02*
D03*
X-9902Y2520D02*
D03*
X-9311D02*
D03*
X2343Y10039D02*
D03*
X1752D02*
D03*
X7579Y4488D02*
D03*
X8169D02*
D03*
D11*
X9943Y-4462D02*
D03*
X10169Y-3916D02*
D03*
X-10175Y3885D02*
D03*
X-9949Y4430D02*
D03*
D12*
X4843Y-5630D02*
D03*
Y-6181D02*
D03*
X5630Y-5630D02*
D03*
Y-6181D02*
D03*
X-3386Y-6929D02*
D03*
Y-6378D02*
D03*
D13*
X3740Y-5630D02*
D03*
X3189D02*
D03*
X3701Y-4370D02*
D03*
X3150D02*
D03*
X3701Y-3622D02*
D03*
X3150D02*
D03*
X-3386Y-5827D02*
D03*
X-2835D02*
D03*
X-3346Y-3622D02*
D03*
X-2795D02*
D03*
D14*
X5236Y-8445D02*
D03*
Y-9035D02*
D03*
X-7087Y5492D02*
D03*
Y6083D02*
D03*
X-5039Y8445D02*
D03*
Y9035D02*
D03*
X-3858Y7421D02*
D03*
X-3858Y8012D02*
D03*
X3898Y7657D02*
D03*
Y8248D02*
D03*
X5197D02*
D03*
Y8839D02*
D03*
D15*
X3882Y-10159D02*
D03*
X4428Y-9933D02*
D03*
X-3882Y10159D02*
D03*
X-4428Y9933D02*
D03*
D16*
X-4422Y-9943D02*
D03*
X-3877Y-10169D02*
D03*
X3885Y10175D02*
D03*
X4430Y9949D02*
D03*
D17*
X10159Y3922D02*
D03*
X9933Y4467D02*
D03*
X-10159Y-3922D02*
D03*
X-9933Y-4467D02*
D03*
D18*
X-1049Y-6381D02*
D03*
Y-6131D02*
D03*
X-1049Y-5881D02*
D03*
X-1049Y-5631D02*
D03*
X-1049Y-5381D02*
D03*
X-1049Y-5131D02*
D03*
Y-4881D02*
D03*
Y-4631D02*
D03*
Y-4381D02*
D03*
Y-4131D02*
D03*
Y-3881D02*
D03*
Y-3631D02*
D03*
Y-3381D02*
D03*
Y-3131D02*
D03*
X1063Y-3128D02*
D03*
Y-3378D02*
D03*
Y-3628D02*
D03*
X1063Y-3878D02*
D03*
X1063Y-4128D02*
D03*
Y-4378D02*
D03*
Y-4628D02*
D03*
Y-4878D02*
D03*
Y-5128D02*
D03*
Y-5378D02*
D03*
X1063Y-5628D02*
D03*
X1063Y-5878D02*
D03*
Y-6128D02*
D03*
Y-6378D02*
D03*
D19*
X5906Y-2559D02*
Y3584D01*
X4501Y-2559D02*
X5906D01*
X3701Y-3359D02*
X4501Y-2559D01*
X4120Y-4570D02*
X6102Y-2588D01*
Y4498D01*
X406Y-2559D02*
X420D01*
X194Y-2771D02*
X406Y-2559D01*
X-5591Y-2520D02*
X-580D01*
X-6102Y-2008D02*
X-5591Y-2520D01*
X-6102Y-2008D02*
Y3768D01*
X-5709Y-2677D02*
X-993D01*
X-6260Y-2126D02*
X-5709Y-2677D01*
X-6260Y-2126D02*
Y7665D01*
X-993Y-2677D02*
X-780Y-2890D01*
X-580Y-2520D02*
X-406Y-2694D01*
X-4270Y-9791D02*
Y-6768D01*
X-4422Y-9943D02*
X-4270Y-9791D01*
Y-6768D02*
X-3880Y-6378D01*
X-6299Y-7649D02*
Y-6850D01*
X-7570Y-5580D02*
X-6299Y-6850D01*
X-8200Y-5580D02*
X-7570D01*
X-6670Y-8020D02*
X-6299Y-7649D01*
X4567Y8097D02*
Y9252D01*
X3885Y9934D02*
X4567Y9252D01*
X3885Y9934D02*
Y10175D01*
X4127Y7657D02*
X4567Y8097D01*
X-6496Y5897D02*
Y8676D01*
X-6901Y5492D02*
X-6496Y5897D01*
X-6102Y3768D02*
X-3560Y6310D01*
X-6260Y7665D02*
X-5480Y8445D01*
X-8879Y4449D02*
X-8170Y3740D01*
X-9381Y4449D02*
X-8879D01*
X-9945Y3885D02*
X-9381Y4449D01*
X-8602Y4803D02*
X-8248Y4449D01*
X-9576Y4803D02*
X-8602D01*
X-9949Y4430D02*
X-9576Y4803D01*
X-6807Y-4449D02*
X-5980Y-3622D01*
X-9391Y-4449D02*
X-6807D01*
X-9918Y-3922D02*
X-9391Y-4449D01*
X3405Y-8760D02*
X5460D01*
X3268Y-8898D02*
X3405Y-8760D01*
X3268Y-9545D02*
Y-8898D01*
Y-9545D02*
X3882Y-10159D01*
X-853Y-10276D02*
X-420Y-10709D01*
X-2421Y-10276D02*
X-853D01*
X472Y-10512D02*
X750Y-10234D01*
X-394Y-10512D02*
X472D01*
X-1246Y-9660D02*
X-394Y-10512D01*
X-420Y-10709D02*
X498D01*
X-1360Y-9660D02*
X-1246D01*
X498Y-10709D02*
X1969Y-9238D01*
Y-9144D01*
X750Y-10234D02*
Y-8920D01*
X1054Y-10945D02*
X1840Y-10159D01*
X-729Y-10945D02*
X1054D01*
X-1048Y-10626D02*
X-729Y-10945D01*
X8543Y-3617D02*
X9291Y-2869D01*
X8543Y-4462D02*
Y-3617D01*
Y-4462D02*
X9943D01*
X2362Y4976D02*
X3008Y4331D01*
X2362Y4976D02*
Y9050D01*
X787D02*
X1008Y8830D01*
Y4331D02*
Y8830D01*
X0Y4339D02*
Y9050D01*
Y4339D02*
X8Y4331D01*
X-3877Y-10169D02*
X-3771Y-10276D01*
X-2989Y-9791D02*
X-2710Y-10070D01*
X-2616Y-9791D02*
X-1969Y-9144D01*
X-4270Y-9791D02*
X-2616D01*
X9291Y3054D02*
X10159Y3922D01*
X9291Y-2869D02*
Y3054D01*
X8169Y4488D02*
X8190Y4467D01*
X5159Y4331D02*
X5906Y3584D01*
X5425Y5175D02*
X6102Y4498D01*
X5400Y6100D02*
X6299Y5201D01*
Y-2791D02*
Y5201D01*
X4540Y-4550D02*
X6299Y-2791D01*
X2343Y9070D02*
Y9720D01*
Y9070D02*
X2362Y9050D01*
X0Y10050D02*
X29Y10079D01*
X1713D02*
X1752Y10039D01*
X29Y10079D02*
X1713D01*
X-4567Y9263D02*
X-3882Y9948D01*
X-4567Y7937D02*
Y9263D01*
X-4516Y9933D02*
X-4428D01*
X-5039Y9409D02*
X-4516Y9933D01*
X-5039Y9035D02*
Y9409D01*
X-4580Y7950D02*
X-4051Y7421D01*
X-6496Y8676D02*
X-6462Y8710D01*
X-4680D01*
X-7106Y6102D02*
X-7087Y6083D01*
Y4154D02*
Y5492D01*
X-7501Y3740D02*
X-7087Y4154D01*
X-9311Y2520D02*
X-9285Y2546D01*
X-7657Y4410D02*
X-7598Y4351D01*
Y3976D02*
Y4351D01*
X-8170Y3740D02*
X-7501D01*
X2343Y9720D02*
Y10039D01*
X3701Y-4459D02*
X3740D01*
X8775Y-5630D02*
X9943Y-4462D01*
X7915Y-6490D02*
X8775Y-5630D01*
X-4051Y7421D02*
X-3858D01*
X-3346Y-3834D02*
Y-3622D01*
Y-4111D02*
Y-3834D01*
X2544Y-4586D02*
X3150D01*
X-1062Y-3696D02*
Y-3631D01*
X3846Y8248D02*
Y9285D01*
X-3690Y8012D02*
Y9220D01*
Y8012D02*
X-3640D01*
X-2815Y-5100D02*
X-1540D01*
X-1123Y-4669D02*
Y-4631D01*
X-1589Y-4669D02*
X-1123D01*
X-2815D02*
X-1589D01*
X-1090Y-3131D02*
Y-2930D01*
X5200Y8070D02*
Y8248D01*
X-9281Y-5120D02*
X-8996D01*
X5200Y8839D02*
Y9179D01*
X4540Y-6181D02*
X4843D01*
X3599D02*
X4540D01*
X-9902Y1410D02*
Y2520D01*
Y1410D02*
X-9590Y1098D01*
Y-3352D02*
Y1098D01*
X-10159Y-3922D02*
X-9590Y-3352D01*
X-9902Y2520D02*
Y3612D01*
X-10175Y3885D02*
X-9902Y3612D01*
X3701Y-3622D02*
Y-3359D01*
X3008Y4331D02*
X5159D01*
X-4680Y8710D02*
X-4580Y8610D01*
X-7087Y5492D02*
X-6901D01*
X-3882Y9948D02*
Y10159D01*
X2243Y9620D02*
X2343Y9720D01*
X-3343Y9620D02*
X2243D01*
X-3882Y10159D02*
X-3343Y9620D01*
X5630Y-5630D02*
X8775D01*
X1063Y-5128D02*
X1633D01*
X920Y-5378D02*
X1063D01*
X194Y-4652D02*
X920Y-5378D01*
X194Y-4652D02*
Y-2771D01*
X-170Y-3060D02*
X36Y-3266D01*
Y-5366D02*
Y-3266D01*
Y-5366D02*
X798Y-6128D01*
X1063D01*
X-2710Y-6210D02*
X-2664D01*
X-2085Y-5631D01*
X-1049D01*
X-720Y-5890D02*
Y-5566D01*
X-905Y-5381D02*
X-720Y-5566D01*
X-1049Y-5381D02*
X-905D01*
X-1710Y-4790D02*
X-1589Y-4669D01*
X-1810Y-3881D02*
X-1049D01*
X-1370Y-3460D02*
X-1291Y-3381D01*
X-1049D01*
X-1090Y-3131D02*
X-1049D01*
X1063Y-3878D02*
X1640D01*
X1063Y-4128D02*
X2558D01*
X2780Y-4350D01*
X1063Y-4628D02*
X1875D01*
X2027Y-4780D01*
X3460D01*
X3500Y-4740D01*
X1876Y-4878D02*
X2188Y-5190D01*
X1063Y-4878D02*
X1876D01*
X-2362Y4961D02*
Y9050D01*
X-2992Y4331D02*
X-2362Y4961D01*
X-1575Y4748D02*
Y9050D01*
X-1992Y4331D02*
X-1575Y4748D01*
X-992Y4331D02*
Y8845D01*
X-787Y9050D01*
X742Y-3378D02*
X1063D01*
X664Y-3300D02*
X742Y-3378D01*
X-5480Y8445D02*
X-5039D01*
X-780Y-4790D02*
Y-2890D01*
Y-4790D02*
X-484Y-5087D01*
Y-6051D02*
Y-5087D01*
X-780Y-6347D02*
X-484Y-6051D01*
X-780Y-8505D02*
Y-6347D01*
Y-8505D02*
X-394Y-8891D01*
Y-9144D02*
Y-8891D01*
X-7657Y4410D02*
Y4449D01*
X-8406Y-5374D02*
X-8200Y-5580D01*
X-8406Y-5374D02*
Y-5118D01*
X8996Y-2900D02*
Y-2598D01*
X7290Y-4606D02*
X8996Y-2900D01*
X7290Y-5330D02*
Y-4606D01*
X2200Y-7337D02*
Y-6200D01*
X1181Y-8356D02*
X2200Y-7337D01*
X7579Y-3641D02*
Y4488D01*
X5940Y-5280D02*
X7579Y-3641D01*
X1464Y-6186D02*
X1580Y-6070D01*
X1464Y-7286D02*
Y-6186D01*
X394Y-8356D02*
X1464Y-7286D01*
X510Y-7470D02*
X1306Y-6674D01*
Y-5924D01*
X1400Y-5830D01*
X2270D01*
X2400Y-5960D01*
X3960D01*
X4120Y-5800D01*
Y-4570D01*
X4065Y5175D02*
X5425D01*
X3360Y5880D02*
X4065Y5175D01*
X3360Y5880D02*
Y6230D01*
X5200Y8070D01*
X5197Y8248D02*
X5200D01*
X802Y-3628D02*
X1063D01*
X780Y-3650D02*
X802Y-3628D01*
X-540Y-3520D02*
X-290Y-3770D01*
Y-5890D02*
Y-3770D01*
Y-5890D02*
X-30Y-6150D01*
Y-9328D02*
Y-6150D01*
X-200Y-9498D02*
X-30Y-9328D01*
X-740Y-9498D02*
X-200D01*
X-827Y-9411D02*
X-740Y-9498D01*
X-827Y-9411D02*
Y-8711D01*
X-1181Y-8356D02*
X-827Y-8711D01*
X9587Y-3333D02*
Y-2598D01*
Y-3333D02*
X10169Y-3916D01*
X1575Y4764D02*
Y9050D01*
Y4764D02*
X2008Y4331D01*
X-3284Y-8356D02*
X-1969D01*
X-3760Y-7880D02*
X-3284Y-8356D01*
X-3760Y-7880D02*
Y-6730D01*
X-1851Y-5881D02*
X-1049D01*
X3777Y6100D02*
X5400D01*
X4540Y-6181D02*
Y-4550D01*
X-2710Y-10480D02*
Y-10070D01*
Y-10480D02*
X-2564Y-10626D01*
X-1048D01*
X1840Y-10159D02*
X3882D01*
X-1969Y-8356D02*
X-1540Y-8785D01*
Y-9480D02*
Y-8785D01*
Y-9480D02*
X-1360Y-9660D01*
X750Y-8920D02*
X920Y-8750D01*
X1400D01*
X1540Y-8610D01*
Y-8240D01*
X3599Y-6181D01*
X-1381Y-4131D02*
X-1049D01*
X-1520Y-4270D02*
X-1381Y-4131D01*
X518Y-6378D02*
X1063D01*
X-121Y-5739D02*
X518Y-6378D01*
X-121Y-5739D02*
Y-3570D01*
X-406Y-3285D02*
X-121Y-3570D01*
X-406Y-3285D02*
Y-2694D01*
X-3560Y6310D02*
Y7932D01*
X-3640Y8012D02*
X-3560Y7932D01*
X5460Y-8760D02*
X5540Y-8680D01*
Y-6920D01*
X5970Y-6490D01*
X7915D01*
X-1225Y-5131D02*
X-1049D01*
X-1476Y-5381D02*
X-1225Y-5131D01*
X-2069Y-5381D02*
X-1476D01*
X-2514Y-5827D02*
X-2069Y-5381D01*
X-2835Y-5827D02*
X-2514D01*
X2736Y-5630D02*
X3189D01*
X2734Y-5628D02*
X2736Y-5630D01*
X1063Y-5628D02*
X2734D01*
X3701Y-4459D02*
Y-4370D01*
X3740Y-5630D02*
Y-4459D01*
X1063Y-4378D02*
X2336D01*
X2544Y-4586D01*
X3150D02*
Y-4370D01*
X-1062Y-3631D02*
X-1049D01*
X-1630Y-3696D02*
X-1062D01*
X-1704Y-3622D02*
X-1630Y-3696D01*
X-2795Y-3622D02*
X-1704D01*
X-3346Y-3834D02*
X-3240Y-3940D01*
X-2241D01*
X-1669Y-4512D01*
X-1412D01*
X-1280Y-4381D01*
X-1049D01*
X-1123Y-4631D02*
X-1049D01*
X-2815Y-4669D02*
Y-4646D01*
X-3386Y-6378D02*
X-2945D01*
X-2877Y-6446D01*
X-2016D01*
X-1700Y-6131D01*
X-1049D01*
X-3880Y-6378D02*
X-3386D01*
X4760Y-9035D02*
X5236D01*
X4428Y-9368D02*
X4760Y-9035D01*
X4428Y-9933D02*
Y-9368D01*
X-8996Y-5120D02*
Y-5118D01*
X-9933Y-4467D02*
X-9281Y-5120D01*
X5197Y8839D02*
X5200D01*
X4430Y9949D02*
X5200Y9179D01*
X-10175Y3885D02*
X-9945D01*
X1063Y-3128D02*
X1630D01*
X2124Y-3622D01*
X3150D01*
X-1631Y-6381D02*
X-1049D01*
X-2179Y-6929D02*
X-1631Y-6381D01*
X-3386Y-6929D02*
X-2179D01*
X-1321Y-4881D02*
X-1049D01*
X-1540Y-5100D02*
X-1321Y-4881D01*
X-2815Y-5236D02*
Y-5100D01*
X-3858Y8012D02*
X-3690D01*
X3846Y8248D02*
X3898D01*
Y7657D02*
X4127D01*
X3175Y10175D02*
X3885D01*
X3040Y10039D02*
X3175Y10175D01*
X2343Y10039D02*
X3040D01*
X4843Y-5630D02*
X5630D01*
X3701Y-4370D02*
Y-3622D01*
X-10159Y-3922D02*
X-9918D01*
X-5980Y-3622D02*
X-3346D01*
X-3406Y-4170D02*
X-3346Y-4111D01*
X-3406Y-4646D02*
Y-4170D01*
Y-4950D02*
Y-4646D01*
Y-4950D02*
X-3406Y-4950D01*
Y-5236D02*
Y-4950D01*
Y-5530D02*
Y-5236D01*
Y-5530D02*
X-3386Y-5550D01*
Y-5827D02*
Y-5550D01*
Y-6378D02*
Y-5827D01*
X-7106Y6102D02*
Y7106D01*
X-9285Y2546D02*
Y3846D01*
X3639Y-8445D02*
X5236D01*
X3550Y-8356D02*
X3639Y-8445D01*
X1969Y-8356D02*
X3550D01*
X-3771Y-10276D02*
X-3012D01*
X8190Y4467D02*
X9933D01*
X4843Y-6181D02*
X5630D01*
D20*
X-3846Y9285D02*
X-3690Y9220D01*
D21*
X-1969Y-9144D02*
D03*
X-1181D02*
D03*
X-394D02*
D03*
X394D02*
D03*
X1181D02*
D03*
X1969D02*
D03*
Y-8356D02*
D03*
X1181D02*
D03*
X394D02*
D03*
X-394D02*
D03*
X-1181D02*
D03*
X-1969D02*
D03*
X-2362Y9050D02*
D03*
X-1575D02*
D03*
X-787D02*
D03*
X0D02*
D03*
X787D02*
D03*
X1575D02*
D03*
X2362D02*
D03*
D22*
X3008Y4331D02*
D03*
X2008D02*
D03*
X1008D02*
D03*
X8Y4331D02*
D03*
X-992D02*
D03*
X-1992Y4331D02*
D03*
X-2992Y4331D02*
D03*
X9285Y3846D02*
D03*
X10050Y0D02*
D03*
X9285Y-3846D02*
D03*
X7106Y-7106D02*
D03*
X3846Y-9285D02*
D03*
X0Y-10050D02*
D03*
X-3846Y-9285D02*
D03*
X-7106Y-7106D02*
D03*
X-9285Y-3846D02*
D03*
X-10050Y0D02*
D03*
X-9285Y3846D02*
D03*
X-7106Y7106D02*
D03*
X-3846Y9285D02*
D03*
X0Y10050D02*
D03*
X3846Y9285D02*
D03*
X7106Y7106D02*
D03*
D23*
X512Y-2559D02*
D03*
X-7598Y3976D02*
D03*
X1633Y-5128D02*
D03*
X-170Y-3060D02*
D03*
X-2710Y-6210D02*
D03*
X-720Y-5890D02*
D03*
X-1540Y-5100D02*
D03*
X-1710Y-4790D02*
D03*
X-1810Y-3881D02*
D03*
X-1370Y-3460D02*
D03*
X-1090Y-2930D02*
D03*
X1640Y-3878D02*
D03*
X2780Y-4350D02*
D03*
X3500Y-4740D02*
D03*
X2188Y-5190D02*
D03*
X664Y-3300D02*
D03*
X-6670Y-8020D02*
D03*
X7290Y-5330D02*
D03*
X2200Y-6200D02*
D03*
X5940Y-5280D02*
D03*
X1580Y-6070D02*
D03*
X510Y-7470D02*
D03*
X780Y-3650D02*
D03*
X-540Y-3520D02*
D03*
X-3760Y-6730D02*
D03*
X-1851Y-5881D02*
D03*
X3777Y6100D02*
D03*
X-1520Y-4270D02*
D03*
M02*
