%FSLAX24Y24*%
%MOIN*%
G70*
G01*
G75*
G04 Layer_Color=8388736*
%ADD10R,0.0276X0.0354*%
%ADD11P,0.0445X4X112.5*%
%ADD12R,0.0354X0.0315*%
%ADD13R,0.0315X0.0354*%
%ADD14R,0.0354X0.0276*%
%ADD15P,0.0445X4X67.5*%
%ADD16P,0.0445X4X382.5*%
%ADD17P,0.0445X4X157.5*%
%ADD18R,0.0250X0.0098*%
%ADD19C,0.0079*%
%ADD20C,0.0004*%
%ADD21C,0.0472*%
%ADD22C,0.0600*%
%ADD23C,0.0236*%
%ADD24R,0.0356X0.0434*%
%ADD25P,0.0559X4X112.5*%
%ADD26R,0.0434X0.0395*%
%ADD27R,0.0395X0.0434*%
%ADD28R,0.0434X0.0356*%
%ADD29P,0.0559X4X67.5*%
%ADD30P,0.0559X4X382.5*%
%ADD31P,0.0559X4X157.5*%
%ADD32R,0.0330X0.0178*%
%ADD33C,0.0552*%
%ADD34C,0.0680*%
%ADD35C,0.0316*%
D24*
X8996Y-2598D02*
D03*
X9587D02*
D03*
X-2421Y-10276D02*
D03*
X-3012D02*
D03*
X-3406Y-5236D02*
D03*
X-2815D02*
D03*
X-3406Y-4646D02*
D03*
X-2815D02*
D03*
X-8406Y-5118D02*
D03*
X-8996D02*
D03*
X-7657Y4449D02*
D03*
X-8248D02*
D03*
X-9902Y2520D02*
D03*
X-9311D02*
D03*
X2343Y10039D02*
D03*
X1752D02*
D03*
X7579Y4488D02*
D03*
X8169D02*
D03*
D25*
X9943Y-4462D02*
D03*
X10169Y-3916D02*
D03*
X-10175Y3885D02*
D03*
X-9949Y4430D02*
D03*
D26*
X4843Y-5630D02*
D03*
Y-6181D02*
D03*
X5630Y-5630D02*
D03*
Y-6181D02*
D03*
X-3386Y-6929D02*
D03*
Y-6378D02*
D03*
D27*
X3740Y-5630D02*
D03*
X3189D02*
D03*
X3701Y-4370D02*
D03*
X3150D02*
D03*
X3701Y-3622D02*
D03*
X3150D02*
D03*
X-3386Y-5827D02*
D03*
X-2835D02*
D03*
X-3346Y-3622D02*
D03*
X-2795D02*
D03*
D28*
X5236Y-8445D02*
D03*
Y-9035D02*
D03*
X-7087Y5492D02*
D03*
Y6083D02*
D03*
X-5039Y8445D02*
D03*
Y9035D02*
D03*
X-3858Y7421D02*
D03*
X-3858Y8012D02*
D03*
X3898Y7657D02*
D03*
Y8248D02*
D03*
X5197D02*
D03*
Y8839D02*
D03*
D29*
X3882Y-10159D02*
D03*
X4428Y-9933D02*
D03*
X-3882Y10159D02*
D03*
X-4428Y9933D02*
D03*
D30*
X-4422Y-9943D02*
D03*
X-3877Y-10169D02*
D03*
X3885Y10175D02*
D03*
X4430Y9949D02*
D03*
D31*
X10159Y3922D02*
D03*
X9933Y4467D02*
D03*
X-10159Y-3922D02*
D03*
X-9933Y-4467D02*
D03*
D32*
X-1049Y-6381D02*
D03*
Y-6131D02*
D03*
X-1049Y-5881D02*
D03*
X-1049Y-5631D02*
D03*
X-1049Y-5381D02*
D03*
X-1049Y-5131D02*
D03*
Y-4881D02*
D03*
Y-4631D02*
D03*
Y-4381D02*
D03*
Y-4131D02*
D03*
Y-3881D02*
D03*
Y-3631D02*
D03*
Y-3381D02*
D03*
Y-3131D02*
D03*
X1063Y-3128D02*
D03*
Y-3378D02*
D03*
Y-3628D02*
D03*
X1063Y-3878D02*
D03*
X1063Y-4128D02*
D03*
Y-4378D02*
D03*
Y-4628D02*
D03*
Y-4878D02*
D03*
Y-5128D02*
D03*
Y-5378D02*
D03*
X1063Y-5628D02*
D03*
X1063Y-5878D02*
D03*
Y-6128D02*
D03*
Y-6378D02*
D03*
D33*
X-1969Y-9144D02*
D03*
X-1181D02*
D03*
X-394D02*
D03*
X394D02*
D03*
X1181D02*
D03*
X1969D02*
D03*
Y-8356D02*
D03*
X1181D02*
D03*
X394D02*
D03*
X-394D02*
D03*
X-1181D02*
D03*
X-1969D02*
D03*
X-2362Y9050D02*
D03*
X-1575D02*
D03*
X-787D02*
D03*
X0D02*
D03*
X787D02*
D03*
X1575D02*
D03*
X2362D02*
D03*
D34*
X3008Y4331D02*
D03*
X2008D02*
D03*
X1008D02*
D03*
X8Y4331D02*
D03*
X-992D02*
D03*
X-1992Y4331D02*
D03*
X-2992Y4331D02*
D03*
X9285Y3846D02*
D03*
X10050Y0D02*
D03*
X9285Y-3846D02*
D03*
X7106Y-7106D02*
D03*
X3846Y-9285D02*
D03*
X0Y-10050D02*
D03*
X-3846Y-9285D02*
D03*
X-7106Y-7106D02*
D03*
X-9285Y-3846D02*
D03*
X-10050Y0D02*
D03*
X-9285Y3846D02*
D03*
X-7106Y7106D02*
D03*
X-3846Y9285D02*
D03*
X0Y10050D02*
D03*
X3846Y9285D02*
D03*
X7106Y7106D02*
D03*
D35*
X512Y-2559D02*
D03*
X-7598Y3976D02*
D03*
X1633Y-5128D02*
D03*
X-170Y-3060D02*
D03*
X-2710Y-6210D02*
D03*
X-720Y-5890D02*
D03*
X-1540Y-5100D02*
D03*
X-1710Y-4790D02*
D03*
X-1810Y-3881D02*
D03*
X-1370Y-3460D02*
D03*
X-1090Y-2930D02*
D03*
X1640Y-3878D02*
D03*
X2780Y-4350D02*
D03*
X3500Y-4740D02*
D03*
X2188Y-5190D02*
D03*
X664Y-3300D02*
D03*
X-6670Y-8020D02*
D03*
X7290Y-5330D02*
D03*
X2200Y-6200D02*
D03*
X5940Y-5280D02*
D03*
X1580Y-6070D02*
D03*
X510Y-7470D02*
D03*
X780Y-3650D02*
D03*
X-540Y-3520D02*
D03*
X-3760Y-6730D02*
D03*
X-1851Y-5881D02*
D03*
X3777Y6100D02*
D03*
X-1520Y-4270D02*
D03*
M02*
