M48
;Layer_Color=9474304
;FILE_FORMAT=2:4
INCH,LZ
;TYPE=PLATED
T1F00S00C0.0118
T2F00S00C0.0236
T3F00S00C0.0300
%
T01
X-00667Y-00802
X-00376Y-00673
X-00271Y-00621
X-001851Y-005881
X-00154Y-0051
X-00171Y-00479
X-00152Y-00427
X-00181Y-003881
X-00137Y-00346
X-00109Y-00293
X-00017Y-00306
X-00054Y-00352
X000664Y-0033
X00078Y-00365
X00164Y-003878
X001633Y-005128
X002188Y-00519
X0022Y-0062
X00158Y-00607
X00051Y-00747
X-00072Y-00589
X000512Y-002559
X00278Y-00435
X0035Y-00474
X00594Y-00528
X00729Y-00533
X003777Y0061
X-007598Y003976
T02
X-001969Y-009144
X-001181
X-000394
X000394
Y-008356
X001181
X001969
Y-009144
X001181
X-000394Y-008356
X-001181
X-001969
X-002362Y00905
X-001575
X-000787
X0
X000787
X001575
X002362
T03
X009285Y-003846
X01005Y0
X007106Y-007106
X003846Y-009285
X0Y-01005
X-003846Y-009285
X-007106Y-007106
X-009285Y-003846
X-01005Y0
X-009285Y003846
X-007106Y007106
X-003846Y009285
X0Y01005
X003846Y009285
X007106Y007106
X003008Y004331
X002008
X001008
X000008Y004331
X-000992
X-001992Y004331
X-002992Y004331
X009285Y003846
M30
